<svg width="43" height="50" viewBox="0 0 43 50" fill="none" xmlns="http://www.w3.org/2000/svg">
<path d="M34.8217 35.1988L36.4991 36.8748L36.4992 36.8748L34.8217 35.1988ZM24.7605 45.269L26.4371 46.9458L26.4379 46.945L24.7605 45.269ZM18.0569 45.269L16.3797 46.9452L16.3803 46.9458L18.0569 45.269ZM7.99335 35.1988L6.31583 36.8748L6.31607 36.875L7.99335 35.1988ZM11.9225 21.7729C11.9225 24.2895 12.9213 26.7034 14.6998 28.4835L18.0548 25.1315C17.1652 24.2411 16.665 23.033 16.665 21.7729H11.9225ZM14.6998 28.4835C16.4785 30.2637 18.8912 31.2642 21.4075 31.2642V26.5217C20.1504 26.5217 18.9443 26.0219 18.0548 25.1315L14.6998 28.4835ZM21.4075 31.2642C23.9238 31.2642 26.3365 30.2637 28.1151 28.4835L24.7602 25.1315C23.8707 26.0219 22.6646 26.5217 21.4075 26.5217V31.2642ZM28.1151 28.4835C29.8937 26.7034 30.8925 24.2895 30.8925 21.7729H26.15C26.15 23.033 25.6498 24.2411 24.7602 25.1315L28.1151 28.4835ZM30.8925 21.7729C30.8925 19.2563 29.8937 16.8424 28.1151 15.0623L24.7602 18.4142C25.6498 19.3046 26.15 20.5127 26.15 21.7729H30.8925ZM28.1151 15.0623C26.3365 13.2821 23.9238 12.2816 21.4075 12.2816V17.0241C22.6646 17.0241 23.8707 17.5239 24.7602 18.4142L28.1151 15.0623ZM21.4075 12.2816C18.8912 12.2816 16.4785 13.2821 14.6998 15.0623L18.0548 18.4142C18.9443 17.5239 20.1504 17.0241 21.4075 17.0241V12.2816ZM14.6998 15.0623C12.9213 16.8424 11.9225 19.2563 11.9225 21.7729H16.665C16.665 20.5127 17.1652 19.3046 18.0548 18.4142L14.6998 15.0623ZM33.1442 33.5229L23.083 43.593L26.4379 46.945L36.4991 36.8748L33.1442 33.5229ZM23.0838 43.5922C22.639 44.0369 22.0365 44.2863 21.4087 44.2863V49.0288C23.2948 49.0288 25.1034 48.2794 26.4371 46.9458L23.0838 43.5922ZM21.4087 44.2863C20.7809 44.2863 20.1783 44.0369 19.7336 43.5922L16.3803 46.9458C17.714 48.2794 19.5226 49.0288 21.4087 49.0288V44.2863ZM19.7342 43.5928L9.67062 33.5227L6.31607 36.875L16.3797 46.9452L19.7342 43.5928ZM9.67086 33.5229C7.34941 31.1993 5.76827 28.2386 5.12771 25.0151L0.476166 25.9394C1.29937 30.0821 3.33147 33.8876 6.31583 36.8748L9.67086 33.5229ZM5.12771 25.0151C4.48715 21.7916 4.81602 18.4504 6.07263 15.4141L1.69058 13.6005C0.075551 17.5029 -0.347038 21.7968 0.476166 25.9394L5.12771 25.0151ZM6.07263 15.4141C7.32923 12.3778 9.45703 9.78296 12.1866 7.9575L9.55025 4.01532C6.04069 6.36238 3.30563 9.69813 1.69058 13.6005L6.07263 15.4141ZM12.1866 7.9575C14.9162 6.13206 18.1251 5.15787 21.4075 5.15787V0.415371C17.1862 0.415371 13.0598 1.66825 9.55025 4.01532L12.1866 7.9575ZM21.4075 5.15787C24.6899 5.15787 27.8988 6.13206 30.6284 7.9575L33.2648 4.01532C29.7552 1.66825 25.6288 0.415371 21.4075 0.415371V5.15787ZM30.6284 7.9575C33.358 9.78296 35.4858 12.3778 36.7424 15.4141L41.1244 13.6005C39.5094 9.69813 36.7743 6.36238 33.2648 4.01532L30.6284 7.9575ZM36.7424 15.4141C37.999 18.4504 38.3279 21.7916 37.6873 25.0151L42.3388 25.9394C43.162 21.7968 42.7395 17.5029 41.1244 13.6005L36.7424 15.4141ZM37.6873 25.0151C37.0467 28.2386 35.4656 31.1993 33.1441 33.5229L36.4992 36.8748C39.4835 33.8876 41.5156 30.0821 42.3388 25.9394L37.6873 25.0151Z" fill="#034703" fill-opacity="0.75"/>
</svg>
