<svg width="256" height="49" viewBox="0 0 256 49" fill="none" xmlns="http://www.w3.org/2000/svg">
<g filter="url(#filter0_d_2656_2949)">
<rect x="5" y="1" width="246" height="39" rx="6" fill="#034703" shape-rendering="crispEdges"/>
<rect x="5" y="1" width="246" height="39" rx="6" stroke="white" stroke-opacity="0.5" stroke-width="2" shape-rendering="crispEdges"/>
<path d="M70.9369 18.09C70.5889 17.358 70.0849 16.794 69.4249 16.398C68.7649 15.99 67.9969 15.786 67.1209 15.786C66.2449 15.786 65.4529 15.99 64.7449 16.398C64.0489 16.794 63.4969 17.37 63.0889 18.126C62.6929 18.87 62.4949 19.734 62.4949 20.718C62.4949 21.702 62.6929 22.566 63.0889 23.31C63.4969 24.054 64.0489 24.63 64.7449 25.038C65.4529 25.434 66.2449 25.632 67.1209 25.632C68.3449 25.632 69.3529 25.266 70.1449 24.534C70.9369 23.802 71.3989 22.812 71.5309 21.564H66.5269V20.232H73.2769V21.492C73.1809 22.524 72.8569 23.472 72.3049 24.336C71.7529 25.188 71.0269 25.866 70.1269 26.37C69.2269 26.862 68.2249 27.108 67.1209 27.108C65.9569 27.108 64.8949 26.838 63.9349 26.298C62.9749 25.746 62.2129 24.984 61.6489 24.012C61.0969 23.04 60.8209 21.942 60.8209 20.718C60.8209 19.494 61.0969 18.396 61.6489 17.424C62.2129 16.44 62.9749 15.678 63.9349 15.138C64.8949 14.586 65.9569 14.31 67.1209 14.31C68.4529 14.31 69.6289 14.64 70.6489 15.3C71.6809 15.96 72.4309 16.89 72.8989 18.09H70.9369ZM84.4426 21.69C84.4426 22.002 84.4246 22.332 84.3886 22.68H76.5046C76.5646 23.652 76.8946 24.414 77.4946 24.966C78.1066 25.506 78.8446 25.776 79.7086 25.776C80.4166 25.776 81.0046 25.614 81.4726 25.29C81.9526 24.954 82.2886 24.51 82.4806 23.958H84.2446C83.9806 24.906 83.4526 25.68 82.6606 26.28C81.8686 26.868 80.8846 27.162 79.7086 27.162C78.7726 27.162 77.9326 26.952 77.1886 26.532C76.4566 26.112 75.8806 25.518 75.4606 24.75C75.0406 23.97 74.8306 23.07 74.8306 22.05C74.8306 21.03 75.0346 20.136 75.4426 19.368C75.8506 18.6 76.4206 18.012 77.1526 17.604C77.8966 17.184 78.7486 16.974 79.7086 16.974C80.6446 16.974 81.4726 17.178 82.1926 17.586C82.9126 17.994 83.4646 18.558 83.8486 19.278C84.2446 19.986 84.4426 20.79 84.4426 21.69ZM82.7506 21.348C82.7506 20.724 82.6126 20.19 82.3366 19.746C82.0606 19.29 81.6826 18.948 81.2026 18.72C80.7346 18.48 80.2126 18.36 79.6366 18.36C78.8086 18.36 78.1006 18.624 77.5126 19.152C76.9366 19.68 76.6066 20.412 76.5226 21.348H82.7506ZM88.6028 18.486V24.3C88.6028 24.78 88.7048 25.122 88.9088 25.326C89.1128 25.518 89.4668 25.614 89.9707 25.614H91.1768V27H89.7008C88.7888 27 88.1048 26.79 87.6488 26.37C87.1928 25.95 86.9648 25.26 86.9648 24.3V18.486H85.6868V17.136H86.9648V14.652H88.6028V17.136H91.1768V18.486H88.6028ZM98.8062 15.534C98.4942 15.534 98.2302 15.426 98.0142 15.21C97.7982 14.994 97.6902 14.73 97.6902 14.418C97.6902 14.106 97.7982 13.842 98.0142 13.626C98.2302 13.41 98.4942 13.302 98.8062 13.302C99.1062 13.302 99.3582 13.41 99.5622 13.626C99.7782 13.842 99.8862 14.106 99.8862 14.418C99.8862 14.73 99.7782 14.994 99.5622 15.21C99.3582 15.426 99.1062 15.534 98.8062 15.534ZM99.5982 17.136V27H97.9602V17.136H99.5982ZM104.388 18.486V24.3C104.388 24.78 104.49 25.122 104.694 25.326C104.898 25.518 105.252 25.614 105.756 25.614H106.962V27H105.486C104.574 27 103.89 26.79 103.434 26.37C102.978 25.95 102.75 25.26 102.75 24.3V18.486H101.472V17.136H102.75V14.652H104.388V17.136H106.962V18.486H104.388ZM118.047 27.162C117.123 27.162 116.283 26.952 115.527 26.532C114.783 26.112 114.195 25.518 113.763 24.75C113.343 23.97 113.133 23.07 113.133 22.05C113.133 21.042 113.349 20.154 113.781 19.386C114.225 18.606 114.825 18.012 115.581 17.604C116.337 17.184 117.183 16.974 118.119 16.974C119.055 16.974 119.901 17.184 120.657 17.604C121.413 18.012 122.007 18.6 122.439 19.368C122.883 20.136 123.105 21.03 123.105 22.05C123.105 23.07 122.877 23.97 122.421 24.75C121.977 25.518 121.371 26.112 120.603 26.532C119.835 26.952 118.983 27.162 118.047 27.162ZM118.047 25.722C118.635 25.722 119.187 25.584 119.703 25.308C120.219 25.032 120.633 24.618 120.945 24.066C121.269 23.514 121.431 22.842 121.431 22.05C121.431 21.258 121.275 20.586 120.963 20.034C120.651 19.482 120.243 19.074 119.739 18.81C119.235 18.534 118.689 18.396 118.101 18.396C117.501 18.396 116.949 18.534 116.445 18.81C115.953 19.074 115.557 19.482 115.257 20.034C114.957 20.586 114.807 21.258 114.807 22.05C114.807 22.854 114.951 23.532 115.239 24.084C115.539 24.636 115.935 25.05 116.427 25.326C116.919 25.59 117.459 25.722 118.047 25.722ZM130.065 16.956C131.265 16.956 132.237 17.322 132.981 18.054C133.725 18.774 134.097 19.818 134.097 21.186V27H132.477V21.42C132.477 20.436 132.231 19.686 131.739 19.17C131.247 18.642 130.575 18.378 129.723 18.378C128.859 18.378 128.169 18.648 127.653 19.188C127.149 19.728 126.897 20.514 126.897 21.546V27H125.259V17.136H126.897V18.54C127.221 18.036 127.659 17.646 128.211 17.37C128.775 17.094 129.393 16.956 130.065 16.956ZM148.988 24.21H143.516L142.508 27H140.78L145.316 14.526H147.206L151.724 27H149.996L148.988 24.21ZM148.52 22.878L146.252 16.542L143.984 22.878H148.52ZM155.338 18.954C155.662 18.39 156.142 17.922 156.778 17.55C157.426 17.166 158.176 16.974 159.028 16.974C159.904 16.974 160.696 17.184 161.404 17.604C162.124 18.024 162.688 18.618 163.096 19.386C163.504 20.142 163.708 21.024 163.708 22.032C163.708 23.028 163.504 23.916 163.096 24.696C162.688 25.476 162.124 26.082 161.404 26.514C160.696 26.946 159.904 27.162 159.028 27.162C158.188 27.162 157.444 26.976 156.796 26.604C156.16 26.22 155.674 25.746 155.338 25.182V31.68H153.7V17.136H155.338V18.954ZM162.034 22.032C162.034 21.288 161.884 20.64 161.584 20.088C161.284 19.536 160.876 19.116 160.36 18.828C159.856 18.54 159.298 18.396 158.686 18.396C158.086 18.396 157.528 18.546 157.012 18.846C156.508 19.134 156.1 19.56 155.788 20.124C155.488 20.676 155.338 21.318 155.338 22.05C155.338 22.794 155.488 23.448 155.788 24.012C156.1 24.564 156.508 24.99 157.012 25.29C157.528 25.578 158.086 25.722 158.686 25.722C159.298 25.722 159.856 25.578 160.36 25.29C160.876 24.99 161.284 24.564 161.584 24.012C161.884 23.448 162.034 22.788 162.034 22.032ZM167.503 18.954C167.827 18.39 168.307 17.922 168.943 17.55C169.591 17.166 170.341 16.974 171.193 16.974C172.069 16.974 172.861 17.184 173.569 17.604C174.289 18.024 174.853 18.618 175.261 19.386C175.669 20.142 175.873 21.024 175.873 22.032C175.873 23.028 175.669 23.916 175.261 24.696C174.853 25.476 174.289 26.082 173.569 26.514C172.861 26.946 172.069 27.162 171.193 27.162C170.353 27.162 169.609 26.976 168.961 26.604C168.325 26.22 167.839 25.746 167.503 25.182V31.68H165.865V17.136H167.503V18.954ZM174.199 22.032C174.199 21.288 174.049 20.64 173.749 20.088C173.449 19.536 173.041 19.116 172.525 18.828C172.021 18.54 171.463 18.396 170.851 18.396C170.251 18.396 169.693 18.546 169.177 18.846C168.673 19.134 168.265 19.56 167.953 20.124C167.653 20.676 167.503 21.318 167.503 22.05C167.503 22.794 167.653 23.448 167.953 24.012C168.265 24.564 168.673 24.99 169.177 25.29C169.693 25.578 170.251 25.722 170.851 25.722C171.463 25.722 172.021 25.578 172.525 25.29C173.041 24.99 173.449 24.564 173.749 24.012C174.049 23.448 174.199 22.788 174.199 22.032ZM186.805 27.126C185.977 27.126 185.233 26.982 184.573 26.694C183.925 26.394 183.415 25.986 183.043 25.47C182.671 24.942 182.479 24.336 182.467 23.652H184.213C184.273 24.24 184.513 24.738 184.933 25.146C185.365 25.542 185.989 25.74 186.805 25.74C187.585 25.74 188.197 25.548 188.641 25.164C189.097 24.768 189.325 24.264 189.325 23.652C189.325 23.172 189.193 22.782 188.929 22.482C188.665 22.182 188.335 21.954 187.939 21.798C187.543 21.642 187.009 21.474 186.337 21.294C185.509 21.078 184.843 20.862 184.339 20.646C183.847 20.43 183.421 20.094 183.061 19.638C182.713 19.17 182.539 18.546 182.539 17.766C182.539 17.082 182.713 16.476 183.061 15.948C183.409 15.42 183.895 15.012 184.519 14.724C185.155 14.436 185.881 14.292 186.697 14.292C187.873 14.292 188.833 14.586 189.577 15.174C190.333 15.762 190.759 16.542 190.855 17.514H189.055C188.995 17.034 188.743 16.614 188.299 16.254C187.855 15.882 187.267 15.696 186.535 15.696C185.851 15.696 185.293 15.876 184.861 16.236C184.429 16.584 184.213 17.076 184.213 17.712C184.213 18.168 184.339 18.54 184.591 18.828C184.855 19.116 185.173 19.338 185.545 19.494C185.929 19.638 186.463 19.806 187.147 19.998C187.975 20.226 188.641 20.454 189.145 20.682C189.649 20.898 190.081 21.24 190.441 21.708C190.801 22.164 190.981 22.788 190.981 23.58C190.981 24.192 190.819 24.768 190.495 25.308C190.171 25.848 189.691 26.286 189.055 26.622C188.419 26.958 187.669 27.126 186.805 27.126ZM195.39 18.486V24.3C195.39 24.78 195.492 25.122 195.696 25.326C195.9 25.518 196.254 25.614 196.758 25.614H197.964V27H196.488C195.576 27 194.892 26.79 194.436 26.37C193.98 25.95 193.752 25.26 193.752 24.3V18.486H192.474V17.136H193.752V14.652H195.39V17.136H197.964V18.486H195.39ZM204.251 27.162C203.327 27.162 202.487 26.952 201.731 26.532C200.987 26.112 200.399 25.518 199.967 24.75C199.547 23.97 199.337 23.07 199.337 22.05C199.337 21.042 199.553 20.154 199.985 19.386C200.429 18.606 201.029 18.012 201.785 17.604C202.541 17.184 203.387 16.974 204.323 16.974C205.259 16.974 206.105 17.184 206.861 17.604C207.617 18.012 208.211 18.6 208.643 19.368C209.087 20.136 209.309 21.03 209.309 22.05C209.309 23.07 209.081 23.97 208.625 24.75C208.181 25.518 207.575 26.112 206.807 26.532C206.039 26.952 205.187 27.162 204.251 27.162ZM204.251 25.722C204.839 25.722 205.391 25.584 205.907 25.308C206.423 25.032 206.837 24.618 207.149 24.066C207.473 23.514 207.635 22.842 207.635 22.05C207.635 21.258 207.479 20.586 207.167 20.034C206.855 19.482 206.447 19.074 205.943 18.81C205.439 18.534 204.893 18.396 204.305 18.396C203.705 18.396 203.153 18.534 202.649 18.81C202.157 19.074 201.761 19.482 201.461 20.034C201.161 20.586 201.011 21.258 201.011 22.05C201.011 22.854 201.155 23.532 201.443 24.084C201.743 24.636 202.139 25.05 202.631 25.326C203.123 25.59 203.663 25.722 204.251 25.722ZM213.1 18.738C213.388 18.174 213.796 17.736 214.324 17.424C214.864 17.112 215.518 16.956 216.286 16.956V18.648H215.854C214.018 18.648 213.1 19.644 213.1 21.636V27H211.462V17.136H213.1V18.738ZM227.177 21.69C227.177 22.002 227.159 22.332 227.123 22.68H219.239C219.299 23.652 219.629 24.414 220.229 24.966C220.841 25.506 221.579 25.776 222.443 25.776C223.151 25.776 223.739 25.614 224.207 25.29C224.687 24.954 225.023 24.51 225.215 23.958H226.979C226.715 24.906 226.187 25.68 225.395 26.28C224.603 26.868 223.619 27.162 222.443 27.162C221.507 27.162 220.667 26.952 219.923 26.532C219.191 26.112 218.615 25.518 218.195 24.75C217.775 23.97 217.565 23.07 217.565 22.05C217.565 21.03 217.769 20.136 218.177 19.368C218.585 18.6 219.155 18.012 219.887 17.604C220.631 17.184 221.483 16.974 222.443 16.974C223.379 16.974 224.207 17.178 224.927 17.586C225.647 17.994 226.199 18.558 226.583 19.278C226.979 19.986 227.177 20.79 227.177 21.69ZM225.485 21.348C225.485 20.724 225.347 20.19 225.071 19.746C224.795 19.29 224.417 18.948 223.937 18.72C223.469 18.48 222.947 18.36 222.371 18.36C221.543 18.36 220.835 18.624 220.247 19.152C219.671 19.68 219.341 20.412 219.257 21.348H225.485Z" fill="#F6F6F6"/>
<path d="M51.8248 20.6357C51.8346 19.8696 52.0515 19.118 52.4556 18.45C52.8583 17.7845 53.4357 17.2242 54.1341 16.8214C53.6922 16.2304 53.1081 15.7432 52.4279 15.3986C51.7497 15.055 50.994 14.8641 50.2218 14.8414C48.5756 14.6786 46.9787 15.7643 46.1402 15.7643C45.2848 15.7643 43.9925 14.8571 42.6018 14.8829C41.7018 14.9114 40.8248 15.1557 40.0571 15.5943C39.2879 16.0343 38.6541 16.6514 38.2171 17.3886C36.3202 20.4643 37.7356 24.9843 39.551 27.47C40.4587 28.6871 41.5218 30.0471 42.9125 29.9986C44.2725 29.9457 44.7802 29.1857 46.4202 29.1857C48.0479 29.1857 48.5233 29.9986 49.9433 29.9671C51.4018 29.9457 52.3202 28.7457 53.1971 27.5157C53.8508 26.6474 54.3533 25.689 54.6864 24.6757C53.837 24.3388 53.1135 23.7768 52.6064 23.06C52.097 22.3399 51.8253 21.4973 51.8248 20.6357ZM49.1479 13.2057C49.9443 12.3083 50.3357 11.1595 50.2402 10C49.0222 10.1208 47.8987 10.6654 47.0956 11.5243C46.2962 12.3749 45.8924 13.4849 45.9725 14.6114C46.5823 14.6181 47.1856 14.4948 47.7361 14.2511C48.2866 14.0074 48.7695 13.6498 49.1479 13.2057Z" fill="#F6F6F6"/>
</g>
<defs>
<filter id="filter0_d_2656_2949" x="0" y="0" width="256" height="49" filterUnits="userSpaceOnUse" color-interpolation-filters="sRGB">
<feFlood flood-opacity="0" result="BackgroundImageFix"/>
<feColorMatrix in="SourceAlpha" type="matrix" values="0 0 0 0 0 0 0 0 0 0 0 0 0 0 0 0 0 0 127 0" result="hardAlpha"/>
<feOffset dy="4"/>
<feGaussianBlur stdDeviation="2"/>
<feComposite in2="hardAlpha" operator="out"/>
<feColorMatrix type="matrix" values="0 0 0 0 0 0 0 0 0 0 0 0 0 0 0 0 0 0 0.25 0"/>
<feBlend mode="normal" in2="BackgroundImageFix" result="effect1_dropShadow_2656_2949"/>
<feBlend mode="normal" in="SourceGraphic" in2="effect1_dropShadow_2656_2949" result="shape"/>
</filter>
</defs>
</svg>
