<svg width="29" height="29" viewBox="0 0 29 29" fill="none" xmlns="http://www.w3.org/2000/svg">
<path d="M7.55662 2.4954L7.55657 2.49532C7.11372 1.66411 6.35899 0.810156 5.11776 0.810156H4.34012C4.10401 0.810156 3.87673 0.906444 3.70852 1.07919C3.54018 1.25207 3.44492 1.48737 3.44492 1.73353C3.44492 1.9797 3.54018 2.215 3.70852 2.38788C3.87673 2.56062 4.10401 2.65691 4.34012 2.65691H5.11915C5.25312 2.65691 5.39761 2.69005 5.54839 2.80641C5.69347 2.91836 5.8369 3.10159 5.98738 3.38618C6.29903 3.96772 6.50603 4.74038 6.72039 5.54052L6.72454 5.55601L6.72727 5.56621L6.72849 5.57621L8.48109 11.6443L8.48194 11.6472L8.4819 11.6472L9.54103 15.6143C9.75504 16.4149 10.219 17.1204 10.8606 17.6229C11.5022 18.1252 12.2862 18.3969 13.092 18.3969H21.3811C21.3811 18.3969 21.3811 18.3969 21.3811 18.3969C22.1805 18.3967 22.9586 18.1291 23.5974 17.6338C24.2363 17.1384 24.7014 16.4423 24.9213 15.6502L24.9213 15.6502L27.4688 6.47779L27.4688 6.47777C27.7614 5.42473 26.9904 4.38808 25.9382 4.38808L8.52112 4.38808L8.52094 4.38808M7.55662 2.4954L8.38158 4.2438C8.42794 4.24004 8.47443 4.23813 8.52094 4.23808V4.38808M7.55662 2.4954C7.85148 3.048 8.06683 3.69277 8.23743 4.2853L8.27138 4.40323L8.3937 4.39331C8.43603 4.38988 8.47847 4.38813 8.52094 4.38808M7.55662 2.4954L8.52094 4.38808M25.0658 15.6903L27.6133 6.51793L25.0658 15.6903ZM25.0658 15.6903C24.8374 16.513 24.3542 17.2369 23.6893 17.7523C23.0245 18.2678 22.2142 18.5467 21.3811 18.5469H13.092C12.2523 18.5469 11.4359 18.2638 10.7682 17.741C10.1004 17.2182 9.6184 16.4846 9.39612 15.6531L8.33698 11.6859M25.0658 15.6903L8.33698 11.6859M8.33698 11.6859L6.58104 5.60628L8.33698 11.6859ZM10.2194 11.2023L10.2198 11.2036L11.2663 15.1236L11.2664 15.1239C11.4924 15.9625 12.2369 16.5502 13.092 16.5502H21.3811C21.7934 16.5501 22.194 16.4122 22.5222 16.1578C22.8504 15.9035 23.0883 15.5468 23.2008 15.1422L23.2008 15.1422L25.6214 6.42497L25.6742 6.23483H25.4769H8.98779H8.78839L8.84367 6.42642L10.2004 11.1286L10.2194 11.2023ZM14.9906 22.8433C14.9906 23.5639 14.7118 24.2542 14.2167 24.7626C13.7218 25.2708 13.0515 25.5556 12.3533 25.5556C11.6552 25.5556 10.9849 25.2708 10.49 24.7626C9.99493 24.2542 9.71614 23.5639 9.71614 22.8433C9.71614 22.1226 9.99493 21.4323 10.49 20.9239C10.9849 20.4157 11.6552 20.1309 12.3533 20.1309C13.0515 20.1309 13.7218 20.4157 14.2167 20.9239C14.7118 21.4323 14.9906 22.1226 14.9906 22.8433ZM13.2001 22.8433C13.2001 22.615 13.1119 22.3952 12.9535 22.2326C12.795 22.0699 12.5792 21.9777 12.3533 21.9777C12.1275 21.9777 11.9116 22.0699 11.7532 22.2326C11.5948 22.3952 11.5065 22.615 11.5065 22.8433C11.5065 23.0716 11.5948 23.2913 11.7532 23.4539C11.9116 23.6167 12.1275 23.7089 12.3533 23.7089C12.5792 23.7089 12.795 23.6167 12.9535 23.4539C13.1119 23.2913 13.2001 23.0716 13.2001 22.8433ZM24.7458 22.8433C24.7458 23.5639 24.467 24.2542 23.972 24.7626C23.4771 25.2708 22.8067 25.5556 22.1086 25.5556C21.4104 25.5556 20.7401 25.2708 20.2452 24.7626C19.7502 24.2542 19.4714 23.5639 19.4714 22.8433C19.4714 22.1226 19.7502 21.4323 20.2452 20.9239C20.7401 20.4157 21.4104 20.1309 22.1086 20.1309C22.8067 20.1309 23.4771 20.4157 23.972 20.9239C24.467 21.4323 24.7458 22.1226 24.7458 22.8433ZM22.9554 22.8433C22.9554 22.615 22.8671 22.3952 22.7088 22.2326C22.5503 22.0699 22.3345 21.9777 22.1086 21.9777C21.8827 21.9777 21.6669 22.0699 21.5084 22.2326C21.35 22.3952 21.2618 22.615 21.2618 22.8433C21.2618 23.0716 21.35 23.2913 21.5084 23.4539C21.6669 23.6167 21.8827 23.7089 22.1086 23.7089C22.3345 23.7089 22.5503 23.6167 22.7088 23.4539C22.8671 23.2913 22.9554 23.0716 22.9554 22.8433Z" fill="#034703" fill-opacity="0.75" stroke="white" stroke-width="0.3"/>
</svg>
