<svg width="24" height="24" viewBox="0 0 24 24" fill="none" xmlns="http://www.w3.org/2000/svg">
<path d="M22.8063 12.6851C22.624 12.6867 22.4484 12.6171 22.3166 12.4912L21.9685 12.1431L21.115 11.2896V12.4967V20.4C21.115 21.2221 20.7884 22.0107 20.207 22.592C19.6256 23.1734 18.8371 23.5 18.0149 23.5H6.01481C5.19263 23.5 4.40412 23.1734 3.82275 22.592C3.24138 22.0107 2.91477 21.2221 2.91477 20.4V12.4967V11.2896L2.06122 12.1431L1.70961 12.4947L1.70956 12.4947L1.70352 12.5009C1.63895 12.5678 1.56171 12.6211 1.4763 12.6578C1.3909 12.6945 1.29904 12.7138 1.2061 12.7146C1.11315 12.7154 1.02097 12.6977 0.934943 12.6625C0.848912 12.6273 0.770754 12.5753 0.70503 12.5096C0.639303 12.4439 0.587325 12.3657 0.552128 12.2797C0.51693 12.1937 0.499219 12.1015 0.500026 12.0085C0.500834 11.9156 0.520145 11.8237 0.556832 11.7383C0.593519 11.6529 0.646847 11.5757 0.713706 11.5111L0.713759 11.5112L0.719903 11.505L3.11993 9.10499L11.52 0.704954C11.52 0.704936 11.52 0.704919 11.52 0.704901C11.6513 0.573702 11.8293 0.5 12.0149 0.5C12.2005 0.5 12.3785 0.573702 12.5097 0.704901C12.5097 0.704919 12.5098 0.704936 12.5098 0.704954L23.3064 11.5016C23.4322 11.6333 23.5018 11.8089 23.5002 11.9912C23.4986 12.1747 23.425 12.3503 23.2952 12.4801C23.1654 12.6099 22.9899 12.6835 22.8063 12.6851Z" stroke="#034703" stroke-opacity="0.75"/>
<path d="M12.0379 19.3481C11.2166 19.3481 10.4806 19.2148 9.82993 18.9481C9.17927 18.6814 8.6566 18.2868 8.26193 17.7641C7.87793 17.2414 7.67527 16.6121 7.65393 15.8761H10.5659C10.6086 16.2921 10.7526 16.6121 10.9979 16.8361C11.2433 17.0494 11.5633 17.1561 11.9579 17.1561C12.3633 17.1561 12.6833 17.0654 12.9179 16.8841C13.1526 16.6921 13.2699 16.4308 13.2699 16.1001C13.2699 15.8228 13.1739 15.5934 12.9819 15.4121C12.8006 15.2308 12.5713 15.0814 12.2939 14.9641C12.0273 14.8468 11.6433 14.7134 11.1419 14.5641C10.4166 14.3401 9.8246 14.1161 9.36593 13.8921C8.90727 13.6681 8.5126 13.3374 8.18193 12.9001C7.85127 12.4628 7.68593 11.8921 7.68593 11.1881C7.68593 10.1428 8.0646 9.32678 8.82193 8.74011C9.57927 8.14278 10.5659 7.84411 11.7819 7.84411C13.0193 7.84411 14.0166 8.14278 14.7739 8.74011C15.5313 9.32678 15.9366 10.1481 15.9899 11.2041H13.0299C13.0086 10.8414 12.8753 10.5588 12.6299 10.3561C12.3846 10.1428 12.0699 10.0361 11.6859 10.0361C11.3553 10.0361 11.0886 10.1268 10.8859 10.3081C10.6833 10.4788 10.5819 10.7294 10.5819 11.0601C10.5819 11.4228 10.7526 11.7054 11.0939 11.9081C11.4353 12.1108 11.9686 12.3294 12.6939 12.5641C13.4193 12.8094 14.0059 13.0441 14.4539 13.2681C14.9126 13.4921 15.3073 13.8174 15.6379 14.2441C15.9686 14.6708 16.1339 15.2201 16.1339 15.8921C16.1339 16.5321 15.9686 17.1134 15.6379 17.6361C15.3179 18.1588 14.8486 18.5748 14.2299 18.8841C13.6113 19.1934 12.8806 19.3481 12.0379 19.3481Z" fill="#034703" fill-opacity="0.75"/>
</svg>
