<svg width="27" height="25" viewBox="0 0 27 25" fill="none" xmlns="http://www.w3.org/2000/svg">
<path d="M26.3376 11.1865C26.5888 10.4118 26.6663 9.59132 26.5646 8.78332C26.4629 7.97531 26.1846 7.1996 25.7494 6.51127C25.3141 5.82295 24.7327 5.2389 24.0463 4.80061C23.3599 4.36232 22.5855 4.08053 21.7779 3.97527C21.9339 3.47599 22.2101 3.02265 22.5822 2.65506C22.6342 2.60349 22.6755 2.54214 22.7037 2.47454C22.7318 2.40694 22.7463 2.33444 22.7463 2.26121C22.7463 2.18798 22.7318 2.11548 22.7037 2.04788C22.6755 1.98029 22.6342 1.91893 22.5822 1.86737C21.8556 1.14624 20.8682 2.97679 20.6408 3.95308C19.8154 4.01833 19.0153 4.26863 18.2999 4.6854C17.5844 5.10217 16.9721 5.67471 16.5082 6.36052C16.2375 6.28327 15.9611 6.22762 15.6817 6.19411C15.8335 5.69425 16.1081 5.24037 16.4804 4.8739C16.5324 4.82233 16.5737 4.76098 16.6019 4.69338C16.63 4.62578 16.6445 4.55328 16.6445 4.48005C16.6445 4.40682 16.63 4.33432 16.6019 4.26672C16.5737 4.19913 16.5324 4.13777 16.4804 4.08621C15.7593 3.36508 14.7719 5.19563 14.5389 6.16637C13.3372 6.26028 12.1993 6.74545 11.2994 7.5476C10.839 6.28841 11.5213 4.77405 9.75735 3.20977C9.19598 2.7156 8.50502 2.39226 7.76594 2.27785V1.9062C7.76836 1.55235 7.90982 1.21365 8.15978 0.96319C8.21178 0.911622 8.25304 0.850271 8.28121 0.782674C8.30937 0.715078 8.32387 0.642574 8.32387 0.569346C8.32387 0.496117 8.30937 0.423614 8.28121 0.356017C8.25304 0.288421 8.21178 0.227069 8.15978 0.175502C7.47749 -0.501244 6.65652 0.929907 6.65652 1.9062V2.27231C5.82201 2.39799 5.05043 2.78989 4.45669 3.38962C3.86296 3.98936 3.47884 4.76484 3.36154 5.60056C3.25615 6.44372 3.58343 7.58088 2.57385 8.55162C1.84364 9.2685 1.28761 10.1433 0.948554 11.1088H0.55471C0.407592 11.1088 0.266499 11.1673 0.162471 11.2713C0.0584425 11.3753 0 11.5164 0 11.6635L0 14.9918C0 15.0528 0 15.5465 0.698935 15.5465L2.86785 22.4748C3.04395 23.0389 3.3956 23.532 3.87156 23.8822C4.34751 24.2325 4.92289 24.4215 5.51382 24.4219H21.1123C21.7032 24.4215 22.2786 24.2325 22.7545 23.8822C23.2305 23.532 23.5821 23.0389 23.7582 22.4748C26.1601 14.7866 25.8606 15.5465 26.0714 15.5465C26.2185 15.5465 26.3596 15.4881 26.4636 15.384C26.5676 15.28 26.6261 15.1389 26.6261 14.9918C26.6261 11.3862 26.7259 11.4028 26.3376 11.1865ZM1.10942 12.2183H25.5167V14.4371H1.10942V12.2183ZM20.5243 5.04586V5.56174C20.5243 5.70885 20.5827 5.84995 20.6867 5.95397C20.7908 6.058 20.9319 6.11645 21.079 6.11645C21.2261 6.11645 21.3672 6.058 21.4712 5.95397C21.5752 5.84995 21.6337 5.70885 21.6337 5.56174V5.04586C22.3067 5.13222 22.951 5.37177 23.517 5.7461C24.0829 6.12043 24.5555 6.61956 24.8984 7.20511C25.2412 7.79067 25.4453 8.44705 25.4947 9.1238C25.5442 9.80055 25.4379 10.4796 25.1838 11.1088H16.9741C16.7201 10.4796 16.6137 9.80055 16.6632 9.1238C16.7127 8.44705 16.9167 7.79067 17.2596 7.20511C17.6025 6.61956 18.075 6.12043 18.641 5.7461C19.207 5.37177 19.8512 5.13222 20.5243 5.04586ZM14.4225 7.26469V7.78058C14.4225 7.92769 14.4809 8.06879 14.5849 8.17282C14.689 8.27684 14.8301 8.33529 14.9772 8.33529C15.1243 8.33529 15.2654 8.27684 15.3694 8.17282C15.4734 8.06879 15.5319 7.92769 15.5319 7.78058V7.26469C15.6737 7.28017 15.8145 7.30425 15.9535 7.33681C15.4523 8.53511 15.3971 9.87338 15.7981 11.1088H10.5783C10.7021 10.1325 11.147 9.22508 11.8428 8.5292C12.5387 7.83333 13.4462 7.3885 14.4225 7.26469ZM3.32826 9.34486C4.6873 8.02465 4.36002 6.34388 4.43768 5.7337C4.50622 5.23897 4.70708 4.77193 5.01904 4.38189C5.33101 3.99186 5.74251 3.6933 6.21009 3.51774C6.67768 3.34219 7.18399 3.29615 7.67556 3.38449C8.16714 3.47283 8.62574 3.69227 9.00294 4.01964C10.5118 5.32876 9.50773 6.55467 10.4618 8.41849C9.89681 9.2116 9.55053 10.1395 9.4578 11.1088H2.12454C2.40774 10.4484 2.81655 9.84933 3.32826 9.34486ZM22.6987 22.1476C22.5925 22.4852 22.3815 22.7802 22.0962 22.9897C21.8109 23.1992 21.4662 23.3122 21.1123 23.3125H5.51382C5.15917 23.3119 4.81399 23.198 4.5286 22.9875C4.24322 22.7769 4.03256 22.4807 3.92735 22.142L1.86383 15.5465H24.7623L22.6987 22.1476Z" fill="#034703" fill-opacity="0.75"/>
<path d="M4.43752 18.3204H6.65636C6.80348 18.3204 6.94457 18.2619 7.0486 18.1579C7.15263 18.0539 7.21107 17.9128 7.21107 17.7657C7.21107 17.6186 7.15263 17.4775 7.0486 17.3734C6.94457 17.2694 6.80348 17.211 6.65636 17.211H4.43752C4.2904 17.211 4.14931 17.2694 4.04528 17.3734C3.94126 17.4775 3.88281 17.6186 3.88281 17.7657C3.88281 17.9128 3.94126 18.0539 4.04528 18.1579C4.14931 18.2619 4.2904 18.3204 4.43752 18.3204ZM9.42991 18.3204V17.211C9.42991 17.0638 9.37147 16.9227 9.26744 16.8187C9.16341 16.7147 9.02232 16.6563 8.8752 16.6562C8.72808 16.6563 8.58699 16.7147 8.48296 16.8187C8.37893 16.9227 8.32049 17.0638 8.32049 17.211V18.3204C8.32049 18.4675 8.37893 18.6086 8.48296 18.7126C8.58699 18.8166 8.72808 18.8751 8.8752 18.8751C9.02232 18.8751 9.16341 18.8166 9.26744 18.7126C9.37147 18.6086 9.42991 18.4675 9.42991 18.3204ZM6.10165 20.5392V21.6486C6.10165 21.7958 6.16009 21.9369 6.26412 22.0409C6.36815 22.1449 6.50924 22.2033 6.65636 22.2033C6.80348 22.2033 6.94457 22.1449 7.0486 22.0409C7.15263 21.9369 7.21107 21.7958 7.21107 21.6486V20.5392C7.21107 20.3921 7.15263 20.251 7.0486 20.147C6.94457 20.043 6.80348 19.9845 6.65636 19.9845C6.50924 19.9845 6.36815 20.043 6.26412 20.147C6.16009 20.251 6.10165 20.3921 6.10165 20.5392ZM11.094 18.3204H15.5317C15.6788 18.3204 15.8199 18.2619 15.924 18.1579C16.028 18.0539 16.0864 17.9128 16.0864 17.7657C16.0864 17.6186 16.028 17.4775 15.924 17.3734C15.8199 17.2694 15.6788 17.211 15.5317 17.211H11.094C10.9469 17.211 10.8058 17.2694 10.7018 17.3734C10.5978 17.4775 10.5393 17.6186 10.5393 17.7657C10.5393 17.9128 10.5978 18.0539 10.7018 18.1579C10.8058 18.2619 10.9469 18.3204 11.094 18.3204ZM18.3053 18.3204V17.211C18.3053 17.0638 18.2468 16.9227 18.1428 16.8187C18.0388 16.7147 17.8977 16.6563 17.7506 16.6562C17.6034 16.6563 17.4624 16.7147 17.3583 16.8187C17.2543 16.9227 17.1959 17.0638 17.1959 17.211V18.3204C17.1959 18.4675 17.2543 18.6086 17.3583 18.7126C17.4624 18.8166 17.6034 18.8751 17.7506 18.8751C17.8977 18.8751 18.0388 18.8166 18.1428 18.7126C18.2468 18.6086 18.3053 18.4675 18.3053 18.3204ZM19.9694 18.3204H22.1882C22.3354 18.3204 22.4765 18.2619 22.5805 18.1579C22.6845 18.0539 22.743 17.9128 22.743 17.7657C22.743 17.6186 22.6845 17.4775 22.5805 17.3734C22.4765 17.2694 22.3354 17.211 22.1882 17.211H19.9694C19.8223 17.211 19.6812 17.2694 19.5772 17.3734C19.4731 17.4775 19.4147 17.6186 19.4147 17.7657C19.4147 17.9128 19.4731 18.0539 19.5772 18.1579C19.6812 18.2619 19.8223 18.3204 19.9694 18.3204ZM17.7506 21.6486H19.9694C20.1165 21.6486 20.2576 21.5902 20.3616 21.4862C20.4657 21.3821 20.5241 21.241 20.5241 21.0939C20.5241 20.9468 20.4657 20.8057 20.3616 20.7017C20.2576 20.5977 20.1165 20.5392 19.9694 20.5392H17.7506C17.6034 20.5392 17.4624 20.5977 17.3583 20.7017C17.2543 20.8057 17.1959 20.9468 17.1959 21.0939C17.1959 21.241 17.2543 21.3821 17.3583 21.4862C17.4624 21.5902 17.6034 21.6486 17.7506 21.6486ZM8.8752 21.6486H13.3129C13.46 21.6486 13.6011 21.5902 13.7051 21.4862C13.8091 21.3821 13.8676 21.241 13.8676 21.0939C13.8676 20.9468 13.8091 20.8057 13.7051 20.7017C13.6011 20.5977 13.46 20.5392 13.3129 20.5392H8.8752C8.72808 20.5392 8.58699 20.5977 8.48296 20.7017C8.37893 20.8057 8.32049 20.9468 8.32049 21.0939C8.32049 21.241 8.37893 21.3821 8.48296 21.4862C8.58699 21.5902 8.72808 21.6486 8.8752 21.6486ZM14.977 20.5392V21.6486C14.977 21.7958 15.0355 21.9369 15.1395 22.0409C15.2435 22.1449 15.3846 22.2033 15.5317 22.2033C15.6788 22.2033 15.8199 22.1449 15.924 22.0409C16.028 21.9369 16.0864 21.7958 16.0864 21.6486V20.5392C16.0864 20.3921 16.028 20.251 15.924 20.147C15.8199 20.043 15.6788 19.9845 15.5317 19.9845C15.3846 19.9845 15.2435 20.043 15.1395 20.147C15.0355 20.251 14.977 20.3921 14.977 20.5392Z" fill="#034703" fill-opacity="0.75"/>
</svg>
