<svg width="50" height="50" viewBox="0 0 50 50" fill="none" xmlns="http://www.w3.org/2000/svg">
<g clip-path="url(#clip0_2_14816)">
<path d="M20.0056 32.3262C19.918 32.1403 19.9498 31.9117 20.1021 31.7564C20.2977 31.5569 20.618 31.5537 20.8175 31.7493C21.0758 32.0026 21.4339 32.2293 21.8129 32.4692L21.9034 32.5265C22.0479 32.6182 22.1943 32.7201 22.3358 32.8186C22.7771 33.1257 23.2333 33.4433 23.7812 33.5706C24.1285 33.6511 24.5516 33.6244 24.9995 33.596C25.3276 33.5753 25.6668 33.5538 26.0212 33.5689C26.3448 33.5828 26.669 33.6374 26.9826 33.6902C27.4317 33.7658 27.8558 33.8373 28.2767 33.8003C28.6318 33.769 29.0078 33.6408 29.4061 33.505C29.7463 33.3891 30.0981 33.269 30.4752 33.1951C30.8275 33.1264 31.1853 33.1075 31.5313 33.0894C31.9631 33.0667 32.371 33.0452 32.7465 32.9339C33.1218 32.8226 33.4752 32.6186 33.8494 32.4026C34.1502 32.229 34.4612 32.0494 34.7944 31.9154C35.1507 31.7717 35.5114 31.6805 35.8602 31.5922C36.2679 31.4891 36.6529 31.3917 36.9673 31.2243C37.3405 31.026 37.6572 30.7351 37.9926 30.427C38.2267 30.2119 38.4689 29.9895 38.7324 29.8017C39.0218 29.5955 39.3183 29.4285 39.6051 29.267C39.9957 29.0471 40.3646 28.8393 40.6115 28.5828C41.0014 28.1777 41.2107 27.6629 41.413 27.1649C41.478 27.0048 41.5453 26.8393 41.6166 26.6834L41.6641 26.5798C41.9659 25.9218 42.2509 25.3004 42.1039 24.8035C41.9562 24.3063 41.3773 23.9397 40.7642 23.5518L40.6712 23.4929C40.5269 23.4012 40.3811 23.2997 40.2401 23.2015C39.8362 22.9201 39.4186 22.6292 38.9311 22.4849C38.6633 22.4057 38.5104 22.1242 38.5896 21.8562C38.6689 21.5883 38.9504 21.4354 39.2183 21.5148C39.8626 21.7055 40.3704 22.0592 40.8184 22.3713C40.9568 22.4677 41.0876 22.5589 41.2135 22.6388L41.3054 22.697C42.0492 23.1678 42.8184 23.6551 43.074 24.5162C43.3287 25.3774 42.95 26.2031 42.5838 27.0016L42.5368 27.1042C42.4745 27.2405 42.4142 27.3888 42.3504 27.5458C42.1231 28.1052 41.8656 28.7391 41.3405 29.2845C40.9906 29.648 40.5386 29.9026 40.1017 30.1487C39.8379 30.2972 39.5652 30.4508 39.3196 30.6257C39.1072 30.7771 38.8983 30.969 38.6771 31.1721C38.3268 31.4939 37.9297 31.8587 37.4425 32.1177C37.0201 32.3424 36.5567 32.4597 36.1085 32.573C35.7778 32.6567 35.4655 32.7357 35.1726 32.8538C34.9054 32.9614 34.6381 33.1157 34.3553 33.2789C33.9467 33.5147 33.5243 33.7586 33.0343 33.9039C32.5438 34.0494 32.0562 34.075 31.5845 34.0997C31.259 34.1168 30.9515 34.133 30.6695 34.188C30.3601 34.2488 30.0553 34.3526 29.7326 34.4626C29.295 34.6119 28.8425 34.7662 28.3654 34.8082C27.8154 34.8566 27.2837 34.767 26.8147 34.688C26.5185 34.6381 26.2387 34.591 25.9782 34.5798C25.6774 34.567 25.3652 34.5868 25.0634 34.6059C24.5624 34.6376 24.0444 34.6704 23.5525 34.5562C22.815 34.385 22.2534 33.994 21.7579 33.6491C21.619 33.5525 21.4878 33.4611 21.3615 33.381L21.2719 33.3243C20.865 33.0667 20.4442 32.8004 20.1093 32.472C20.0651 32.4284 20.0305 32.3791 20.0056 32.3262ZM19.5201 30.6836C19.4741 30.5859 19.4588 30.4726 19.484 30.359C19.5847 29.9039 19.7905 29.4544 19.9895 29.0198L20.0375 28.9149L20.0376 28.9149C20.0386 28.9124 20.0398 28.9099 20.041 28.9075C20.1477 28.6678 20.423 28.5476 20.674 28.6377C20.9368 28.7322 21.0733 29.0219 20.979 29.2848C20.9736 29.2995 20.9663 29.3169 20.9589 29.3327C20.9586 29.3334 20.9583 29.3341 20.958 29.3348L20.9095 29.4408C20.7244 29.8453 20.5494 30.2273 20.4719 30.5774C20.4116 30.8502 20.1414 31.0224 19.8687 30.9621C19.7095 30.927 19.5846 30.8203 19.5201 30.6836Z" fill="#9F581F"/>
<path d="M20.0056 32.3262C19.918 32.1403 19.9498 31.9117 20.1021 31.7564C20.2977 31.5569 20.618 31.5537 20.8175 31.7493C21.0758 32.0026 21.4339 32.2293 21.8129 32.4692L21.9034 32.5265C22.0479 32.6182 22.1943 32.7201 22.3358 32.8186C22.7771 33.1257 23.2333 33.4433 23.7812 33.5706C24.1285 33.6511 24.5516 33.6244 24.9995 33.596C25.3276 33.5753 25.6668 33.5538 26.0212 33.5689C26.3448 33.5828 26.669 33.6374 26.9826 33.6902C27.4317 33.7658 27.8558 33.8373 28.2767 33.8003C28.6318 33.769 29.0078 33.6408 29.4061 33.505C29.7463 33.3891 30.0981 33.269 30.4752 33.1951C30.8275 33.1264 31.1853 33.1075 31.5313 33.0894C31.9631 33.0667 32.371 33.0452 32.7465 32.9339C33.1218 32.8226 33.4752 32.6186 33.8494 32.4026C34.1502 32.229 34.4612 32.0494 34.7944 31.9154C35.1507 31.7717 35.5114 31.6805 35.8602 31.5922C36.2679 31.4891 36.6529 31.3917 36.9673 31.2243C37.3405 31.026 37.6572 30.7351 37.9926 30.427C38.2267 30.2119 38.4689 29.9895 38.7324 29.8017C39.0218 29.5955 39.3183 29.4285 39.6051 29.267C39.9957 29.0471 40.3646 28.8393 40.6115 28.5828C41.0014 28.1777 41.2107 27.6629 41.413 27.1649C41.478 27.0048 41.5453 26.8393 41.6166 26.6834L41.6641 26.5798C41.9659 25.9218 42.2509 25.3004 42.1039 24.8035C41.9562 24.3063 41.3773 23.9397 40.7642 23.5518L40.6712 23.4929C40.5269 23.4012 40.3811 23.2997 40.2401 23.2015C39.8362 22.9201 39.4186 22.6292 38.9311 22.4849C38.6633 22.4057 38.5104 22.1242 38.5896 21.8562C38.6689 21.5883 38.9504 21.4354 39.2183 21.5148C39.8626 21.7055 40.3704 22.0592 40.8184 22.3713C40.9568 22.4677 41.0876 22.5589 41.2135 22.6388L41.3054 22.697C42.0492 23.1678 42.8184 23.6551 43.074 24.5162C43.3287 25.3774 42.95 26.2031 42.5838 27.0016L42.5368 27.1042C42.4745 27.2405 42.4142 27.3888 42.3504 27.5458C42.1231 28.1052 41.8656 28.7391 41.3405 29.2845C40.9906 29.648 40.5386 29.9026 40.1017 30.1487C39.8379 30.2972 39.5652 30.4508 39.3196 30.6257C39.1072 30.7771 38.8983 30.969 38.6771 31.1721C38.3268 31.4939 37.9297 31.8587 37.4425 32.1177C37.0201 32.3424 36.5567 32.4597 36.1085 32.573C35.7778 32.6567 35.4655 32.7357 35.1726 32.8538C34.9054 32.9614 34.6381 33.1157 34.3553 33.2789C33.9467 33.5147 33.5243 33.7586 33.0343 33.9039C32.5438 34.0494 32.0562 34.075 31.5845 34.0997C31.259 34.1168 30.9515 34.133 30.6695 34.188C30.3601 34.2488 30.0553 34.3526 29.7326 34.4626C29.295 34.6119 28.8425 34.7662 28.3654 34.8082C27.8154 34.8566 27.2837 34.767 26.8147 34.688C26.5185 34.6381 26.2387 34.591 25.9782 34.5798C25.6774 34.567 25.3652 34.5868 25.0634 34.6059C24.5624 34.6376 24.0444 34.6704 23.5525 34.5562C22.815 34.385 22.2534 33.994 21.7579 33.6491C21.619 33.5525 21.4878 33.4611 21.3615 33.381L21.2719 33.3243C20.865 33.0667 20.4442 32.8004 20.1093 32.472C20.0651 32.4284 20.0305 32.3791 20.0056 32.3262ZM19.5201 30.6836C19.4741 30.5859 19.4588 30.4726 19.484 30.359C19.5847 29.9039 19.7905 29.4544 19.9895 29.0198L20.0375 28.9149L20.0376 28.9149C20.0386 28.9124 20.0398 28.9099 20.041 28.9075C20.1477 28.6678 20.423 28.5476 20.674 28.6377C20.9368 28.7322 21.0733 29.0219 20.979 29.2848C20.9736 29.2995 20.9663 29.3169 20.9589 29.3327C20.9586 29.3334 20.9583 29.3341 20.958 29.3348L20.9095 29.4408C20.7244 29.8453 20.5494 30.2273 20.4719 30.5774C20.4116 30.8502 20.1414 31.0224 19.8687 30.9621C19.7095 30.927 19.5846 30.8203 19.5201 30.6836Z" fill="#9F581F"/>
<path d="M10.5307 35.2447C10.5198 35.2216 10.5106 35.1976 10.5033 35.1727L9.9566 33.3277C9.91835 33.1987 9.9331 33.0598 9.99759 32.9417C10.0621 32.8235 10.1709 32.736 10.3001 32.6983C10.3441 32.6855 14.756 31.4005 19.8416 29.9806C20.5971 29.7701 21.3682 29.5562 22.1439 29.3417C22.4132 29.2672 22.692 29.4255 22.7663 29.6945C22.8408 29.9638 22.6828 30.2424 22.4135 30.3169C21.6385 30.5312 20.868 30.7449 20.1134 30.9552C16.0157 32.0992 12.3561 33.1555 11.0712 33.5279L11.3289 34.3976C12.6092 34.0097 16.253 32.9014 20.3116 31.6275C22.8504 30.8306 25.1012 30.1111 27.0013 29.4887C28.643 28.9517 30.0809 28.4686 31.2752 28.0527C31.7639 27.8826 32.1971 27.729 32.5811 27.5901C32.4142 27.5388 32.2785 27.4026 32.2364 27.22C32.1736 26.9477 32.3435 26.6761 32.6157 26.6134C33.63 26.3797 34.4216 26.218 34.9687 26.133C35.584 26.0374 36.2811 25.9293 36.4442 26.4815C36.6115 27.048 35.982 27.3411 34.9411 27.7724C34.1808 28.0874 33.0594 28.5032 31.6078 29.0082C30.4076 29.4261 28.9635 29.9113 27.316 30.4502C25.412 31.0737 23.1574 31.7946 20.6147 32.5927C15.5773 34.1739 11.1781 35.5 11.1343 35.5133C11.0055 35.5522 10.8665 35.538 10.748 35.4741C10.6524 35.4225 10.5765 35.3418 10.5307 35.2447Z" fill="#9F581F"/>
<path d="M30.9845 28.7456C30.9312 28.6325 30.9195 28.4994 30.9619 28.3713C31.0495 28.106 31.3356 27.9621 31.6009 28.0497L35.2352 29.2506C35.5005 29.3381 35.6446 29.6242 35.5568 29.8896C35.4692 30.1548 35.1831 30.2988 34.9178 30.2112L31.2834 29.0103C31.1463 28.965 31.0416 28.8666 30.9845 28.7456ZM26.7019 30.185C26.6402 30.054 26.6348 29.8976 26.7006 29.7559C26.8183 29.5025 27.1192 29.3926 27.3725 29.5103L31.3281 31.3482C31.5816 31.4659 31.6914 31.7668 31.5737 32.02C31.456 32.2735 31.1552 32.3833 30.9018 32.2656L26.9462 30.4278C26.8344 30.3758 26.7506 30.2883 26.7019 30.185ZM29.3475 22.1333C29.2284 21.8805 29.3364 21.5793 29.5891 21.4602L29.5898 21.4599C29.8425 21.3408 30.1439 21.4491 30.263 21.7018C30.3821 21.9546 30.2738 22.256 30.0211 22.3751C29.7683 22.4942 29.4666 22.386 29.3475 22.1333ZM17.1415 25.2314C17.0805 25.102 17.0746 24.9476 17.1382 24.807C17.2534 24.5525 17.5531 24.4395 17.8076 24.5547C18.1073 24.6904 18.4724 24.7762 18.884 24.8666C19.1569 24.9266 19.3295 25.1965 19.2695 25.4692C19.2096 25.7421 18.9397 25.9147 18.6669 25.8548C18.2159 25.7556 17.7789 25.6522 17.3904 25.4764C17.2765 25.4249 17.191 25.3364 17.1415 25.2314ZM16.1208 23.8558C16.0992 23.8099 16.0842 23.7599 16.0771 23.707C16.0152 23.2439 16.0549 22.7498 16.0932 22.2719L16.1023 22.1593C16.114 22.0109 16.1197 21.8518 16.1258 21.6833C16.1476 21.0793 16.1724 20.3946 16.4793 19.7018C16.6834 19.24 17.021 18.8453 17.3475 18.4635C17.544 18.2338 17.7473 17.9962 17.9179 17.7479C18.0653 17.5331 18.1957 17.281 18.3339 17.0142C18.5524 16.5922 18.8 16.1138 19.1681 15.7036C19.488 15.3476 19.8828 15.0789 20.2646 14.8191C20.5471 14.6269 20.8139 14.4452 21.0488 14.2334C21.2633 14.0405 21.4616 13.8038 21.6715 13.5532C21.9741 13.1919 22.2871 12.8182 22.6971 12.5138C23.1081 12.2091 23.5574 12.0178 23.9918 11.8329C24.2918 11.7051 24.5751 11.5845 24.8212 11.4361C25.0913 11.2729 25.3421 11.0705 25.6076 10.8563C25.9673 10.5659 26.3394 10.2657 26.7731 10.0628C27.2728 9.82951 27.8022 9.73141 28.2693 9.64488C28.5651 9.59009 28.8445 9.53831 29.0935 9.45925C29.3808 9.36802 29.6675 9.24229 29.9447 9.12076C30.4043 8.9193 30.8795 8.71093 31.3801 8.64927C32.1317 8.55744 32.7937 8.73233 33.3777 8.88658C33.5413 8.92976 33.6957 8.97057 33.8417 9.00244L33.9507 9.02619C34.81 9.21336 35.6986 9.40687 36.2335 10.1286C36.7686 10.8504 36.6954 11.7584 36.6248 12.6365L36.6162 12.7442C36.6045 12.8928 36.5988 13.0522 36.5926 13.2209C36.5709 13.8246 36.5462 14.5088 36.2403 15.2014C36.1388 15.4315 36.0003 15.6578 35.8045 15.9134C35.6346 16.1352 35.3171 16.1772 35.0953 16.0073C34.8736 15.8373 34.8315 15.5199 35.0014 15.2981C35.1469 15.1081 35.2465 14.9476 35.3147 14.7929C35.5421 14.2779 35.5621 13.722 35.5815 13.1843C35.5877 13.0124 35.5941 12.8346 35.6076 12.6643L35.6163 12.5553C35.6746 11.8314 35.7294 11.1478 35.4207 10.731C35.112 10.3145 34.4434 10.1689 33.7353 10.0146L33.6254 9.99065C33.4584 9.95415 33.2861 9.90863 33.1195 9.8646C32.5993 9.72722 32.0614 9.58519 31.5033 9.65334C31.15 9.69677 30.7618 9.86698 30.3509 10.0472C30.0496 10.1793 29.7381 10.3159 29.3998 10.4234C29.0908 10.5215 28.7668 10.5816 28.4535 10.6396C28.0063 10.7224 27.5839 10.8007 27.2014 10.9793C26.8791 11.13 26.5701 11.3795 26.2429 11.6435C25.9628 11.8695 25.6732 12.1033 25.3439 12.3022C25.0367 12.4874 24.7069 12.6279 24.3881 12.7636C23.9902 12.933 23.6144 13.093 23.2999 13.3262C22.986 13.5592 22.7242 13.8719 22.447 14.2028C22.2238 14.4693 21.9929 14.7448 21.7257 14.9851C21.4401 15.2427 21.1318 15.4525 20.8337 15.6554C20.4865 15.8917 20.1585 16.115 19.9207 16.3796C19.639 16.6935 19.4414 17.0752 19.2322 17.4792C19.086 17.7618 18.9348 18.0539 18.7516 18.3207C18.5507 18.6132 18.3298 18.8714 18.1162 19.1211C17.8243 19.4624 17.5485 19.7847 17.4043 20.1111C17.1762 20.626 17.1561 21.1821 17.1367 21.7198C17.1305 21.8914 17.1241 22.0689 17.1106 22.239L17.1015 22.3529C17.0659 22.7973 17.0321 23.2171 17.0797 23.5729C17.1167 23.8498 16.9223 24.1043 16.6454 24.1414C16.4216 24.1713 16.2123 24.0498 16.1208 23.8558Z" fill="#9F581F"/>
<path d="M29.3475 22.1333C29.2284 21.8805 29.3364 21.5793 29.5891 21.4602L29.5898 21.4599C29.8425 21.3408 30.1439 21.4491 30.263 21.7018C30.3821 21.9546 30.2738 22.256 30.0211 22.3751C29.7683 22.4942 29.4666 22.386 29.3475 22.1333ZM17.1415 25.2314C17.0805 25.102 17.0746 24.9476 17.1382 24.807C17.2534 24.5525 17.5531 24.4395 17.8076 24.5547C18.1073 24.6904 18.4724 24.7762 18.884 24.8666C19.1569 24.9266 19.3295 25.1965 19.2695 25.4692C19.2096 25.7421 18.9397 25.9147 18.6669 25.8548C18.2159 25.7556 17.7789 25.6522 17.3904 25.4764C17.2765 25.4249 17.191 25.3364 17.1415 25.2314ZM16.1208 23.8558C16.0992 23.8099 16.0842 23.7599 16.0771 23.707C16.0152 23.2439 16.0549 22.7498 16.0932 22.2719L16.1023 22.1593C16.114 22.0109 16.1197 21.8518 16.1258 21.6833C16.1476 21.0793 16.1724 20.3946 16.4793 19.7018C16.6834 19.24 17.021 18.8453 17.3475 18.4635C17.544 18.2338 17.7473 17.9962 17.9179 17.7479C18.0653 17.5331 18.1957 17.281 18.3339 17.0142C18.5524 16.5922 18.8 16.1138 19.1681 15.7036C19.488 15.3476 19.8828 15.0789 20.2646 14.8191C20.5471 14.6269 20.8139 14.4452 21.0488 14.2334C21.2633 14.0405 21.4616 13.8038 21.6715 13.5532C21.9741 13.1919 22.2871 12.8182 22.6971 12.5138C23.1081 12.2091 23.5574 12.0178 23.9918 11.8329C24.2918 11.7051 24.5751 11.5845 24.8212 11.4361C25.0913 11.2729 25.3421 11.0705 25.6076 10.8563C25.9673 10.5659 26.3394 10.2657 26.7731 10.0628C27.2728 9.82951 27.8022 9.73141 28.2693 9.64488C28.5651 9.59009 28.8445 9.53831 29.0935 9.45925C29.3808 9.36802 29.6675 9.24229 29.9447 9.12076C30.4043 8.9193 30.8795 8.71093 31.3801 8.64927C32.1317 8.55744 32.7937 8.73233 33.3777 8.88658C33.5413 8.92976 33.6957 8.97057 33.8417 9.00244L33.9507 9.02619C34.81 9.21336 35.6986 9.40687 36.2335 10.1286C36.7686 10.8504 36.6954 11.7584 36.6248 12.6365L36.6162 12.7442C36.6045 12.8928 36.5988 13.0522 36.5926 13.2209C36.5709 13.8246 36.5462 14.5088 36.2403 15.2014C36.1388 15.4315 36.0003 15.6578 35.8045 15.9134C35.6346 16.1352 35.3171 16.1772 35.0953 16.0073C34.8736 15.8373 34.8315 15.5199 35.0014 15.2981C35.1469 15.1081 35.2465 14.9476 35.3147 14.7929C35.5421 14.2779 35.5621 13.722 35.5815 13.1843C35.5877 13.0124 35.5941 12.8346 35.6076 12.6643L35.6163 12.5553C35.6746 11.8314 35.7294 11.1478 35.4207 10.731C35.112 10.3145 34.4434 10.1689 33.7353 10.0146L33.6254 9.99065C33.4584 9.95415 33.2861 9.90863 33.1195 9.8646C32.5993 9.72722 32.0614 9.58519 31.5033 9.65334C31.15 9.69677 30.7618 9.86698 30.3509 10.0472C30.0496 10.1793 29.7381 10.3159 29.3998 10.4234C29.0908 10.5215 28.7668 10.5816 28.4535 10.6396C28.0063 10.7224 27.5839 10.8007 27.2014 10.9793C26.8791 11.13 26.5701 11.3795 26.2429 11.6435C25.9628 11.8695 25.6732 12.1033 25.3439 12.3022C25.0367 12.4874 24.7069 12.6279 24.3881 12.7636C23.9902 12.933 23.6144 13.093 23.2999 13.3262C22.986 13.5592 22.7242 13.8719 22.447 14.2028C22.2238 14.4693 21.9929 14.7448 21.7257 14.9851C21.4401 15.2427 21.1318 15.4525 20.8337 15.6554C20.4865 15.8917 20.1585 16.115 19.9207 16.3796C19.639 16.6935 19.4414 17.0752 19.2322 17.4792C19.086 17.7618 18.9348 18.0539 18.7516 18.3207C18.5507 18.6132 18.3298 18.8714 18.1162 19.1211C17.8243 19.4624 17.5485 19.7847 17.4043 20.1111C17.1762 20.626 17.1561 21.1821 17.1367 21.7198C17.1305 21.8914 17.1241 22.0689 17.1106 22.239L17.1015 22.3529C17.0659 22.7973 17.0321 23.2171 17.0797 23.5729C17.1167 23.8498 16.9223 24.1043 16.6454 24.1414C16.4216 24.1713 16.2123 24.0498 16.1208 23.8558Z" fill="#9F581F"/>
<path d="M8.0948 29.6779C8.05242 29.5879 8.03716 29.4867 8.05219 29.3869C8.07226 29.2539 8.14451 29.1342 8.25298 29.0545C8.28982 29.0274 11.9932 26.3078 16.2836 23.2304C17.7378 22.1877 19.0188 21.2755 20.1997 20.4416C21.9708 19.1915 23.449 18.1628 24.719 17.2967C26.2945 16.2224 27.5377 15.4068 28.4143 14.8723C28.9135 14.568 29.2937 14.3541 29.5764 14.2184C29.8349 14.0944 30.3729 13.8363 30.6791 14.2486C31.0396 14.7354 30.4858 15.2539 29.8445 15.8534C29.3154 16.348 28.5164 17.0363 27.4696 17.8992C27.4372 17.9259 27.4016 17.9485 27.3635 17.9664C27.1108 18.0855 26.8091 17.9774 26.69 17.7246C26.5867 17.5056 26.6541 17.25 26.8386 17.1083C26.8797 17.0742 26.9206 17.0405 26.9608 17.0074C26.477 17.3279 25.9232 17.7002 25.2891 18.1326C24.0236 18.9957 22.5498 20.0214 20.7833 21.2682C19.6045 22.1005 18.3254 23.0114 16.8732 24.0526C13.4165 26.5321 10.3412 28.7791 9.26187 29.5696L9.80219 30.2981L9.82503 30.281C9.83046 30.2769 9.83595 30.2729 9.8415 30.2691C12.392 28.3517 14.9678 26.3971 17.2912 24.6157L17.6648 24.3288C18.0923 24.0005 18.525 23.6681 18.9589 23.3334C18.9879 23.3111 19.0192 23.2918 19.0523 23.2762C19.305 23.1572 19.6067 23.2653 19.7258 23.5181C19.8313 23.7418 19.7587 24.0037 19.5652 24.1434C19.1345 24.4756 18.7052 24.8053 18.2811 25.1311L17.9073 25.4183C15.5763 27.2053 12.9924 29.1661 10.4345 31.089C10.4287 31.0933 10.423 31.0975 10.4172 31.1015L10.0025 31.4126C9.89474 31.4934 9.75917 31.528 9.62592 31.5085C9.4926 31.489 9.37256 31.4172 9.29242 31.309L8.14641 29.7635C8.12599 29.7366 8.10894 29.7079 8.0948 29.6779Z" fill="#9F581F"/>
<path d="M24.5462 17.9293C24.5015 17.8345 24.4858 17.7251 24.508 17.6144L25.2552 13.894C25.3102 13.6201 25.5769 13.4426 25.8508 13.4976C26.1247 13.5526 26.3021 13.8193 26.2471 14.0932L25.4999 17.8137C25.4449 18.0875 25.1782 18.265 24.9043 18.21C24.7411 18.1772 24.6121 18.0692 24.5462 17.9293Z" fill="#9F581F"/>
<path d="M20.0334 21.0689C19.9818 20.9594 19.9692 20.831 20.0072 20.7061L21.1716 16.8833C21.253 16.616 21.5356 16.4653 21.8029 16.5467C22.0702 16.6281 22.2207 16.9107 22.1394 17.178L20.975 21.0008C20.8936 21.268 20.611 21.4187 20.3437 21.3373C20.2015 21.294 20.0922 21.1937 20.0334 21.0689Z" fill="#9F581F"/>
<path d="M18.7064 28.6488C18.6305 28.4877 18.6422 28.2912 18.7538 28.1365C18.9174 27.9101 19.2336 27.8591 19.4601 28.0227C19.7503 28.2324 20.135 28.4006 20.5421 28.5788L20.6496 28.626C20.8068 28.6948 20.9677 28.7738 21.1234 28.8501C21.6055 29.0866 22.1039 29.3312 22.6637 29.374C23.0191 29.401 23.4329 29.3104 23.871 29.2145C24.1923 29.1441 24.5245 29.0714 24.8775 29.0326C25.1998 28.9968 25.5296 29.0016 25.8484 29.0062C26.3028 29.0129 26.7319 29.0192 27.1413 28.9188C27.4884 28.8343 27.8407 28.6505 28.2137 28.4557C28.5326 28.2893 28.8622 28.1173 29.2238 27.9871C29.5611 27.866 29.9119 27.793 30.2512 27.7224C30.6747 27.6343 31.0747 27.5511 31.4293 27.384C31.784 27.2168 32.1028 26.9613 32.4404 26.6907C32.7106 26.4741 32.99 26.2502 33.2976 26.0675C33.6288 25.8711 33.9716 25.7261 34.3031 25.586C34.6903 25.4223 35.0561 25.2677 35.3417 25.0546C35.6802 24.8024 35.9488 24.4671 36.2333 24.1121C36.4324 23.8635 36.6384 23.6065 36.8709 23.3807C37.1253 23.1334 37.3929 22.9235 37.6516 22.7206C38.0045 22.4437 38.3378 22.1823 38.5433 21.8908C38.8678 21.4303 38.9968 20.8883 39.1215 20.3643C39.1612 20.1976 39.2021 20.0255 39.2484 19.8619L39.2791 19.7545C39.4781 19.0571 39.6662 18.3985 39.4453 17.9298C39.2242 17.4605 38.5965 17.1862 37.9319 16.8957L37.8301 16.8512C37.6735 16.7825 37.5138 16.704 37.3593 16.6283C36.8763 16.3912 36.3768 16.1461 35.8158 16.1032C35.7072 16.095 35.588 16.0973 35.4515 16.1105C35.19 16.1358 34.9074 16.1975 34.6082 16.2629C34.2869 16.3331 33.9547 16.4057 33.602 16.4446C33.28 16.4802 32.9505 16.4755 32.6319 16.4709C32.1771 16.4644 31.7476 16.4582 31.3377 16.5584C30.9916 16.6429 30.6394 16.8266 30.2665 17.0212C29.9474 17.1877 29.6175 17.3598 29.2556 17.4899C28.9185 17.6115 28.5676 17.6844 28.2283 17.755C27.906 17.8219 27.6015 17.8853 27.3158 17.9859C27.2214 18.0184 27.1334 18.0539 27.0509 18.0928C26.6965 18.2598 26.3783 18.515 26.0414 18.785C25.7705 19.0022 25.4903 19.2268 25.1814 19.4099C24.8507 19.6061 24.5078 19.7509 24.1763 19.8911C23.7891 20.0548 23.4234 20.2094 23.1378 20.4224C22.8003 20.6746 22.5318 21.0092 22.2477 21.3636C22.097 21.5514 21.9414 21.7455 21.7748 21.9253C21.7149 21.9903 21.6602 22.0466 21.6086 22.0966C21.3547 22.3434 21.0869 22.5536 20.8279 22.7569C20.4749 23.0339 20.1416 23.2955 19.9359 23.5867C19.8582 23.6972 19.7869 23.82 19.7247 23.9509C19.5475 24.3202 19.4515 24.7217 19.3587 25.1101C19.3279 25.2393 19.2976 25.3657 19.2653 25.4877C19.2545 25.5316 19.2425 25.575 19.2302 25.6178L19.2016 25.7178C19.0786 26.1488 18.9623 26.5559 18.9395 26.9158C18.9219 27.1946 18.6816 27.4064 18.4027 27.3888C18.124 27.3711 17.9119 27.1308 17.9298 26.852C17.9595 26.3831 18.0964 25.9037 18.2287 25.44L18.2575 25.3391C18.2672 25.3055 18.2761 25.2734 18.2841 25.2408C18.2848 25.2382 18.2855 25.2355 18.2862 25.2328C18.3167 25.1172 18.3453 24.9974 18.3746 24.8749C18.4748 24.4554 18.5885 23.9799 18.8116 23.5148C18.8975 23.3341 18.9978 23.1616 19.1087 23.0038C19.4004 22.5909 19.8084 22.2707 20.2031 21.961C20.4414 21.774 20.6878 21.5806 20.9042 21.3703C20.9432 21.3326 20.9834 21.291 21.0316 21.2388C21.1745 21.0844 21.3123 20.9126 21.4583 20.7306C21.7551 20.3606 22.0915 19.9411 22.5324 19.6118C22.9165 19.3253 23.3566 19.1392 23.7823 18.9592C24.0966 18.8264 24.3935 18.7009 24.6655 18.5396C24.9132 18.3928 25.1538 18.2 25.4085 17.9958C25.7765 17.7007 26.157 17.3956 26.6195 17.1777C26.7353 17.1231 26.8577 17.0736 26.9833 17.0304C27.3293 16.9086 27.6816 16.8353 28.0223 16.7644C28.3413 16.6982 28.6426 16.6355 28.9128 16.5381C29.2103 16.431 29.4961 16.282 29.7985 16.1242C30.2085 15.9103 30.6323 15.6893 31.0975 15.5756C31.6329 15.4448 32.1712 15.4525 32.6462 15.4594C32.9471 15.4637 33.2312 15.4677 33.4908 15.439C33.7907 15.406 34.0964 15.3392 34.3921 15.2746C34.7071 15.2058 35.0326 15.1347 35.354 15.1036C35.549 15.0849 35.7251 15.0818 35.8924 15.0946C36.6477 15.1523 37.2625 15.454 37.8048 15.7202C37.9565 15.7946 38.0996 15.8648 38.2363 15.9248L38.3369 15.9688C39.1433 16.3213 39.9772 16.6857 40.3603 17.4986C40.7431 18.311 40.4933 19.1861 40.2518 20.0323L40.2217 20.1381C40.1813 20.2806 40.1446 20.4351 40.1057 20.5986C39.9656 21.187 39.8069 21.8539 39.3701 22.4738C39.0789 22.8868 38.6707 23.2071 38.276 23.5168C38.038 23.7035 37.7919 23.8965 37.5756 24.1066C37.3882 24.2886 37.2107 24.5102 37.0227 24.7449C36.7254 25.116 36.3884 25.5365 35.9463 25.8659C35.5628 26.1521 35.1226 26.3382 34.6969 26.5182C34.3826 26.651 34.0857 26.7765 33.8138 26.9378C33.5673 27.0842 33.3272 27.2767 33.0729 27.4804C32.7043 27.7758 32.3232 28.0814 31.8604 28.2995C31.3977 28.5175 30.9195 28.617 30.4571 28.7132C30.1378 28.7796 29.8363 28.8423 29.5659 28.9395C29.2691 29.0463 28.9838 29.1953 28.6816 29.3529C28.2714 29.5671 27.8471 29.7885 27.381 29.902C26.8466 30.0329 26.3083 30.0251 25.8333 30.0181C25.5324 30.0138 25.2481 30.0095 24.9883 30.0384C24.6883 30.0715 24.3827 30.1384 24.0871 30.203C23.597 30.3103 23.0902 30.4213 22.5865 30.383C21.8326 30.3254 21.2189 30.0243 20.6775 29.7587C20.5248 29.6838 20.3807 29.6131 20.243 29.5529L20.136 29.506C19.6981 29.3144 19.2453 29.1162 18.8673 28.8432C18.7959 28.791 18.7417 28.7237 18.7064 28.6488Z" fill="#9F581F"/>
<path d="M18.7064 28.6488C18.6305 28.4877 18.6422 28.2912 18.7538 28.1365C18.9174 27.9101 19.2336 27.8591 19.4601 28.0227C19.7503 28.2324 20.135 28.4006 20.5421 28.5788L20.6496 28.626C20.8068 28.6948 20.9677 28.7738 21.1234 28.8501C21.6055 29.0866 22.1039 29.3312 22.6637 29.374C23.0191 29.401 23.4329 29.3104 23.871 29.2145C24.1923 29.1441 24.5245 29.0714 24.8775 29.0326C25.1998 28.9968 25.5296 29.0016 25.8484 29.0062C26.3028 29.0129 26.7319 29.0192 27.1413 28.9188C27.4884 28.8343 27.8407 28.6505 28.2137 28.4557C28.5326 28.2893 28.8622 28.1173 29.2238 27.9871C29.5611 27.866 29.9119 27.793 30.2512 27.7224C30.6747 27.6343 31.0747 27.5511 31.4293 27.384C31.784 27.2168 32.1028 26.9613 32.4404 26.6907C32.7106 26.4741 32.99 26.2502 33.2976 26.0675C33.6288 25.8711 33.9716 25.7261 34.3031 25.586C34.6903 25.4223 35.0561 25.2677 35.3417 25.0546C35.6802 24.8024 35.9488 24.4671 36.2333 24.1121C36.4324 23.8635 36.6384 23.6065 36.8709 23.3807C37.1253 23.1334 37.3929 22.9235 37.6516 22.7206C38.0045 22.4437 38.3378 22.1823 38.5433 21.8908C38.8678 21.4303 38.9968 20.8883 39.1215 20.3643C39.1612 20.1976 39.2021 20.0255 39.2484 19.8619L39.2791 19.7545C39.4781 19.0571 39.6662 18.3985 39.4453 17.9298C39.2242 17.4605 38.5965 17.1862 37.9319 16.8957L37.8301 16.8512C37.6735 16.7825 37.5138 16.704 37.3593 16.6283C36.8763 16.3912 36.3768 16.1461 35.8158 16.1032C35.7072 16.095 35.588 16.0973 35.4515 16.1105C35.19 16.1358 34.9074 16.1975 34.6082 16.2629C34.2869 16.3331 33.9547 16.4057 33.602 16.4446C33.28 16.4802 32.9505 16.4755 32.6319 16.4709C32.1771 16.4644 31.7476 16.4582 31.3377 16.5584C30.9916 16.6429 30.6394 16.8266 30.2665 17.0212C29.9474 17.1877 29.6175 17.3598 29.2556 17.4899C28.9185 17.6115 28.5676 17.6844 28.2283 17.755C27.906 17.8219 27.6015 17.8853 27.3158 17.9859C27.2214 18.0184 27.1334 18.0539 27.0509 18.0928C26.6965 18.2598 26.3783 18.515 26.0414 18.785C25.7705 19.0022 25.4903 19.2268 25.1814 19.4099C24.8507 19.6061 24.5078 19.7509 24.1763 19.8911C23.7891 20.0548 23.4234 20.2094 23.1378 20.4224C22.8003 20.6746 22.5318 21.0092 22.2477 21.3636C22.097 21.5514 21.9414 21.7455 21.7748 21.9253C21.7149 21.9903 21.6602 22.0466 21.6086 22.0966C21.3547 22.3434 21.0869 22.5536 20.8279 22.7569C20.4749 23.0339 20.1416 23.2955 19.9359 23.5867C19.8582 23.6972 19.7869 23.82 19.7247 23.9509C19.5475 24.3202 19.4515 24.7217 19.3587 25.1101C19.3279 25.2393 19.2976 25.3657 19.2653 25.4877C19.2545 25.5316 19.2425 25.575 19.2302 25.6178L19.2016 25.7178C19.0786 26.1488 18.9623 26.5559 18.9395 26.9158C18.9219 27.1946 18.6816 27.4064 18.4027 27.3888C18.124 27.3711 17.9119 27.1308 17.9298 26.852C17.9595 26.3831 18.0964 25.9037 18.2287 25.44L18.2575 25.3391C18.2672 25.3055 18.2761 25.2734 18.2841 25.2408C18.2848 25.2382 18.2855 25.2355 18.2862 25.2328C18.3167 25.1172 18.3453 24.9974 18.3746 24.8749C18.4748 24.4554 18.5885 23.9799 18.8116 23.5148C18.8975 23.3341 18.9978 23.1616 19.1087 23.0038C19.4004 22.5909 19.8084 22.2707 20.2031 21.961C20.4414 21.774 20.6878 21.5806 20.9042 21.3703C20.9432 21.3326 20.9834 21.291 21.0316 21.2388C21.1745 21.0844 21.3123 20.9126 21.4583 20.7306C21.7551 20.3606 22.0915 19.9411 22.5324 19.6118C22.9165 19.3253 23.3566 19.1392 23.7823 18.9592C24.0966 18.8264 24.3935 18.7009 24.6655 18.5396C24.9132 18.3928 25.1538 18.2 25.4085 17.9958C25.7765 17.7007 26.157 17.3956 26.6195 17.1777C26.7353 17.1231 26.8577 17.0736 26.9833 17.0304C27.3293 16.9086 27.6816 16.8353 28.0223 16.7644C28.3413 16.6982 28.6426 16.6355 28.9128 16.5381C29.2103 16.431 29.4961 16.282 29.7985 16.1242C30.2085 15.9103 30.6323 15.6893 31.0975 15.5756C31.6329 15.4448 32.1712 15.4525 32.6462 15.4594C32.9471 15.4637 33.2312 15.4677 33.4908 15.439C33.7907 15.406 34.0964 15.3392 34.3921 15.2746C34.7071 15.2058 35.0326 15.1347 35.354 15.1036C35.549 15.0849 35.7251 15.0818 35.8924 15.0946C36.6477 15.1523 37.2625 15.454 37.8048 15.7202C37.9565 15.7946 38.0996 15.8648 38.2363 15.9248L38.3369 15.9688C39.1433 16.3213 39.9772 16.6857 40.3603 17.4986C40.7431 18.311 40.4933 19.1861 40.2518 20.0323L40.2217 20.1381C40.1813 20.2806 40.1446 20.4351 40.1057 20.5986C39.9656 21.187 39.8069 21.8539 39.3701 22.4738C39.0789 22.8868 38.6707 23.2071 38.276 23.5168C38.038 23.7035 37.7919 23.8965 37.5756 24.1066C37.3882 24.2886 37.2107 24.5102 37.0227 24.7449C36.7254 25.116 36.3884 25.5365 35.9463 25.8659C35.5628 26.1521 35.1226 26.3382 34.6969 26.5182C34.3826 26.651 34.0857 26.7765 33.8138 26.9378C33.5673 27.0842 33.3272 27.2767 33.0729 27.4804C32.7043 27.7758 32.3232 28.0814 31.8604 28.2995C31.3977 28.5175 30.9195 28.617 30.4571 28.7132C30.1378 28.7796 29.8363 28.8423 29.5659 28.9395C29.2691 29.0463 28.9838 29.1953 28.6816 29.3529C28.2714 29.5671 27.8471 29.7885 27.381 29.902C26.8466 30.0329 26.3083 30.0251 25.8333 30.0181C25.5324 30.0138 25.2481 30.0095 24.9883 30.0384C24.6883 30.0715 24.3827 30.1384 24.0871 30.203C23.597 30.3103 23.0902 30.4213 22.5865 30.383C21.8326 30.3254 21.2189 30.0243 20.6775 29.7587C20.5248 29.6838 20.3807 29.6131 20.243 29.5529L20.136 29.506C19.6981 29.3144 19.2453 29.1162 18.8673 28.8432C18.7959 28.791 18.7417 28.7237 18.7064 28.6488Z" fill="#9F581F"/>
<path d="M9.78341 32.972C9.78316 32.9716 9.78294 32.9712 9.78276 32.9706L9.78273 32.9706L8.96254 31.2295C8.90518 31.1078 8.8987 30.9682 8.94451 30.8417C8.99035 30.7152 9.08462 30.6121 9.20666 30.5552C9.26633 30.5274 15.2462 27.7441 21.1931 25.0896C24.6886 23.5293 27.4899 22.3178 29.5193 21.4887C30.7312 20.9936 31.681 20.6298 32.3424 20.4075C33.1508 20.1358 33.8488 19.901 34.1054 20.4454C34.3619 20.9898 33.7365 21.3787 33.0123 21.8291C32.4198 22.1976 31.5346 22.6986 30.3813 23.318C28.4499 24.3553 25.7323 25.7445 22.3037 27.447C16.7037 30.2279 10.9926 32.9565 10.493 33.195C10.4812 33.2018 10.4691 33.2081 10.4566 33.214C10.2039 33.333 9.90247 33.2246 9.78341 32.972ZM10.0945 31.2584L10.4812 32.0792C11.9259 31.3877 16.5628 29.1617 21.2506 26.8399C25.4205 24.7747 28.147 23.3698 29.9274 22.414C28.0568 23.1787 25.2374 24.3872 20.9898 26.2886C16.2152 28.4259 11.5473 30.5845 10.0945 31.2584Z" fill="#9F581F"/>
<path d="M29.0138 23.4453C28.9714 23.3551 28.955 23.2516 28.9728 23.146C29.0192 22.8705 29.2802 22.6848 29.5557 22.7312L33.3301 23.3671C33.6056 23.4135 33.7913 23.6745 33.7449 23.9499C33.6985 24.2254 33.4375 24.4111 33.162 24.3647L29.3876 23.7288C29.2178 23.7003 29.0821 23.5901 29.0138 23.4453ZM27.4019 22.9448C27.343 22.8198 27.3352 22.6714 27.3927 22.5339L28.8565 19.0328C28.9642 18.7751 29.2605 18.6535 29.5183 18.7612C29.7761 18.8689 29.8976 19.1653 29.7898 19.423L28.3261 22.9241C28.2183 23.1819 27.922 23.3034 27.6643 23.1957C27.544 23.1455 27.4533 23.0541 27.4019 22.9448ZM24.9989 25.5174C24.9482 25.4098 24.935 25.284 24.9708 25.1608C25.0487 24.8926 25.3294 24.7382 25.5977 24.8162L29.7863 26.033C30.0545 26.1109 30.2089 26.3915 30.1309 26.6598C30.053 26.9281 29.7723 27.0825 29.504 27.0045L25.3155 25.7877C25.1704 25.7456 25.0586 25.6441 24.9989 25.5174Z" fill="#9F581F"/>
<path d="M22.3603 25.1374C22.2943 24.9973 22.2932 24.8288 22.3723 24.6818L24.2651 21.1623C24.3974 20.9162 24.7041 20.824 24.9502 20.9563C25.1963 21.0885 25.2885 21.3953 25.1562 21.6414L23.2633 25.161C23.131 25.407 22.8243 25.4993 22.5783 25.367C22.479 25.3136 22.4049 25.232 22.3603 25.1374Z" fill="#9F581F"/>
</g>
<defs>
<clipPath id="clip0_2_14816">
<rect width="37" height="37" fill="white" transform="translate(33.4697) rotate(64.7688)"/>
</clipPath>
</defs>
</svg>
