<svg width="39" height="39" viewBox="0 0 39 39" fill="none" xmlns="http://www.w3.org/2000/svg">
<path d="M21.7393 4.70321C20.8253 4.69559 20.0102 5.19833 19.6903 6.0088C19.5075 6.45821 19.5151 6.94419 19.6598 7.39284C19.8579 7.58251 20.0331 7.79274 20.1854 8.00602C20.5054 7.91462 20.8405 7.8613 21.1909 7.8613C21.8612 7.8613 22.4934 8.05173 23.0266 8.37926C23.2932 7.84606 23.7046 7.39208 24.2149 7.05387C24.2378 6.16571 23.6589 5.27907 22.6763 4.88831C22.3639 4.76491 22.0516 4.7055 21.7393 4.70321ZM16.7348 7.5787C15.836 7.5787 15.0591 8.02887 14.762 8.74489C14.3507 9.74274 14.9524 11.0377 16.255 11.5785C17.5651 12.1193 18.9057 11.6318 19.3171 10.634C19.736 9.64372 19.1343 8.3488 17.8241 7.80798C17.4585 7.64801 17.0852 7.58022 16.7348 7.5787ZM26.4163 7.76989C25.228 7.76989 24.3139 8.50114 24.1159 9.39997C24.4663 9.9027 24.6796 10.5121 24.7177 11.1595C25.1366 11.5328 25.7307 11.7765 26.4163 11.7765C27.7645 11.7765 28.7624 10.8396 28.7624 9.77321C28.7624 8.7068 27.7645 7.76989 26.4163 7.76989ZM21.1909 9.23239C21.0386 9.23239 20.8862 9.24762 20.7415 9.27809C20.8862 9.89508 20.8481 10.5425 20.5891 11.1595C20.3378 11.7613 19.9264 12.2336 19.4161 12.5687C19.8046 13.1248 20.452 13.4828 21.1909 13.4828C22.3944 13.4828 23.3542 12.5306 23.3542 11.3576C23.3542 10.1845 22.3944 9.23239 21.1909 9.23239ZM10.6563 10.3826C10.2679 10.375 9.87937 10.474 9.5366 10.672C8.43973 11.3195 8.08172 12.8658 8.85105 14.1912C9.62039 15.509 11.1514 15.9584 12.2483 15.3185C13.3528 14.6787 13.7032 13.1248 12.9339 11.807C12.4083 10.8929 11.5171 10.3978 10.6563 10.3826ZM30.72 12.0888C29.288 12.066 28.0921 12.9267 27.8559 14.1302C27.5893 15.5013 28.6481 16.941 30.3544 17.2685C32.0606 17.6037 33.5841 16.6668 33.8507 15.2957C34.1173 13.9246 33.0585 12.4849 31.3522 12.1574C31.1389 12.1193 30.9257 12.0965 30.72 12.0888ZM14.6477 12.1879C14.6173 12.1955 14.5944 12.1955 14.5716 12.2031C14.9677 13.7113 14.5106 15.3185 13.3147 16.2478C13.7946 16.7201 14.4725 17.0172 15.2343 17.0172C16.712 17.0172 17.8622 15.905 17.8622 14.572C17.8622 14.0541 17.687 13.5666 17.3899 13.1705C16.8415 13.1705 16.2702 13.0715 15.7294 12.8429C15.3257 12.6754 14.96 12.4545 14.6477 12.1879ZM24.4891 12.6525C24.4815 12.6601 24.4739 12.6601 24.4663 12.6677C24.2682 13.1476 23.9636 13.5818 23.5827 13.9246C23.5598 14.0236 23.5522 14.1226 23.5522 14.2293C23.5522 15.2423 24.4206 16.0879 25.5555 16.0879C25.9669 16.0879 26.3401 15.9736 26.6524 15.7832C26.4391 15.1814 26.3782 14.534 26.5077 13.8713C26.561 13.6123 26.6372 13.3685 26.7362 13.1324C26.6296 13.14 26.5229 13.1476 26.4163 13.1476C25.7155 13.1476 25.0528 12.9648 24.4891 12.6525ZM19.218 14.2521C19.2257 14.3588 19.2333 14.4654 19.2333 14.572C19.2333 15.5547 18.8448 16.4459 18.205 17.1162C18.8905 17.2228 19.5151 17.497 20.0407 17.8855C20.4673 16.8648 21.328 15.9812 22.4249 15.4404C22.3335 15.2195 22.2649 14.9834 22.2268 14.7472C22.2116 14.732 22.1964 14.7244 22.1811 14.7091C21.8612 14.8006 21.5337 14.8539 21.1909 14.8539C20.4673 14.8539 19.7817 14.633 19.218 14.2521ZM7.49596 15.4252C6.68854 15.4252 5.83922 15.9355 5.38295 16.8648C4.96857 17.7103 5.02342 18.6015 5.41037 19.2414C6.28406 19.4394 7.16156 19.6222 8.04363 19.7822C8.44734 19.5384 8.80535 19.1652 9.0491 18.6625C9.45281 17.8322 9.40711 16.9486 9.02625 16.3164C8.71395 16.1031 8.41687 15.8517 8.15789 15.5547C7.95223 15.4709 7.72371 15.4328 7.49596 15.4252ZM23.2323 16.5677C22.0059 17.0933 21.2137 18.114 21.13 19.1576C21.3661 19.607 21.5032 20.1021 21.5261 20.6353C21.5794 20.7191 21.6479 20.7953 21.7089 20.8715C23.697 20.8181 25.6546 20.6658 27.5817 20.422C28.0692 19.7974 28.2749 19.0509 28.1302 18.3425C28.0159 17.817 27.7188 17.3523 27.2923 16.9943C26.7819 17.2914 26.1878 17.459 25.5555 17.459C24.6643 17.459 23.8417 17.1238 23.2323 16.5677ZM12.0427 16.8648C11.5932 16.9791 11.121 17.0019 10.6639 16.9334C10.7706 17.6951 10.6411 18.5177 10.2755 19.2718C10.1307 19.5689 9.95555 19.8355 9.74988 20.0793C10.8848 20.2621 12.0198 20.4068 13.1548 20.5287C13.2081 20.5134 13.2538 20.4906 13.3071 20.4754C13.3909 20.4449 13.4823 20.422 13.5661 20.3992C13.6423 19.6756 13.947 19.0129 14.404 18.472C14.3888 18.4111 14.3735 18.3502 14.3507 18.2892C13.4214 18.0912 12.6063 17.5808 12.0427 16.8648ZM34.3153 17.3218C33.3251 18.4035 31.7179 18.9291 30.0954 18.6168C29.9659 18.5939 29.844 18.5634 29.7221 18.5254C29.6993 18.6701 29.6841 18.8148 29.6841 18.9672C29.6841 19.3632 29.7755 19.7441 29.9278 20.0793C31.6188 19.7898 33.2794 19.4318 34.8942 18.9976V18.9672C34.8942 18.3425 34.6733 17.7636 34.3153 17.3218ZM17.5346 18.434C16.2854 18.434 15.28 19.2033 14.9905 20.2011C15.3638 20.2088 15.7446 20.2545 16.1255 20.3459L16.1864 20.3611L16.2473 20.384C16.5139 20.5134 16.7653 20.6582 17.0014 20.8257C18.0526 20.8791 19.1114 20.9019 20.1626 20.8943V20.7953C20.1626 19.5156 19.02 18.434 17.5346 18.434ZM2.3833 19.8736C3.12598 21.5037 4.36682 23.5984 5.88492 25.5789C7.82273 28.123 10.2298 30.492 12.4997 31.6269L12.8805 31.8173V32.2439C12.8805 32.4724 12.972 32.6705 13.269 32.9218C13.5661 33.1808 14.0688 33.4398 14.6934 33.6531C15.9579 34.072 17.7403 34.3005 19.5075 34.3005C21.2747 34.3005 23.0571 34.072 24.3216 33.6531C24.9462 33.4398 25.4489 33.1808 25.746 32.9218C26.043 32.6705 26.1345 32.4724 26.1345 32.2439V31.8173L26.5153 31.6269C28.7852 30.492 31.1923 28.123 33.1346 25.5789C34.6352 23.6136 35.8692 21.5418 36.6157 19.9193C30.9104 21.6332 24.6339 22.4025 18.243 22.2349C18.5706 22.8748 18.6848 23.6365 18.4487 24.3677C17.6565 26.7672 15.1962 28.3972 12.5987 29.4865L12.1493 29.6769L11.8218 29.3189C10.961 28.3668 10.6563 27.0033 10.6259 25.655C10.5954 24.3144 10.8468 22.9738 11.3571 21.9836V21.9759C11.4028 21.8845 11.4561 21.7931 11.5171 21.7093C8.44734 21.3132 5.38295 20.7039 2.3833 19.8736ZM14.8305 21.5722C14.8001 21.5799 14.7772 21.5798 14.7468 21.5798C14.3964 21.6027 14.0612 21.6713 13.7565 21.7779C13.1548 21.9836 12.713 22.3492 12.5759 22.6158C12.2179 23.2937 11.9741 24.482 11.997 25.6246C12.0198 26.5386 12.2255 27.3994 12.5606 27.9935C14.762 26.9881 16.613 25.5484 17.1386 23.9412C17.2757 23.5375 17.1995 23.1338 16.9405 22.7148C16.7653 22.433 16.5063 22.1664 16.194 21.9455C15.4095 23.4004 14.7239 24.8095 14.6173 25.5865L13.2614 25.4037C13.4214 24.2459 14.0917 22.9281 14.8305 21.5722Z" fill="#9F581F"/>
</svg>
