<svg width="35" height="35" viewBox="0 0 35 35" fill="none" xmlns="http://www.w3.org/2000/svg">
<g clip-path="url(#clip0_2_14814)">
<path d="M33.3594 16.4062H32.586C32.8225 15.5689 32.8746 14.6902 32.7386 13.8307C32.6027 12.9712 32.2819 12.1515 31.7985 11.428C31.1559 10.4694 30.903 9.43503 31.087 8.51525C31.2023 7.90637 31.1881 7.28003 31.0454 6.67699C30.9027 6.07394 30.6346 5.5077 30.2586 5.01508C29.8826 4.52246 29.4072 4.1145 28.8632 3.81773C28.3191 3.52097 27.7187 3.34204 27.101 3.2926C26.7647 2.17506 26.0307 1.09375 24.6094 1.09375C24.4643 1.09375 24.3252 1.15137 24.2227 1.25393C24.1201 1.35648 24.0625 1.49558 24.0625 1.64062C24.0625 1.78567 24.1201 1.92477 24.2227 2.02732C24.3252 2.12988 24.4643 2.1875 24.6094 2.1875C24.8431 2.1875 25.5445 2.18832 25.971 3.35918C24.9723 3.55149 24.0718 4.08561 23.4241 4.86978C22.7764 5.65394 22.422 6.63919 22.4219 7.65625C22.4218 7.92242 22.446 8.18805 22.4941 8.44983C22.6223 9.11207 22.5709 9.79654 22.3454 10.4323C22.0079 10.3727 21.6621 10.3775 21.3263 10.4463C21.3267 10.4278 21.3281 10.4094 21.3281 10.3909C21.3281 9.6657 21.04 8.9702 20.5272 8.4574C20.0145 7.94461 19.319 7.65652 18.5938 7.65652C17.8685 7.65652 17.173 7.94461 16.6603 8.4574C16.1475 8.9702 15.8594 9.6657 15.8594 10.3909C15.8594 10.4661 15.8635 10.5407 15.8696 10.6153C15.5534 10.7524 15.2658 10.948 15.022 11.1916C14.6152 9.87873 13.8073 8.72634 12.7117 7.8964C11.6161 7.06647 10.288 6.60072 8.91406 6.56462C9.11962 5.48871 9.55124 4.375 10.3906 4.375C10.5357 4.375 10.6748 4.31738 10.7773 4.21482C10.8799 4.11226 10.9375 3.97317 10.9375 3.82812C10.9375 3.68308 10.8799 3.54399 10.7773 3.44143C10.6748 3.33887 10.5357 3.28125 10.3906 3.28125C9.70703 3.28125 8.83456 3.59721 8.25255 4.95523C7.84815 4.12594 7.21904 3.42684 6.43684 2.93753C5.65464 2.44822 4.75077 2.18835 3.82812 2.1875C3.68308 2.1875 3.54399 2.24512 3.44143 2.34768C3.33887 2.45024 3.28125 2.58933 3.28125 2.73438C3.28211 3.6542 3.54044 4.55541 4.027 5.33601C4.51356 6.11661 5.20891 6.74543 6.03436 7.15128C5.20094 7.52989 4.45599 8.07872 3.84739 8.76248C3.2388 9.44625 2.78004 10.2498 2.50061 11.1215C2.22119 11.9932 2.12728 12.9137 2.22494 13.8239C2.32259 14.734 2.60964 15.6137 3.06763 16.4062H1.64062C1.49558 16.4062 1.35648 16.4639 1.25393 16.5664C1.15137 16.669 1.09375 16.8081 1.09375 16.9531C1.09375 21.478 2.79802 25.7329 5.89258 28.9342C8.99199 32.1405 13.1142 33.9062 17.5 33.9062C21.8858 33.9062 26.008 32.1405 29.1074 28.9342C32.202 25.7329 33.9062 21.478 33.9062 16.9531C33.9062 16.8081 33.8486 16.669 33.7461 16.5664C33.6435 16.4639 33.5044 16.4062 33.3594 16.4062ZM23.5698 8.25159C23.5337 8.05519 23.5156 7.85593 23.5156 7.65625C23.5158 6.88709 23.786 6.1424 24.2791 5.55214C24.7723 4.96187 25.457 4.5635 26.2139 4.42654C26.2343 4.59114 26.2463 4.75667 26.25 4.92249C26.2501 5.06753 26.3078 5.2066 26.4104 5.3091C26.513 5.4116 26.6521 5.46914 26.7972 5.46906C26.9422 5.46898 27.0813 5.41128 27.1838 5.30866C27.2863 5.20605 27.3438 5.06692 27.3438 4.92188C27.3438 4.76807 27.3356 4.59785 27.3186 4.41793C27.7542 4.48822 28.1712 4.64563 28.5446 4.88074C28.918 5.11585 29.2402 5.42384 29.4919 5.7863C29.7436 6.14876 29.9196 6.55825 30.0094 6.99028C30.0992 7.4223 30.101 7.86801 30.0146 8.30074C29.7728 9.50817 30.0838 10.8352 30.8902 12.0374C31.315 12.6729 31.5856 13.3987 31.6805 14.1572C31.7755 14.9157 31.6921 15.6859 31.437 16.4065H27.2882C27.421 15.7581 27.3138 15.0836 26.9868 14.5083C26.6597 13.933 26.1349 13.4959 25.5099 13.2783C26.6233 12.7975 27.3438 11.9263 27.3438 10.9375C27.3438 10.7925 27.2861 10.6534 27.1836 10.5508C27.081 10.4482 26.9419 10.3906 26.7969 10.3906C26.6518 10.3906 26.5127 10.4482 26.4102 10.5508C26.3076 10.6534 26.25 10.7925 26.25 10.9375C26.25 11.6038 25.5382 12.209 24.5267 12.4579C24.3571 11.7893 23.9418 11.2092 23.3635 10.8331C23.6643 10.007 23.7355 9.11493 23.5698 8.25159ZM9.93781 16.4062C9.8502 16.1588 9.82325 15.8939 9.85923 15.6338C9.89522 15.3738 9.99308 15.1262 10.1446 14.9118C10.2961 14.6974 10.4969 14.5225 10.73 14.4018C10.9632 14.2811 11.2218 14.2181 11.4844 14.2181C11.7469 14.2181 12.0056 14.2811 12.2387 14.4018C12.4719 14.5225 12.6726 14.6974 12.8241 14.9118C12.9757 15.1262 13.0735 15.3738 13.1095 15.6338C13.1455 15.8939 13.1186 16.1588 13.0309 16.4062H9.93781ZM14.3128 16.4062C14.2252 16.1588 14.1983 15.8939 14.2342 15.6338C14.2702 15.3738 14.3681 15.1262 14.5196 14.9118C14.6711 14.6974 14.8719 14.5225 15.105 14.4018C15.3382 14.2811 15.5968 14.2181 15.8594 14.2181C16.1219 14.2181 16.3806 14.2811 16.6137 14.4018C16.8469 14.5225 17.0476 14.6974 17.1991 14.9118C17.3507 15.1262 17.4485 15.3738 17.4845 15.6338C17.5205 15.8939 17.4936 16.1588 17.4059 16.4062H14.3128ZM18.6878 16.4062C18.6002 16.1588 18.5733 15.8939 18.6092 15.6338C18.6452 15.3738 18.7431 15.1262 18.8946 14.9118C19.0461 14.6974 19.2469 14.5225 19.48 14.4018C19.7132 14.2811 19.9718 14.2181 20.2344 14.2181C20.4969 14.2181 20.7556 14.2811 20.9887 14.4018C21.2219 14.5225 21.4226 14.6974 21.5741 14.9118C21.7257 15.1262 21.8235 15.3738 21.8595 15.6338C21.8955 15.8939 21.8686 16.1588 21.7809 16.4062H18.6878ZM23.0628 16.4062C22.9752 16.1588 22.9483 15.8939 22.9842 15.6338C23.0202 15.3738 23.1181 15.1262 23.2696 14.9118C23.4211 14.6974 23.6219 14.5225 23.855 14.4018C24.0882 14.2811 24.3468 14.2181 24.6094 14.2181C24.8719 14.2181 25.1306 14.2811 25.3637 14.4018C25.5969 14.5225 25.7976 14.6974 25.9491 14.9118C26.1007 15.1262 26.1985 15.3738 26.2345 15.6338C26.2705 15.8939 26.2436 16.1588 26.1559 16.4062H23.0628ZM23.5156 13.125C23.5154 13.2043 23.5095 13.2835 23.498 13.362C23.0723 13.5524 22.702 13.8478 22.4219 14.2207C22.1675 13.8806 21.8374 13.6045 21.4576 13.4143C21.0779 13.2241 20.6591 13.125 20.2344 13.125C20.2344 12.6899 20.4072 12.2726 20.7149 11.9649C21.0226 11.6572 21.4399 11.4844 21.875 11.4844C22.3101 11.4844 22.7274 11.6572 23.0351 11.9649C23.3428 12.2726 23.5156 12.6899 23.5156 13.125ZM18.5938 8.75C18.8667 8.74986 19.1354 8.81786 19.3754 8.94782C19.6154 9.07779 19.8192 9.26561 19.9683 9.49426C20.1173 9.72291 20.207 9.98515 20.229 10.2572C20.2511 10.5293 20.2049 10.8025 20.0946 11.0522C19.81 11.2967 19.5784 11.5968 19.4141 11.934C19.19 11.4718 18.8404 11.0819 18.4052 10.809C17.97 10.5361 17.4668 10.3911 16.9531 10.3906C16.9536 9.95566 17.1266 9.53866 17.4342 9.23109C17.7418 8.92352 18.1588 8.75051 18.5938 8.75ZM16.9531 11.4844C17.2261 11.4842 17.4947 11.5522 17.7348 11.6822C17.9748 11.8122 18.1786 12 18.3276 12.2286C18.4767 12.4573 18.5663 12.7195 18.5884 12.9916C18.6105 13.2636 18.5643 13.5369 18.454 13.7866C18.303 13.9162 18.1665 14.0617 18.0469 14.2207C17.7367 13.8062 17.3152 13.4884 16.8314 13.3041C16.3477 13.1198 15.8215 13.0767 15.3142 13.1797C15.3136 13.1615 15.3125 13.1433 15.3125 13.125C15.313 12.69 15.486 12.273 15.7936 11.9655C16.1012 11.6579 16.5182 11.4849 16.9531 11.4844ZM4.4208 3.32705C5.22114 3.45384 5.9608 3.83074 6.53378 4.40372C7.10676 4.9767 7.48366 5.71636 7.61045 6.5167C6.81011 6.38991 6.07045 6.01301 5.49747 5.44003C4.92449 4.86705 4.54759 4.12739 4.4208 3.32705ZM3.28125 13.125C3.28292 11.8622 3.72083 10.6388 4.52088 9.6618C5.32093 8.68479 6.43398 8.01422 7.67163 7.76357C7.65673 8.02122 7.65625 8.18563 7.65625 8.20312C7.65625 8.34817 7.71387 8.48727 7.81643 8.58982C7.91898 8.69238 8.05808 8.75 8.20312 8.75C8.34817 8.75 8.48727 8.69238 8.58982 8.58982C8.69238 8.48727 8.75 8.34817 8.75 8.20312C8.75 8.05629 8.75684 7.86905 8.77222 7.6568C10.2182 7.66422 11.6025 8.2434 12.623 9.2679C13.6434 10.2924 14.2171 11.679 14.2188 13.125C14.2184 13.3163 14.2081 13.5074 14.1879 13.6976C13.9933 13.8481 13.8198 14.0241 13.6719 14.2207C13.2997 13.7233 12.7693 13.3676 12.1679 13.212C11.5666 13.0564 10.9301 13.1103 10.3635 13.3648C9.79687 13.6193 9.33381 14.0592 9.05061 14.612C8.76741 15.1649 8.68096 15.7977 8.80551 16.4062H4.375C3.6657 15.4593 3.28199 14.3082 3.28125 13.125ZM32.8036 17.5C32.7917 17.867 32.7678 18.2315 32.7318 18.5938H2.26823C2.23255 18.2316 2.2086 17.867 2.19639 17.5H32.8036ZM28.3213 28.174C25.4297 31.165 21.5866 32.8125 17.5 32.8125C13.4134 32.8125 9.57031 31.165 6.67871 28.174C4.42734 25.8445 2.93937 22.8841 2.41309 19.6875H32.5869C32.0606 22.8841 30.5727 25.8445 28.3213 28.174Z" fill="#9F581F" stroke="#9F581F" stroke-width="0.2"/>
</g>
<defs>
<clipPath id="clip0_2_14814">
<rect width="35" height="35" fill="white"/>
</clipPath>
</defs>
</svg>
