<svg width="34" height="34" viewBox="0 0 34 34" fill="none" xmlns="http://www.w3.org/2000/svg">
<g clip-path="url(#clip0_2_14848)">
<mask id="path-1-outside-1_2_14848" maskUnits="userSpaceOnUse" x="-0.0288086" y="-0.0292969" width="34" height="34" fill="black">
<rect fill="white" x="-0.0288086" y="-0.0292969" width="34" height="34"/>
<path d="M31.598 13.764C31.8626 13.1326 32.0033 12.4578 32.0033 11.7805C32.0033 10.1605 31.23 8.64409 29.9205 7.62185L31.1339 6.08662C31.2653 5.92061 31.2738 5.68818 31.1552 5.51268C30.2487 4.17685 28.7872 4.07789 27.9812 4.14033L28.2575 2.49452C28.2936 2.27775 28.1807 2.06383 27.981 1.97228C26.0116 1.06726 24.4719 1.95331 23.9326 2.54717C23.8363 2.65389 23.7917 2.79761 23.8116 2.93991L24.0115 4.39261C22.3137 4.24142 21.4468 5.40999 21.4068 5.4662C21.3166 5.59142 21.292 5.75222 21.3394 5.89879L22.0645 8.13152C21.1908 9.02676 20.6718 10.1512 20.5748 11.3635C20.5436 11.3243 20.515 11.2831 20.4823 11.245L19.4611 10.0715L17.1691 7.22976C16.931 6.9371 16.7079 6.63862 16.4928 6.33903C16.7032 6.22092 16.9062 6.08668 17.0889 5.91966C17.2569 5.76597 17.2957 5.516 17.1819 5.31868C16.6464 4.38899 15.8329 3.76288 14.8918 3.55607C14.4544 3.45942 14.0131 3.46393 13.5894 3.55975C13.4136 3.14957 13.1667 2.39028 13.2877 1.52404C13.3109 1.3566 13.2459 1.18916 13.1155 1.08196C12.985 0.973815 12.8081 0.942034 12.6487 0.997531L10.8771 1.60657C10.7106 1.66349 10.5882 1.80674 10.5569 1.97987C10.3966 2.87191 10.6567 3.89984 11.3013 4.96904C10.2612 6.10061 10.1116 7.90497 11.0166 9.46623C11.1446 9.68774 11.4226 9.77217 11.6531 9.65786C11.8025 9.5835 11.9415 9.49457 12.0747 9.39804C12.6639 10.7228 13.1216 12.0891 13.4816 13.5995H11.6309C11.1471 11.1994 10.4927 8.41434 10.1594 7.67278C9.73777 6.73693 8.97694 6.02164 8.01737 5.6583C7.64781 5.51855 7.2657 5.43869 6.88215 5.4158C7.00479 5.22488 7.11288 5.02365 7.19488 4.80735C7.50509 3.98866 7.47806 3.09834 7.11851 2.30004C7.00799 2.05576 6.72008 1.94619 6.47627 2.05671C5.95252 2.29269 5.51187 2.6546 5.18164 3.10557C4.8323 2.6849 4.3749 2.34475 3.82808 2.13735C3.7076 2.09086 3.57384 2.09513 3.45668 2.14826C3.33905 2.20138 3.2475 2.29862 3.20149 2.4191C2.99818 2.95569 2.9426 3.52251 3.02771 4.07445C2.47185 4.02305 1.90927 4.11258 1.38623 4.3482C1.2686 4.40133 1.17705 4.49856 1.13104 4.61904C1.08551 4.73952 1.08977 4.87328 1.14242 4.99092C1.50244 5.78922 2.15133 6.39968 2.96907 6.70989C3.18709 6.79231 3.411 6.84401 3.63634 6.87887C2.78346 7.96734 2.54502 9.48283 3.15121 10.8347C3.37794 11.3277 4.15484 12.4821 4.9483 13.5995H3.23802C1.98816 13.5995 0.971191 14.6165 0.971191 15.8664C0.971191 17.1162 1.98816 18.1327 3.23802 18.1327H3.66806L6.95819 31.3167C7.20958 32.3242 8.11081 33.0281 9.1496 33.0281H24.8499C25.8887 33.0281 26.7899 32.3242 27.0413 31.3167L30.3315 18.1327H30.7615C32.0114 18.1327 33.0283 17.1162 33.0283 15.8664C33.0283 14.9125 32.4342 14.098 31.598 13.764ZM30.133 5.78684L29.1037 7.089C28.6244 6.83025 28.1156 6.64052 27.5809 6.52395L27.8142 5.1347C28.2465 5.07061 29.3794 4.99489 30.133 5.78684ZM27.2349 2.7184L26.6185 6.38806C26.504 6.38142 26.3899 6.37644 26.2758 6.37644C25.937 6.37644 25.6036 6.40792 25.2765 6.46205L24.8087 3.06039C25.144 2.79477 25.9916 2.29056 27.2349 2.7184ZM24.1492 5.39357L24.3293 6.70207C23.8062 6.88041 23.3135 7.13045 22.8639 7.44783L22.3502 5.86653C22.611 5.62587 23.2086 5.23342 24.1492 5.39357ZM22.9469 8.61907C23.8377 7.79943 25.0202 7.34787 26.2758 7.34787C26.4997 7.34787 26.7221 7.36304 26.9579 7.39435C27.6817 7.48969 28.3571 7.73539 28.9652 8.12529C30.2592 8.95442 31.0319 10.3205 31.0319 11.7805C31.0319 12.4057 30.878 13.0269 30.6002 13.5995H21.9452C21.6743 13.0315 21.5244 12.4104 21.5244 11.7805C21.5244 10.5814 22.0291 9.45864 22.9469 8.61907ZM12.2868 2.14921C12.3124 2.89912 12.5184 3.52547 12.688 3.92492C12.6211 3.96518 12.554 4.00514 12.4894 4.0508C12.3472 4.15135 12.2036 4.24847 12.0602 4.34607C11.6636 3.65153 11.463 2.98812 11.4843 2.42479L12.2868 2.14921ZM11.6313 8.51756C11.129 7.27008 11.4292 5.93958 12.4177 5.27884C12.6307 5.13654 12.8408 4.99187 13.05 4.84388C13.5362 4.50046 14.1187 4.38046 14.6831 4.50473C15.2324 4.62521 15.7267 4.95629 16.1057 5.45102C15.6218 5.75222 15.0384 5.85373 14.483 5.72328C14.2785 5.67633 14.0656 5.76455 13.9565 5.9448C13.8474 6.12504 13.8668 6.35509 14.0048 6.51447C14.5209 7.10975 14.7529 7.91137 14.6623 8.73149C14.0414 8.44736 13.5618 7.91991 13.3123 7.22928C13.2426 7.03623 13.0595 6.90864 12.8555 6.90864C12.8498 6.90864 12.8446 6.90864 12.8389 6.90911C12.6283 6.91623 12.4462 7.05852 12.3883 7.26106C12.2745 7.66063 12.105 7.99426 11.883 8.26137C11.881 8.26368 11.8798 8.26641 11.8778 8.26878C11.8017 8.35949 11.7197 8.44262 11.6313 8.51756ZM12.8016 8.64344C12.8344 8.59583 12.8709 8.55231 12.9015 8.50239C13.3958 9.17214 14.1054 9.65074 14.9227 9.84142C14.9601 9.84996 14.9971 9.85423 15.0337 9.85423C15.2476 9.85423 15.4425 9.71193 15.5014 9.49706C15.7632 8.54555 15.6816 7.56701 15.2926 6.73313C15.379 6.72388 15.4631 6.70147 15.5484 6.68505C15.82 7.07453 16.1069 7.46295 16.4144 7.84117L18.7164 10.6952L19.7466 11.8796C20.156 12.3576 20.4132 12.9566 20.5071 13.5995H14.4809C14.0698 11.8184 13.5185 10.1883 12.8016 8.64344ZM6.39895 3.22926C6.47485 3.63908 6.43785 4.06313 6.28606 4.46299C6.20326 4.68171 6.08133 4.87803 5.93909 5.05916C5.92388 4.71901 5.85368 4.38638 5.73744 4.07113C5.89184 3.73952 6.11492 3.45077 6.39895 3.22926ZM3.97655 3.3042C4.32598 3.54552 4.59502 3.87553 4.76492 4.25049C4.76729 4.25606 4.76924 4.2614 4.77185 4.26697C4.93793 4.6411 5.00605 5.05893 4.95557 5.47806C4.6083 5.23828 4.3408 4.91052 4.17076 4.53847C4.16821 4.53248 4.16521 4.52702 4.16243 4.52109C3.99448 4.14554 3.9258 3.72546 3.97655 3.3042ZM2.31544 5.06776C2.66995 5.00331 3.03263 5.02697 3.38215 5.13049C3.54387 5.43264 3.74774 5.70449 3.9893 5.93786C3.76073 5.92375 3.53281 5.88468 3.31343 5.80107C2.91405 5.64976 2.57206 5.39647 2.31544 5.06776ZM5.47629 12.6638C5.68992 12.5388 5.91938 12.4546 6.17317 12.4137C6.43785 12.371 6.61809 12.122 6.57541 11.8569C6.53272 11.5922 6.28322 11.4105 6.01854 11.4546C5.62393 11.5181 5.25712 11.6545 4.92322 11.8604C4.43451 11.1361 4.13201 10.6429 4.03537 10.4329C3.72183 9.73327 3.69859 8.95205 3.97086 8.23439C4.24312 7.51625 4.77769 6.94848 5.47733 6.63447C6.17649 6.31952 6.95629 6.2958 7.67301 6.56664C8.33253 6.81662 8.85658 7.29587 9.18313 7.91351C8.87929 8.02776 8.59427 8.1853 8.33659 8.39661C8.12884 8.5669 8.09895 8.87284 8.26876 9.08012C8.36505 9.19728 8.50403 9.25799 8.64491 9.25799C8.75306 9.25799 8.86215 9.22194 8.95227 9.14795C9.1287 9.00316 9.31863 8.89756 9.52263 8.82102C9.82068 9.85695 10.2503 11.6856 10.6395 13.5995H6.1432C5.90132 13.2649 5.67785 12.9514 5.47629 12.6638ZM26.0984 31.0815C25.9556 31.6559 25.4419 32.0567 24.8499 32.0567H9.1496C8.55763 32.0567 8.04393 31.6559 7.90116 31.0815L4.66955 18.1327H29.33L26.0984 31.0815ZM30.7615 17.1613H29.9518H4.0477H3.23802C2.52367 17.1613 1.94262 16.5802 1.94262 15.8664C1.94262 15.152 2.52367 14.571 3.23802 14.571H21.0387H21.0434H30.7615C31.4759 14.571 32.0569 15.152 32.0569 15.8664C32.0569 16.5802 31.4759 17.1613 30.7615 17.1613Z"/>
</mask>
<path d="M31.598 13.764C31.8626 13.1326 32.0033 12.4578 32.0033 11.7805C32.0033 10.1605 31.23 8.64409 29.9205 7.62185L31.1339 6.08662C31.2653 5.92061 31.2738 5.68818 31.1552 5.51268C30.2487 4.17685 28.7872 4.07789 27.9812 4.14033L28.2575 2.49452C28.2936 2.27775 28.1807 2.06383 27.981 1.97228C26.0116 1.06726 24.4719 1.95331 23.9326 2.54717C23.8363 2.65389 23.7917 2.79761 23.8116 2.93991L24.0115 4.39261C22.3137 4.24142 21.4468 5.40999 21.4068 5.4662C21.3166 5.59142 21.292 5.75222 21.3394 5.89879L22.0645 8.13152C21.1908 9.02676 20.6718 10.1512 20.5748 11.3635C20.5436 11.3243 20.515 11.2831 20.4823 11.245L19.4611 10.0715L17.1691 7.22976C16.931 6.9371 16.7079 6.63862 16.4928 6.33903C16.7032 6.22092 16.9062 6.08668 17.0889 5.91966C17.2569 5.76597 17.2957 5.516 17.1819 5.31868C16.6464 4.38899 15.8329 3.76288 14.8918 3.55607C14.4544 3.45942 14.0131 3.46393 13.5894 3.55975C13.4136 3.14957 13.1667 2.39028 13.2877 1.52404C13.3109 1.3566 13.2459 1.18916 13.1155 1.08196C12.985 0.973815 12.8081 0.942034 12.6487 0.997531L10.8771 1.60657C10.7106 1.66349 10.5882 1.80674 10.5569 1.97987C10.3966 2.87191 10.6567 3.89984 11.3013 4.96904C10.2612 6.10061 10.1116 7.90497 11.0166 9.46623C11.1446 9.68774 11.4226 9.77217 11.6531 9.65786C11.8025 9.5835 11.9415 9.49457 12.0747 9.39804C12.6639 10.7228 13.1216 12.0891 13.4816 13.5995H11.6309C11.1471 11.1994 10.4927 8.41434 10.1594 7.67278C9.73777 6.73693 8.97694 6.02164 8.01737 5.6583C7.64781 5.51855 7.2657 5.43869 6.88215 5.4158C7.00479 5.22488 7.11288 5.02365 7.19488 4.80735C7.50509 3.98866 7.47806 3.09834 7.11851 2.30004C7.00799 2.05576 6.72008 1.94619 6.47627 2.05671C5.95252 2.29269 5.51187 2.6546 5.18164 3.10557C4.8323 2.6849 4.3749 2.34475 3.82808 2.13735C3.7076 2.09086 3.57384 2.09513 3.45668 2.14826C3.33905 2.20138 3.2475 2.29862 3.20149 2.4191C2.99818 2.95569 2.9426 3.52251 3.02771 4.07445C2.47185 4.02305 1.90927 4.11258 1.38623 4.3482C1.2686 4.40133 1.17705 4.49856 1.13104 4.61904C1.08551 4.73952 1.08977 4.87328 1.14242 4.99092C1.50244 5.78922 2.15133 6.39968 2.96907 6.70989C3.18709 6.79231 3.411 6.84401 3.63634 6.87887C2.78346 7.96734 2.54502 9.48283 3.15121 10.8347C3.37794 11.3277 4.15484 12.4821 4.9483 13.5995H3.23802C1.98816 13.5995 0.971191 14.6165 0.971191 15.8664C0.971191 17.1162 1.98816 18.1327 3.23802 18.1327H3.66806L6.95819 31.3167C7.20958 32.3242 8.11081 33.0281 9.1496 33.0281H24.8499C25.8887 33.0281 26.7899 32.3242 27.0413 31.3167L30.3315 18.1327H30.7615C32.0114 18.1327 33.0283 17.1162 33.0283 15.8664C33.0283 14.9125 32.4342 14.098 31.598 13.764ZM30.133 5.78684L29.1037 7.089C28.6244 6.83025 28.1156 6.64052 27.5809 6.52395L27.8142 5.1347C28.2465 5.07061 29.3794 4.99489 30.133 5.78684ZM27.2349 2.7184L26.6185 6.38806C26.504 6.38142 26.3899 6.37644 26.2758 6.37644C25.937 6.37644 25.6036 6.40792 25.2765 6.46205L24.8087 3.06039C25.144 2.79477 25.9916 2.29056 27.2349 2.7184ZM24.1492 5.39357L24.3293 6.70207C23.8062 6.88041 23.3135 7.13045 22.8639 7.44783L22.3502 5.86653C22.611 5.62587 23.2086 5.23342 24.1492 5.39357ZM22.9469 8.61907C23.8377 7.79943 25.0202 7.34787 26.2758 7.34787C26.4997 7.34787 26.7221 7.36304 26.9579 7.39435C27.6817 7.48969 28.3571 7.73539 28.9652 8.12529C30.2592 8.95442 31.0319 10.3205 31.0319 11.7805C31.0319 12.4057 30.878 13.0269 30.6002 13.5995H21.9452C21.6743 13.0315 21.5244 12.4104 21.5244 11.7805C21.5244 10.5814 22.0291 9.45864 22.9469 8.61907ZM12.2868 2.14921C12.3124 2.89912 12.5184 3.52547 12.688 3.92492C12.6211 3.96518 12.554 4.00514 12.4894 4.0508C12.3472 4.15135 12.2036 4.24847 12.0602 4.34607C11.6636 3.65153 11.463 2.98812 11.4843 2.42479L12.2868 2.14921ZM11.6313 8.51756C11.129 7.27008 11.4292 5.93958 12.4177 5.27884C12.6307 5.13654 12.8408 4.99187 13.05 4.84388C13.5362 4.50046 14.1187 4.38046 14.6831 4.50473C15.2324 4.62521 15.7267 4.95629 16.1057 5.45102C15.6218 5.75222 15.0384 5.85373 14.483 5.72328C14.2785 5.67633 14.0656 5.76455 13.9565 5.9448C13.8474 6.12504 13.8668 6.35509 14.0048 6.51447C14.5209 7.10975 14.7529 7.91137 14.6623 8.73149C14.0414 8.44736 13.5618 7.91991 13.3123 7.22928C13.2426 7.03623 13.0595 6.90864 12.8555 6.90864C12.8498 6.90864 12.8446 6.90864 12.8389 6.90911C12.6283 6.91623 12.4462 7.05852 12.3883 7.26106C12.2745 7.66063 12.105 7.99426 11.883 8.26137C11.881 8.26368 11.8798 8.26641 11.8778 8.26878C11.8017 8.35949 11.7197 8.44262 11.6313 8.51756ZM12.8016 8.64344C12.8344 8.59583 12.8709 8.55231 12.9015 8.50239C13.3958 9.17214 14.1054 9.65074 14.9227 9.84142C14.9601 9.84996 14.9971 9.85423 15.0337 9.85423C15.2476 9.85423 15.4425 9.71193 15.5014 9.49706C15.7632 8.54555 15.6816 7.56701 15.2926 6.73313C15.379 6.72388 15.4631 6.70147 15.5484 6.68505C15.82 7.07453 16.1069 7.46295 16.4144 7.84117L18.7164 10.6952L19.7466 11.8796C20.156 12.3576 20.4132 12.9566 20.5071 13.5995H14.4809C14.0698 11.8184 13.5185 10.1883 12.8016 8.64344ZM6.39895 3.22926C6.47485 3.63908 6.43785 4.06313 6.28606 4.46299C6.20326 4.68171 6.08133 4.87803 5.93909 5.05916C5.92388 4.71901 5.85368 4.38638 5.73744 4.07113C5.89184 3.73952 6.11492 3.45077 6.39895 3.22926ZM3.97655 3.3042C4.32598 3.54552 4.59502 3.87553 4.76492 4.25049C4.76729 4.25606 4.76924 4.2614 4.77185 4.26697C4.93793 4.6411 5.00605 5.05893 4.95557 5.47806C4.6083 5.23828 4.3408 4.91052 4.17076 4.53847C4.16821 4.53248 4.16521 4.52702 4.16243 4.52109C3.99448 4.14554 3.9258 3.72546 3.97655 3.3042ZM2.31544 5.06776C2.66995 5.00331 3.03263 5.02697 3.38215 5.13049C3.54387 5.43264 3.74774 5.70449 3.9893 5.93786C3.76073 5.92375 3.53281 5.88468 3.31343 5.80107C2.91405 5.64976 2.57206 5.39647 2.31544 5.06776ZM5.47629 12.6638C5.68992 12.5388 5.91938 12.4546 6.17317 12.4137C6.43785 12.371 6.61809 12.122 6.57541 11.8569C6.53272 11.5922 6.28322 11.4105 6.01854 11.4546C5.62393 11.5181 5.25712 11.6545 4.92322 11.8604C4.43451 11.1361 4.13201 10.6429 4.03537 10.4329C3.72183 9.73327 3.69859 8.95205 3.97086 8.23439C4.24312 7.51625 4.77769 6.94848 5.47733 6.63447C6.17649 6.31952 6.95629 6.2958 7.67301 6.56664C8.33253 6.81662 8.85658 7.29587 9.18313 7.91351C8.87929 8.02776 8.59427 8.1853 8.33659 8.39661C8.12884 8.5669 8.09895 8.87284 8.26876 9.08012C8.36505 9.19728 8.50403 9.25799 8.64491 9.25799C8.75306 9.25799 8.86215 9.22194 8.95227 9.14795C9.1287 9.00316 9.31863 8.89756 9.52263 8.82102C9.82068 9.85695 10.2503 11.6856 10.6395 13.5995H6.1432C5.90132 13.2649 5.67785 12.9514 5.47629 12.6638ZM26.0984 31.0815C25.9556 31.6559 25.4419 32.0567 24.8499 32.0567H9.1496C8.55763 32.0567 8.04393 31.6559 7.90116 31.0815L4.66955 18.1327H29.33L26.0984 31.0815ZM30.7615 17.1613H29.9518H4.0477H3.23802C2.52367 17.1613 1.94262 16.5802 1.94262 15.8664C1.94262 15.152 2.52367 14.571 3.23802 14.571H21.0387H21.0434H30.7615C31.4759 14.571 32.0569 15.152 32.0569 15.8664C32.0569 16.5802 31.4759 17.1613 30.7615 17.1613Z" fill="#9F581F"/>
<path d="M31.598 13.764C31.8626 13.1326 32.0033 12.4578 32.0033 11.7805C32.0033 10.1605 31.23 8.64409 29.9205 7.62185L31.1339 6.08662C31.2653 5.92061 31.2738 5.68818 31.1552 5.51268C30.2487 4.17685 28.7872 4.07789 27.9812 4.14033L28.2575 2.49452C28.2936 2.27775 28.1807 2.06383 27.981 1.97228C26.0116 1.06726 24.4719 1.95331 23.9326 2.54717C23.8363 2.65389 23.7917 2.79761 23.8116 2.93991L24.0115 4.39261C22.3137 4.24142 21.4468 5.40999 21.4068 5.4662C21.3166 5.59142 21.292 5.75222 21.3394 5.89879L22.0645 8.13152C21.1908 9.02676 20.6718 10.1512 20.5748 11.3635C20.5436 11.3243 20.515 11.2831 20.4823 11.245L19.4611 10.0715L17.1691 7.22976C16.931 6.9371 16.7079 6.63862 16.4928 6.33903C16.7032 6.22092 16.9062 6.08668 17.0889 5.91966C17.2569 5.76597 17.2957 5.516 17.1819 5.31868C16.6464 4.38899 15.8329 3.76288 14.8918 3.55607C14.4544 3.45942 14.0131 3.46393 13.5894 3.55975C13.4136 3.14957 13.1667 2.39028 13.2877 1.52404C13.3109 1.3566 13.2459 1.18916 13.1155 1.08196C12.985 0.973815 12.8081 0.942034 12.6487 0.997531L10.8771 1.60657C10.7106 1.66349 10.5882 1.80674 10.5569 1.97987C10.3966 2.87191 10.6567 3.89984 11.3013 4.96904C10.2612 6.10061 10.1116 7.90497 11.0166 9.46623C11.1446 9.68774 11.4226 9.77217 11.6531 9.65786C11.8025 9.5835 11.9415 9.49457 12.0747 9.39804C12.6639 10.7228 13.1216 12.0891 13.4816 13.5995H11.6309C11.1471 11.1994 10.4927 8.41434 10.1594 7.67278C9.73777 6.73693 8.97694 6.02164 8.01737 5.6583C7.64781 5.51855 7.2657 5.43869 6.88215 5.4158C7.00479 5.22488 7.11288 5.02365 7.19488 4.80735C7.50509 3.98866 7.47806 3.09834 7.11851 2.30004C7.00799 2.05576 6.72008 1.94619 6.47627 2.05671C5.95252 2.29269 5.51187 2.6546 5.18164 3.10557C4.8323 2.6849 4.3749 2.34475 3.82808 2.13735C3.7076 2.09086 3.57384 2.09513 3.45668 2.14826C3.33905 2.20138 3.2475 2.29862 3.20149 2.4191C2.99818 2.95569 2.9426 3.52251 3.02771 4.07445C2.47185 4.02305 1.90927 4.11258 1.38623 4.3482C1.2686 4.40133 1.17705 4.49856 1.13104 4.61904C1.08551 4.73952 1.08977 4.87328 1.14242 4.99092C1.50244 5.78922 2.15133 6.39968 2.96907 6.70989C3.18709 6.79231 3.411 6.84401 3.63634 6.87887C2.78346 7.96734 2.54502 9.48283 3.15121 10.8347C3.37794 11.3277 4.15484 12.4821 4.9483 13.5995H3.23802C1.98816 13.5995 0.971191 14.6165 0.971191 15.8664C0.971191 17.1162 1.98816 18.1327 3.23802 18.1327H3.66806L6.95819 31.3167C7.20958 32.3242 8.11081 33.0281 9.1496 33.0281H24.8499C25.8887 33.0281 26.7899 32.3242 27.0413 31.3167L30.3315 18.1327H30.7615C32.0114 18.1327 33.0283 17.1162 33.0283 15.8664C33.0283 14.9125 32.4342 14.098 31.598 13.764ZM30.133 5.78684L29.1037 7.089C28.6244 6.83025 28.1156 6.64052 27.5809 6.52395L27.8142 5.1347C28.2465 5.07061 29.3794 4.99489 30.133 5.78684ZM27.2349 2.7184L26.6185 6.38806C26.504 6.38142 26.3899 6.37644 26.2758 6.37644C25.937 6.37644 25.6036 6.40792 25.2765 6.46205L24.8087 3.06039C25.144 2.79477 25.9916 2.29056 27.2349 2.7184ZM24.1492 5.39357L24.3293 6.70207C23.8062 6.88041 23.3135 7.13045 22.8639 7.44783L22.3502 5.86653C22.611 5.62587 23.2086 5.23342 24.1492 5.39357ZM22.9469 8.61907C23.8377 7.79943 25.0202 7.34787 26.2758 7.34787C26.4997 7.34787 26.7221 7.36304 26.9579 7.39435C27.6817 7.48969 28.3571 7.73539 28.9652 8.12529C30.2592 8.95442 31.0319 10.3205 31.0319 11.7805C31.0319 12.4057 30.878 13.0269 30.6002 13.5995H21.9452C21.6743 13.0315 21.5244 12.4104 21.5244 11.7805C21.5244 10.5814 22.0291 9.45864 22.9469 8.61907ZM12.2868 2.14921C12.3124 2.89912 12.5184 3.52547 12.688 3.92492C12.6211 3.96518 12.554 4.00514 12.4894 4.0508C12.3472 4.15135 12.2036 4.24847 12.0602 4.34607C11.6636 3.65153 11.463 2.98812 11.4843 2.42479L12.2868 2.14921ZM11.6313 8.51756C11.129 7.27008 11.4292 5.93958 12.4177 5.27884C12.6307 5.13654 12.8408 4.99187 13.05 4.84388C13.5362 4.50046 14.1187 4.38046 14.6831 4.50473C15.2324 4.62521 15.7267 4.95629 16.1057 5.45102C15.6218 5.75222 15.0384 5.85373 14.483 5.72328C14.2785 5.67633 14.0656 5.76455 13.9565 5.9448C13.8474 6.12504 13.8668 6.35509 14.0048 6.51447C14.5209 7.10975 14.7529 7.91137 14.6623 8.73149C14.0414 8.44736 13.5618 7.91991 13.3123 7.22928C13.2426 7.03623 13.0595 6.90864 12.8555 6.90864C12.8498 6.90864 12.8446 6.90864 12.8389 6.90911C12.6283 6.91623 12.4462 7.05852 12.3883 7.26106C12.2745 7.66063 12.105 7.99426 11.883 8.26137C11.881 8.26368 11.8798 8.26641 11.8778 8.26878C11.8017 8.35949 11.7197 8.44262 11.6313 8.51756ZM12.8016 8.64344C12.8344 8.59583 12.8709 8.55231 12.9015 8.50239C13.3958 9.17214 14.1054 9.65074 14.9227 9.84142C14.9601 9.84996 14.9971 9.85423 15.0337 9.85423C15.2476 9.85423 15.4425 9.71193 15.5014 9.49706C15.7632 8.54555 15.6816 7.56701 15.2926 6.73313C15.379 6.72388 15.4631 6.70147 15.5484 6.68505C15.82 7.07453 16.1069 7.46295 16.4144 7.84117L18.7164 10.6952L19.7466 11.8796C20.156 12.3576 20.4132 12.9566 20.5071 13.5995H14.4809C14.0698 11.8184 13.5185 10.1883 12.8016 8.64344ZM6.39895 3.22926C6.47485 3.63908 6.43785 4.06313 6.28606 4.46299C6.20326 4.68171 6.08133 4.87803 5.93909 5.05916C5.92388 4.71901 5.85368 4.38638 5.73744 4.07113C5.89184 3.73952 6.11492 3.45077 6.39895 3.22926ZM3.97655 3.3042C4.32598 3.54552 4.59502 3.87553 4.76492 4.25049C4.76729 4.25606 4.76924 4.2614 4.77185 4.26697C4.93793 4.6411 5.00605 5.05893 4.95557 5.47806C4.6083 5.23828 4.3408 4.91052 4.17076 4.53847C4.16821 4.53248 4.16521 4.52702 4.16243 4.52109C3.99448 4.14554 3.9258 3.72546 3.97655 3.3042ZM2.31544 5.06776C2.66995 5.00331 3.03263 5.02697 3.38215 5.13049C3.54387 5.43264 3.74774 5.70449 3.9893 5.93786C3.76073 5.92375 3.53281 5.88468 3.31343 5.80107C2.91405 5.64976 2.57206 5.39647 2.31544 5.06776ZM5.47629 12.6638C5.68992 12.5388 5.91938 12.4546 6.17317 12.4137C6.43785 12.371 6.61809 12.122 6.57541 11.8569C6.53272 11.5922 6.28322 11.4105 6.01854 11.4546C5.62393 11.5181 5.25712 11.6545 4.92322 11.8604C4.43451 11.1361 4.13201 10.6429 4.03537 10.4329C3.72183 9.73327 3.69859 8.95205 3.97086 8.23439C4.24312 7.51625 4.77769 6.94848 5.47733 6.63447C6.17649 6.31952 6.95629 6.2958 7.67301 6.56664C8.33253 6.81662 8.85658 7.29587 9.18313 7.91351C8.87929 8.02776 8.59427 8.1853 8.33659 8.39661C8.12884 8.5669 8.09895 8.87284 8.26876 9.08012C8.36505 9.19728 8.50403 9.25799 8.64491 9.25799C8.75306 9.25799 8.86215 9.22194 8.95227 9.14795C9.1287 9.00316 9.31863 8.89756 9.52263 8.82102C9.82068 9.85695 10.2503 11.6856 10.6395 13.5995H6.1432C5.90132 13.2649 5.67785 12.9514 5.47629 12.6638ZM26.0984 31.0815C25.9556 31.6559 25.4419 32.0567 24.8499 32.0567H9.1496C8.55763 32.0567 8.04393 31.6559 7.90116 31.0815L4.66955 18.1327H29.33L26.0984 31.0815ZM30.7615 17.1613H29.9518H4.0477H3.23802C2.52367 17.1613 1.94262 16.5802 1.94262 15.8664C1.94262 15.152 2.52367 14.571 3.23802 14.571H21.0387H21.0434H30.7615C31.4759 14.571 32.0569 15.152 32.0569 15.8664C32.0569 16.5802 31.4759 17.1613 30.7615 17.1613Z" stroke="#9F581F" stroke-width="0.2" mask="url(#path-1-outside-1_2_14848)"/>
<path d="M21.7073 30.008C21.7296 30.0109 21.7514 30.0123 21.7733 30.0123C22.0128 30.0123 22.221 29.8354 22.2542 29.592L23.4576 20.7278C23.4937 20.4617 23.3073 20.2169 23.0416 20.1809C22.7741 20.15 22.5308 20.3312 22.4947 20.5968L21.2913 29.4611C21.2553 29.7272 21.4417 29.972 21.7073 30.008ZM17.0001 30.0123C17.2686 30.0123 17.4858 29.7951 17.4858 29.5266V20.6623C17.4858 20.3938 17.2686 20.1766 17.0001 20.1766C16.7316 20.1766 16.5144 20.3938 16.5144 20.6623V29.5266C16.5144 29.7951 16.7316 30.0123 17.0001 30.0123ZM12.2269 30.0123C12.2487 30.0123 12.2705 30.0109 12.2928 30.008C12.5585 29.972 12.7449 29.7272 12.7088 29.4611L11.5054 20.5968C11.4694 20.3312 11.2265 20.1505 10.9585 20.1809C10.6929 20.2169 10.5065 20.4617 10.5425 20.7278L11.7459 29.592C11.7791 29.8354 11.9874 30.0123 12.2269 30.0123ZM22.4079 12.6646C22.6764 12.6646 22.8936 12.4474 22.8936 12.1789C22.8936 11.1676 23.4401 10.2351 24.3555 9.68345C24.5856 9.54494 24.6596 9.24659 24.5211 9.01701C24.3826 8.78696 24.0837 8.71202 23.8546 8.85147C22.6446 9.58004 21.9222 10.8237 21.9222 12.1789C21.9222 12.4474 22.1395 12.6646 22.4079 12.6646Z" fill="#9F581F"/>
</g>
<defs>
<clipPath id="clip0_2_14848">
<rect width="34" height="34" fill="white"/>
</clipPath>
</defs>
</svg>
