<svg width="29" height="29" viewBox="0 0 29 29" fill="none" xmlns="http://www.w3.org/2000/svg">
<path d="M3.29492 1.73353C3.29492 1.44886 3.40504 1.17584 3.60105 0.974541C3.79707 0.773244 4.06292 0.660156 4.34012 0.660156H5.11776C6.44168 0.660156 7.23603 1.57467 7.68895 2.42479C7.99137 2.99153 8.21016 3.64844 8.38158 4.2438C8.42794 4.24004 8.47443 4.23813 8.52094 4.23808H25.9382C27.0949 4.23808 27.9311 5.37443 27.6133 6.51793L25.0658 15.6903C24.8374 16.513 24.3542 17.2369 23.6893 17.7523C23.0245 18.2678 22.2142 18.5467 21.3811 18.5469H13.092C12.2523 18.5469 11.4359 18.2638 10.7682 17.741C10.1004 17.2182 9.6184 16.4846 9.39612 15.6531L8.33698 11.6859L6.58104 5.60628L6.57965 5.59483C6.36224 4.78335 6.15878 4.0234 5.85497 3.45666C5.56371 2.90566 5.32958 2.80691 5.11915 2.80691H4.34012C4.06292 2.80691 3.79707 2.69382 3.60105 2.49252C3.40504 2.29123 3.29492 2.01821 3.29492 1.73353ZM23.5011 13.5L22.8054 16.4002C23.0144 17.1758 12.3074 16.4002 13.092 16.4002H21.3811C21.7598 16.4001 22.1281 16.2734 22.4304 16.0392C22.7326 15.805 22.9523 15.476 23.0562 15.1021L25.4769 6.38483L24.6119 9.5L24.1495 11.1649L23.5011 13.5ZM15.1406 22.8433C15.1406 23.6024 14.8469 24.3305 14.3242 24.8673C13.8015 25.404 13.0926 25.7056 12.3533 25.7056C11.6141 25.7056 10.9052 25.404 10.3825 24.8673C9.85979 24.3305 9.56614 23.6024 9.56614 22.8433C9.56614 22.0841 9.85979 21.3561 10.3825 20.8193C10.9052 20.2825 11.6141 19.9809 12.3533 19.9809C13.0926 19.9809 13.8015 20.2825 14.3242 20.8193C14.8469 21.3561 15.1406 22.0841 15.1406 22.8433ZM13.0501 22.8433C13.0501 22.6535 12.9767 22.4715 12.8461 22.3373C12.7154 22.2031 12.5382 22.1277 12.3533 22.1277C12.1685 22.1277 11.9913 22.2031 11.8606 22.3373C11.73 22.4715 11.6565 22.6535 11.6565 22.8433C11.6565 23.0331 11.73 23.2151 11.8606 23.3493C11.9913 23.4835 12.1685 23.5589 12.3533 23.5589C12.5382 23.5589 12.7154 23.4835 12.8461 23.3493C12.9767 23.2151 13.0501 23.0331 13.0501 22.8433ZM24.8958 22.8433C24.8958 23.6024 24.6021 24.3305 24.0794 24.8673C23.5567 25.404 22.8478 25.7056 22.1086 25.7056C21.3694 25.7056 20.6604 25.404 20.1377 24.8673C19.615 24.3305 19.3214 23.6024 19.3214 22.8433C19.3214 22.0841 19.615 21.3561 20.1377 20.8193C20.6604 20.2825 21.3694 19.9809 22.1086 19.9809C22.8478 19.9809 23.5567 20.2825 24.0794 20.8193C24.6021 21.3561 24.8958 22.0841 24.8958 22.8433ZM22.8054 22.8433C22.8054 22.6535 22.732 22.4715 22.6013 22.3373C22.4706 22.2031 22.2934 22.1277 22.1086 22.1277C21.9238 22.1277 21.7465 22.2031 21.6159 22.3373C21.4852 22.4715 21.4118 22.6535 21.4118 22.8433C21.4118 23.0331 21.4852 23.2151 21.6159 23.3493C21.7465 23.4835 21.9238 23.5589 22.1086 23.5589C22.2934 23.5589 22.4706 23.4835 22.6013 23.3493C22.732 23.2151 22.8054 23.0331 22.8054 22.8433Z" fill="#034703" fill-opacity="0.75"/>
</svg>
