<svg width="29" height="29" viewBox="0 0 29 29" fill="none" xmlns="http://www.w3.org/2000/svg">
<path d="M7.5571 2.49443L7.55706 2.49434C7.11421 1.66314 6.35948 0.80918 5.11824 0.80918H4.34061C4.1045 0.80918 3.87722 0.905467 3.70901 1.07821C3.54067 1.25109 3.44541 1.48639 3.44541 1.73256C3.44541 1.97872 3.54067 2.21402 3.70901 2.3869C3.87722 2.55965 4.1045 2.65593 4.34061 2.65593H5.11964C5.25361 2.65593 5.3981 2.68907 5.54888 2.80543C5.69396 2.91739 5.83739 3.10061 5.98787 3.3852C6.29952 3.96674 6.50652 4.73941 6.72087 5.53954L6.72502 5.55503L6.72776 5.56524L6.72898 5.57523L8.48158 11.6433L8.48242 11.6462L8.48239 11.6462L9.54152 15.6134C9.75553 16.414 10.2194 17.1195 10.8611 17.6219C11.5027 18.1243 12.2867 18.396 13.0924 18.3959H21.3816C21.3816 18.3959 21.3816 18.3959 21.3816 18.3959C22.181 18.3957 22.9591 18.1281 23.5979 17.6328C24.2368 17.1375 24.7019 16.4413 24.9218 15.6492L24.9218 15.6492L27.4693 6.47681L27.4693 6.4768C27.7619 5.42375 26.9909 4.3871 25.9387 4.3871L8.52161 4.3871L8.52142 4.3871M7.5571 2.49443L8.38206 4.24283C8.42843 4.23907 8.47492 4.23716 8.52142 4.2371V4.3871M7.5571 2.49443C7.85197 3.04702 8.06732 3.6918 8.23792 4.28433L8.27187 4.40225L8.39419 4.39234C8.43652 4.3889 8.47896 4.38716 8.52142 4.3871M7.5571 2.49443L8.52142 4.3871M25.0663 15.6893L27.6138 6.51695L25.0663 15.6893ZM25.0663 15.6893C24.8379 16.512 24.3547 17.2359 23.6898 17.7514C23.0249 18.2668 22.2146 18.5457 21.3816 18.5459H13.0924C12.2528 18.546 11.4364 18.2628 10.7686 17.74C10.1009 17.2172 9.61889 16.4836 9.39661 15.6521L8.33747 11.6849M25.0663 15.6893L8.33747 11.6849M8.33747 11.6849L6.58153 5.6053L8.33747 11.6849ZM10.2199 11.2013L10.2202 11.2027L11.2668 15.1226L11.2669 15.123C11.4929 15.9615 12.2373 16.5492 13.0924 16.5492H21.3816C21.7939 16.5492 22.1945 16.4112 22.5227 16.1568C22.8509 15.9025 23.0888 15.5458 23.2012 15.1413L23.2012 15.1412L25.6219 6.42399L25.6747 6.23385H25.4774H8.98828H8.78888L8.84416 6.42544L10.2009 11.1276L10.2199 11.2013ZM14.991 22.8423C14.991 23.5629 14.7123 24.2533 14.2172 24.7616C13.7223 25.2699 13.052 25.5546 12.3538 25.5546C11.6557 25.5546 10.9853 25.2699 10.4904 24.7616C9.99542 24.2533 9.71663 23.5629 9.71663 22.8423C9.71663 22.1217 9.99542 21.4313 10.4904 20.923C10.9853 20.4147 11.6557 20.13 12.3538 20.13C13.052 20.13 13.7223 20.4147 14.2172 20.923C14.7123 21.4313 14.991 22.1217 14.991 22.8423ZM13.2006 22.8423C13.2006 22.614 13.1124 22.3943 12.954 22.2317C12.7955 22.0689 12.5797 21.9767 12.3538 21.9767C12.1279 21.9767 11.9121 22.0689 11.7537 22.2317C11.5953 22.3943 11.507 22.614 11.507 22.8423C11.507 23.0706 11.5953 23.2903 11.7537 23.4529C11.9121 23.6157 12.1279 23.7079 12.3538 23.7079C12.5797 23.7079 12.7955 23.6157 12.954 23.4529C13.1124 23.2903 13.2006 23.0706 13.2006 22.8423ZM24.7463 22.8423C24.7463 23.5629 24.4675 24.2533 23.9724 24.7616C23.4776 25.2699 22.8072 25.5546 22.1091 25.5546C21.4109 25.5546 20.7406 25.2699 20.2457 24.7616C19.7506 24.2533 19.4719 23.5629 19.4719 22.8423C19.4719 22.1217 19.7506 21.4313 20.2457 20.923C20.7406 20.4147 21.4109 20.13 22.1091 20.13C22.8072 20.13 23.4776 20.4147 23.9724 20.923C24.4675 21.4313 24.7463 22.1217 24.7463 22.8423ZM22.9559 22.8423C22.9559 22.614 22.8676 22.3943 22.7092 22.2317C22.5508 22.0689 22.335 21.9767 22.1091 21.9767C21.8832 21.9767 21.6674 22.0689 21.5089 22.2317C21.3505 22.3943 21.2623 22.614 21.2623 22.8423C21.2623 23.0706 21.3505 23.2903 21.5089 23.4529C21.6674 23.6157 21.8832 23.7079 22.1091 23.7079C22.335 23.7079 22.5508 23.6157 22.7092 23.4529C22.8676 23.2903 22.9559 23.0706 22.9559 22.8423Z" fill="#034703" fill-opacity="0.75" stroke="white" stroke-width="0.3"/>
</svg>
