<svg width="26" height="26" viewBox="0 0 26 26" fill="none" xmlns="http://www.w3.org/2000/svg">
<path d="M6.34558 10.6052L6.03223 10.2919L15.3544 1.04808C15.3544 0.969742 15.4327 0.969742 15.511 0.969742C16.0594 0.421382 16.8428 0.421382 17.3911 0.969742C17.4695 1.04808 17.4695 1.04808 17.5478 1.12642L24.2064 7.78508C24.8331 8.41177 24.8331 9.35182 24.2064 9.97852L23.4231 10.6836" fill="#034703" fill-opacity="0.5"/>
<path d="M7.99072 10.6056L15.9811 2.6152C16.1378 2.69354 16.2945 2.69354 16.4511 2.69354C16.6078 2.69354 16.7645 2.6152 16.9212 2.53687L22.5614 8.17714C22.4831 8.33382 22.4831 8.49049 22.4831 8.64716C22.4831 8.80384 22.5614 8.96051 22.5614 9.11719L21.2297 10.4489" fill="#034703" fill-opacity="0.5"/>
<path d="M16.6859 10.6054C16.6859 10.527 16.6859 10.4487 16.6859 10.3704C16.6859 9.27364 15.8242 8.41193 14.7275 8.41193C13.6308 8.41193 12.769 9.27364 12.769 10.3704C12.769 10.4487 12.769 10.527 12.769 10.6054" fill="#E1D17B"/>
<path d="M1.95834 10.6053H23.1094C23.9711 10.6053 24.6761 11.3103 24.6761 12.172V23.1392C24.6761 24.0009 23.9711 24.706 23.1094 24.706H1.95834C1.09664 24.706 0.391602 24.0009 0.391602 23.1392V12.172C0.391602 11.3103 1.09664 10.6053 1.95834 10.6053Z" fill="#B28966"/>
<path d="M16.8423 15.3055H24.676V20.0057H16.8423C15.5106 20.0057 14.4922 18.9873 14.4922 17.6556C14.4922 16.3239 15.5106 15.3055 16.8423 15.3055Z" fill="#8B6847"/>
<path d="M16.8425 18.4388C17.2751 18.4388 17.6258 18.088 17.6258 17.6554C17.6258 17.2227 17.2751 16.872 16.8425 16.872C16.4098 16.872 16.0591 17.2227 16.0591 17.6554C16.0591 18.088 16.4098 18.4388 16.8425 18.4388Z" fill="white"/>
<path d="M7.44193 22.3555C10.0378 22.3555 12.1422 20.2512 12.1422 17.6553C12.1422 15.0594 10.0378 12.9551 7.44193 12.9551C4.84606 12.9551 2.7417 15.0594 2.7417 17.6553C2.7417 20.2512 4.84606 22.3555 7.44193 22.3555Z" fill="#E1D17B"/>
<path d="M7.59871 15.6189C8.06873 15.6189 8.38208 15.9323 8.38208 16.4023C8.38208 16.6373 8.53875 16.794 8.77376 16.794C9.00877 16.794 9.16545 16.6373 9.16545 16.4023C9.16545 15.6972 8.69543 15.0705 7.99039 14.9139V14.4438C7.99039 14.2088 7.83372 14.0522 7.59871 14.0522C7.36369 14.0522 7.20702 14.2088 7.20702 14.4438V14.9139C6.34531 15.1489 5.87529 16.0106 6.1103 16.794C6.26697 17.499 6.89367 17.969 7.59871 17.969C8.06873 17.969 8.38208 18.2824 8.38208 18.7524C8.38208 19.2224 8.06873 19.5358 7.59871 19.5358C7.12868 19.5358 6.81533 19.2224 6.81533 18.7524C6.81533 18.5174 6.65866 18.3607 6.42365 18.3607C6.18864 18.3607 6.03196 18.5174 6.03196 18.7524C6.03196 19.4574 6.50199 20.0841 7.20702 20.2408V20.7108C7.20702 20.9458 7.36369 21.1025 7.59871 21.1025C7.83372 21.1025 7.99039 20.9458 7.99039 20.7108V20.2408C8.8521 20.0058 9.32212 19.1441 9.08711 18.3607C8.93044 17.6557 8.30374 17.1856 7.59871 17.1856C7.12868 17.1856 6.81533 16.8723 6.81533 16.4023C6.81533 15.9323 7.20702 15.6189 7.59871 15.6189ZM24.1278 10.4487L24.4412 10.1353C24.8329 9.74362 24.9896 9.27359 24.9896 8.72523C24.9896 8.17687 24.7545 7.70685 24.4412 7.31516L17.7825 0.656505C17.7042 0.578168 17.7042 0.578168 17.6259 0.499831C16.9992 -0.126867 15.9024 -0.205204 15.1974 0.499831C15.1191 0.578168 15.0407 0.578168 15.0407 0.656505L5.64028 10.1353H1.95843C0.861709 10.1353 0 10.997 0 12.0937V23.0609C0 24.1577 0.861709 25.0194 1.95843 25.0194H23.1095C24.2062 25.0194 25.0679 24.1577 25.0679 23.0609V12.0937C25.0679 11.467 24.7545 10.8403 24.1278 10.4487ZM15.6674 1.2832C15.7458 1.20487 15.8241 1.12653 15.8241 1.12653C16.2158 0.734842 16.8425 0.734842 17.2342 1.12653C17.3125 1.12653 17.3125 1.20487 17.3125 1.20487L23.9712 7.86352C24.2062 8.09854 24.2845 8.41188 24.2845 8.72523C24.2845 9.03858 24.1278 9.35193 23.9712 9.58694L23.3445 10.2136C23.2661 10.2136 23.1878 10.2136 23.1095 10.2136H22.2478L22.8745 9.58694C23.0311 9.43027 23.0311 9.27359 22.9528 9.11692C22.8745 9.03858 22.8745 8.88191 22.8745 8.80357C22.8745 8.6469 22.8745 8.56856 22.9528 8.49022C23.0311 8.33355 23.0311 8.17687 22.8745 8.0202L17.2342 2.30159C17.0775 2.14491 16.9208 2.14491 16.7642 2.22325C16.5291 2.30159 16.2941 2.30159 16.1375 2.22325C15.9808 2.14491 15.8241 2.22325 15.6674 2.30159L7.83372 10.1353H6.737L15.6674 1.2832ZM22.1694 9.19526L21.151 10.1353H17.0775C16.9992 8.88191 15.9024 7.86352 14.5707 7.94186C13.3957 8.0202 12.4556 8.96024 12.3773 10.1353H8.93044L16.0591 3.00662C16.2941 3.08496 16.6075 3.08496 16.8425 3.00662L22.1694 8.33355C22.1694 8.49022 22.0911 8.56856 22.0911 8.72523C22.0911 8.88191 22.0911 9.03858 22.1694 9.19526ZM16.2941 10.1353H13.1606C13.239 9.27359 14.0224 8.6469 14.8841 8.72523C15.5891 8.80357 16.2158 9.43027 16.2941 10.1353ZM24.2845 19.5358H16.8425C16.2158 19.5358 15.6674 19.3007 15.2757 18.8307C14.9624 18.5174 14.8841 18.0474 14.8841 17.5773C14.8841 17.499 14.8841 17.4207 14.8841 17.3423C14.9624 16.4023 15.6674 15.6972 16.6075 15.6189C16.6858 15.6189 16.7642 15.6189 16.8425 15.6189H24.2845V19.5358ZM24.2845 14.8355H16.8425C16.7642 14.8355 16.6075 14.8355 16.5291 14.8355C15.2757 14.9922 14.2574 16.0106 14.1007 17.264C14.1007 17.3423 14.1007 17.4207 14.1007 17.5773C14.1007 18.204 14.3357 18.8307 14.7274 19.3007C15.2757 19.9274 16.0591 20.3191 16.8425 20.3191H24.2845V23.0609C24.2845 23.6876 23.7362 24.236 23.1095 24.236H1.95843C1.33173 24.236 0.783372 23.6876 0.783372 23.0609V12.0937C0.783372 11.467 1.33173 10.9187 1.95843 10.9187H23.1095C23.1878 10.9187 23.2661 10.9187 23.3445 10.9187C23.8928 11.0753 24.2062 11.5454 24.2062 12.0937V14.8355H24.2845ZM15.6674 17.5773C15.6674 18.204 16.2158 18.7524 16.8425 18.7524C17.4692 18.7524 18.0175 18.204 18.0175 17.5773C18.0175 16.9506 17.4692 16.4023 16.8425 16.4023C16.2158 16.4023 15.6674 16.9506 15.6674 17.5773ZM17.2342 17.5773C17.2342 17.8123 17.0775 17.969 16.8425 17.969C16.6075 17.969 16.4508 17.8123 16.4508 17.5773C16.4508 17.3423 16.6075 17.1856 16.8425 17.1856C17.0775 17.1856 17.2342 17.4207 17.2342 17.5773ZM7.44203 12.4854C4.62189 12.4854 2.35012 14.7572 2.35012 17.5773C2.35012 20.3975 4.62189 22.6692 7.44203 22.6692C10.2622 22.6692 12.5339 20.3975 12.5339 17.5773C12.5339 14.8355 10.2622 12.4854 7.44203 12.4854ZM7.44203 21.8859C5.09192 21.8859 3.13349 19.9274 3.13349 17.5773C3.13349 15.2272 5.09192 13.2688 7.44203 13.2688C9.79215 13.2688 11.7506 15.2272 11.7506 17.5773C11.7506 20.0058 9.79215 21.8859 7.44203 21.8859Z" fill="#404040"/>
</svg>
