<svg width="74" height="68" viewBox="0 0 74 68" fill="none" xmlns="http://www.w3.org/2000/svg">
<g clip-path="url(#clip0_2091_26814)">
<path d="M74.002 34C74.002 52.7774 57.4362 68 37.002 68C16.5697 68 0.00195312 52.7774 0.00195312 34C0.00195312 15.2244 16.5697 0 37.002 0C57.4362 0 74.002 15.2244 74.002 34Z" fill="#FFCC4D"/>
<path d="M23.6389 37.773C26.477 37.773 28.7778 34.8131 28.7778 31.1619C28.7778 27.5106 26.477 24.5507 23.6389 24.5507C20.8008 24.5507 18.5 27.5106 18.5 31.1619C18.5 34.8131 20.8008 37.773 23.6389 37.773Z" fill="#664500"/>
<path d="M50.3615 37.773C53.1997 37.773 55.5004 34.8131 55.5004 31.1619C55.5004 27.5107 53.1997 24.5508 50.3615 24.5508C47.5234 24.5508 45.2227 27.5107 45.2227 31.1619C45.2227 34.8131 47.5234 37.773 50.3615 37.773Z" fill="#664500"/>
<path d="M12.3308 22.6693C11.9493 22.6689 11.5753 22.571 11.2509 22.3864C10.9265 22.2019 10.6644 21.938 10.4939 21.6243C10.3234 21.3106 10.2513 20.9595 10.2857 20.6103C10.3201 20.2611 10.4595 19.9276 10.6885 19.6471C17.3937 11.4304 26.3436 11.3359 26.7218 11.3359C26.9917 11.3354 27.2591 11.3838 27.5087 11.4783C27.7583 11.5727 27.9852 11.7115 28.1765 11.8865C28.3677 12.0616 28.5196 12.2695 28.6234 12.4985C28.7272 12.7275 28.7809 12.973 28.7815 13.2211C28.782 13.4691 28.7294 13.7148 28.6266 13.9442C28.5238 14.1735 28.3728 14.3821 28.1823 14.5578C27.9918 14.7336 27.7655 14.8731 27.5163 14.9685C27.2671 15.0639 27 15.1132 26.73 15.1137C26.4114 15.1175 19.3958 15.2762 13.9773 21.9137C13.7859 22.1488 13.5373 22.3395 13.2515 22.4707C12.9656 22.6019 12.6504 22.6699 12.3308 22.6693ZM61.6683 22.6693C61.3488 22.6699 61.0335 22.6019 60.7477 22.4707C60.4618 22.3395 60.2132 22.1488 60.0218 21.9137C54.5951 15.2629 47.5631 15.1175 47.265 15.1137C46.7216 15.1082 46.2026 14.9056 45.821 14.5501C45.4395 14.1945 45.2263 13.7148 45.228 13.2154C45.229 12.7166 45.4454 12.2385 45.8297 11.8862C46.2139 11.5338 46.7345 11.3359 47.2773 11.3359C47.6556 11.3359 56.6034 11.4304 63.3107 19.6471C63.5396 19.9276 63.6791 20.2611 63.7134 20.6103C63.7478 20.9595 63.6757 21.3106 63.5052 21.6243C63.3348 21.938 63.0726 22.2019 62.7482 22.3864C62.4238 22.571 62.0499 22.6689 61.6683 22.6693ZM48.2743 52.6629C48.2517 52.5798 45.9207 44.3915 36.9996 44.3915C28.0785 44.3915 25.7475 52.5798 25.7248 52.6629C25.6737 52.8586 25.6925 53.0641 25.7784 53.2492C25.8643 53.4342 26.0127 53.589 26.2017 53.6905C26.3928 53.7928 26.6143 53.8369 26.8343 53.8165C27.0543 53.7962 27.2618 53.7124 27.4268 53.5772C27.4453 53.5621 29.5091 51.947 36.9996 51.947C44.379 51.947 46.4901 53.5148 46.5702 53.5772C46.7316 53.7177 46.9383 53.8063 47.1592 53.8297C47.3801 53.8532 47.6033 53.8102 47.7953 53.7071C47.9873 53.6041 48.1378 53.4467 48.2241 53.2584C48.3105 53.0701 48.3281 52.8612 48.2743 52.6629Z" fill="#664500"/>
</g>
<defs>
<clipPath id="clip0_2091_26814">
<rect width="74" height="68" fill="white"/>
</clipPath>
</defs>
</svg>
