<svg width="49" height="44" viewBox="0 0 49 44" fill="none" xmlns="http://www.w3.org/2000/svg">
<path d="M3.07031 41.3497L0.820548 40.6004C0.551833 41.4073 0.73578 42.2963 1.30263 42.9302C1.86948 43.5642 2.73243 43.8461 3.56421 43.6689L3.07031 41.3497ZM6.15294 32.0936L8.4027 32.8429C8.63546 32.144 8.53019 31.3766 8.11782 30.7662L6.15294 32.0936ZM11.1326 7.47243L9.75988 5.53889L9.75952 5.53915L11.1326 7.47243ZM39.22 8.61164L40.7598 6.80837L40.7595 6.80809L39.22 8.61164ZM14.2152 38.9763L15.2515 36.8435C14.7765 36.6127 14.2379 36.5471 13.7213 36.6571L14.2152 38.9763ZM5.32008 42.099L8.4027 32.8429L3.90317 31.3444L0.820548 40.6004L5.32008 42.099ZM8.11782 30.7662C3.37707 23.7488 5.1218 14.6498 12.5056 9.4057L9.75952 5.53915C0.421274 12.1713 -2.09277 24.124 4.18805 33.421L8.11782 30.7662ZM12.5052 9.40596C19.9938 4.08962 30.8008 4.5427 37.6805 10.4152L40.7595 6.80809C32.2024 -0.496292 18.9934 -1.01629 9.75988 5.53889L12.5052 9.40596ZM37.6802 10.4149C44.4492 16.195 45.3013 25.3814 39.8295 32.027L43.4906 35.0415C50.6623 26.3315 49.4277 14.2099 40.7598 6.80837L37.6802 10.4149ZM39.8295 32.027C34.2524 38.8004 23.7239 40.9603 15.2515 36.8435L13.1788 41.1091C23.482 46.1155 36.4242 43.6237 43.4906 35.0415L39.8295 32.027ZM13.7213 36.6571L2.57642 39.0305L3.56421 43.6689L14.7091 41.2956L13.7213 36.6571Z" fill="#034703" fill-opacity="0.75"/>
</svg>
