<svg width="27" height="25" viewBox="0 0 27 25" fill="none" xmlns="http://www.w3.org/2000/svg">
<path d="M26.3376 11.1865C26.5888 10.4118 26.6663 9.59132 26.5646 8.78332C26.4629 7.97531 26.1846 7.1996 25.7494 6.51127C25.3141 5.82295 24.7327 5.2389 24.0463 4.80061C23.3599 4.36232 22.5855 4.08053 21.7779 3.97527C21.9339 3.47599 22.2101 3.02265 22.5822 2.65506C22.6342 2.60349 22.6755 2.54214 22.7037 2.47454C22.7318 2.40694 22.7463 2.33444 22.7463 2.26121C22.7463 2.18798 22.7318 2.11548 22.7037 2.04788C22.6755 1.98029 22.6342 1.91893 22.5822 1.86737C21.8556 1.14624 20.8682 2.97679 20.6408 3.95308C19.8154 4.01833 19.0153 4.26863 18.2999 4.6854C17.5844 5.10217 16.9721 5.67471 16.5082 6.36052C16.2375 6.28327 15.9611 6.22762 15.6817 6.19411C15.8335 5.69425 16.1081 5.24037 16.4804 4.8739C16.5324 4.82233 16.5737 4.76098 16.6019 4.69338C16.63 4.62578 16.6445 4.55328 16.6445 4.48005C16.6445 4.40682 16.63 4.33432 16.6019 4.26672C16.5737 4.19913 16.5324 4.13777 16.4804 4.08621C15.7593 3.36508 14.7719 5.19563 14.5389 6.16637C13.3372 6.26028 12.1993 6.74545 11.2994 7.5476C10.839 6.28841 11.5213 4.77405 9.75735 3.20977C9.19598 2.7156 8.50502 2.39226 7.76594 2.27785V1.9062C7.76836 1.55235 7.90982 1.21365 8.15978 0.96319C8.21178 0.911622 8.25304 0.850271 8.28121 0.782674C8.30937 0.715078 8.32387 0.642574 8.32387 0.569346C8.32387 0.496117 8.30937 0.423614 8.28121 0.356017C8.25304 0.288421 8.21178 0.227069 8.15978 0.175502C7.47749 -0.501244 6.65652 0.929907 6.65652 1.9062V2.27231C5.82201 2.39799 5.05043 2.78989 4.45669 3.38962C3.86296 3.98936 3.47884 4.76484 3.36154 5.60056C3.25615 6.44372 3.58343 7.58088 2.57385 8.55162C1.84364 9.2685 1.28761 10.1433 0.948554 11.1088H0.55471C0.407592 11.1088 0.266499 11.1673 0.162471 11.2713C0.0584425 11.3753 0 11.5164 0 11.6635L0 14.9918C0 15.0528 0 15.5465 0.698935 15.5465L2.86785 22.4748C3.04395 23.0389 3.3956 23.532 3.87156 23.8822C4.34751 24.2325 4.92289 24.4215 5.51382 24.4219H21.1123C21.7032 24.4215 22.2786 24.2325 22.7545 23.8822C23.2305 23.532 23.5821 23.0389 23.7582 22.4748C26.1601 14.7866 25.8606 15.5465 26.0714 15.5465C26.2185 15.5465 26.3596 15.4881 26.4636 15.384C26.5676 15.28 26.6261 15.1389 26.6261 14.9918C26.6261 11.3862 26.7259 11.4028 26.3376 11.1865ZM1.10942 12.2183H25.5167V14.4371H1.10942V12.2183ZM20.5243 5.04586V5.56174C20.5243 5.70885 20.5827 5.84995 20.6867 5.95397C20.7908 6.058 20.9319 6.11645 21.079 6.11645C21.2261 6.11645 21.3672 6.058 21.4712 5.95397C21.5752 5.84995 21.6337 5.70885 21.6337 5.56174V5.04586C22.3067 5.13222 22.951 5.37177 23.517 5.7461C24.0829 6.12043 24.5555 6.61956 24.8984 7.20511C25.2412 7.79067 25.4453 8.44705 25.4947 9.1238C25.5442 9.80055 25.4379 10.4796 25.1838 11.1088H16.9741C16.7201 10.4796 16.6137 9.80055 16.6632 9.1238C16.7127 8.44705 16.9167 7.79067 17.2596 7.20511C17.6025 6.61956 18.075 6.12043 18.641 5.7461C19.207 5.37177 19.8512 5.13222 20.5243 5.04586ZM14.4225 7.26469V7.78058C14.4225 7.92769 14.4809 8.06879 14.5849 8.17282C14.689 8.27684 14.8301 8.33529 14.9772 8.33529C15.1243 8.33529 15.2654 8.27684 15.3694 8.17282C15.4734 8.06879 15.5319 7.92769 15.5319 7.78058V7.26469C15.6737 7.28017 15.8145 7.30425 15.9535 7.33681C15.4523 8.53511 15.3971 9.87338 15.7981 11.1088H10.5783C10.7021 10.1325 11.147 9.22508 11.8428 8.5292C12.5387 7.83333 13.4462 7.3885 14.4225 7.26469ZM3.32826 9.34486C4.6873 8.02465 4.36002 6.34388 4.43768 5.7337C4.50622 5.23897 4.70708 4.77193 5.01904 4.38189C5.33101 3.99186 5.74251 3.6933 6.21009 3.51774C6.67768 3.34219 7.18399 3.29615 7.67556 3.38449C8.16714 3.47283 8.62574 3.69227 9.00294 4.01964C10.5118 5.32876 9.50773 6.55467 10.4618 8.41849C9.89681 9.2116 9.55053 10.1395 9.4578 11.1088H2.12454C2.40774 10.4484 2.81655 9.84933 3.32826 9.34486ZM22.6987 22.1476C22.5925 22.4852 22.3815 22.7802 22.0962 22.9897C21.8109 23.1992 21.4662 23.3122 21.1123 23.3125H5.51382C5.15917 23.3119 4.81399 23.198 4.5286 22.9875C4.24322 22.7769 4.03256 22.4807 3.92735 22.142L1.86383 15.5465H24.7623L22.6987 22.1476Z" fill="#034703" fill-opacity="0.75"/>
<path d="M4.43801 18.3199H6.65685C6.80397 18.3199 6.94506 18.2614 7.04909 18.1574C7.15312 18.0534 7.21156 17.9123 7.21156 17.7652C7.21156 17.6181 7.15312 17.477 7.04909 17.3729C6.94506 17.2689 6.80397 17.2105 6.65685 17.2105H4.43801C4.29089 17.2105 4.1498 17.2689 4.04577 17.3729C3.94174 17.477 3.8833 17.6181 3.8833 17.7652C3.8833 17.9123 3.94174 18.0534 4.04577 18.1574C4.1498 18.2614 4.29089 18.3199 4.43801 18.3199ZM9.4304 18.3199V17.2105C9.4304 17.0634 9.37196 16.9223 9.26793 16.8182C9.1639 16.7142 9.02281 16.6558 8.87569 16.6558C8.72857 16.6558 8.58748 16.7142 8.48345 16.8182C8.37942 16.9223 8.32098 17.0634 8.32098 17.2105V18.3199C8.32098 18.467 8.37942 18.6081 8.48345 18.7121C8.58748 18.8162 8.72857 18.8746 8.87569 18.8746C9.02281 18.8746 9.1639 18.8162 9.26793 18.7121C9.37196 18.6081 9.4304 18.467 9.4304 18.3199ZM6.10214 20.5387V21.6482C6.10214 21.7953 6.16058 21.9364 6.26461 22.0404C6.36864 22.1444 6.50973 22.2029 6.65685 22.2029C6.80397 22.2029 6.94506 22.1444 7.04909 22.0404C7.15312 21.9364 7.21156 21.7953 7.21156 21.6482V20.5387C7.21156 20.3916 7.15312 20.2505 7.04909 20.1465C6.94506 20.0425 6.80397 19.984 6.65685 19.984C6.50973 19.984 6.36864 20.0425 6.26461 20.1465C6.16058 20.2505 6.10214 20.3916 6.10214 20.5387ZM11.0945 18.3199H15.5322C15.6793 18.3199 15.8204 18.2614 15.9244 18.1574C16.0285 18.0534 16.0869 17.9123 16.0869 17.7652C16.0869 17.6181 16.0285 17.477 15.9244 17.3729C15.8204 17.2689 15.6793 17.2105 15.5322 17.2105H11.0945C10.9474 17.2105 10.8063 17.2689 10.7023 17.3729C10.5983 17.477 10.5398 17.6181 10.5398 17.7652C10.5398 17.9123 10.5983 18.0534 10.7023 18.1574C10.8063 18.2614 10.9474 18.3199 11.0945 18.3199ZM18.3058 18.3199V17.2105C18.3058 17.0634 18.2473 16.9223 18.1433 16.8182C18.0393 16.7142 17.8982 16.6558 17.751 16.6558C17.6039 16.6558 17.4628 16.7142 17.3588 16.8182C17.2548 16.9223 17.1963 17.0634 17.1963 17.2105V18.3199C17.1963 18.467 17.2548 18.6081 17.3588 18.7121C17.4628 18.8162 17.6039 18.8746 17.751 18.8746C17.8982 18.8746 18.0393 18.8162 18.1433 18.7121C18.2473 18.6081 18.3058 18.467 18.3058 18.3199ZM19.9699 18.3199H22.1887C22.3358 18.3199 22.4769 18.2614 22.581 18.1574C22.685 18.0534 22.7434 17.9123 22.7434 17.7652C22.7434 17.6181 22.685 17.477 22.581 17.3729C22.4769 17.2689 22.3358 17.2105 22.1887 17.2105H19.9699C19.8228 17.2105 19.6817 17.2689 19.5777 17.3729C19.4736 17.477 19.4152 17.6181 19.4152 17.7652C19.4152 17.9123 19.4736 18.0534 19.5777 18.1574C19.6817 18.2614 19.8228 18.3199 19.9699 18.3199ZM17.751 21.6482H19.9699C20.117 21.6482 20.2581 21.5897 20.3621 21.4857C20.4662 21.3817 20.5246 21.2406 20.5246 21.0934C20.5246 20.9463 20.4662 20.8052 20.3621 20.7012C20.2581 20.5972 20.117 20.5387 19.9699 20.5387H17.751C17.6039 20.5387 17.4628 20.5972 17.3588 20.7012C17.2548 20.8052 17.1963 20.9463 17.1963 21.0934C17.1963 21.2406 17.2548 21.3817 17.3588 21.4857C17.4628 21.5897 17.6039 21.6482 17.751 21.6482ZM8.87569 21.6482H13.3134C13.4605 21.6482 13.6016 21.5897 13.7056 21.4857C13.8096 21.3817 13.8681 21.2406 13.8681 21.0934C13.8681 20.9463 13.8096 20.8052 13.7056 20.7012C13.6016 20.5972 13.4605 20.5387 13.3134 20.5387H8.87569C8.72857 20.5387 8.58748 20.5972 8.48345 20.7012C8.37942 20.8052 8.32098 20.9463 8.32098 21.0934C8.32098 21.2406 8.37942 21.3817 8.48345 21.4857C8.58748 21.5897 8.72857 21.6482 8.87569 21.6482ZM14.9775 20.5387V21.6482C14.9775 21.7953 15.0359 21.9364 15.14 22.0404C15.244 22.1444 15.3851 22.2029 15.5322 22.2029C15.6793 22.2029 15.8204 22.1444 15.9244 22.0404C16.0285 21.9364 16.0869 21.7953 16.0869 21.6482V20.5387C16.0869 20.3916 16.0285 20.2505 15.9244 20.1465C15.8204 20.0425 15.6793 19.984 15.5322 19.984C15.3851 19.984 15.244 20.0425 15.14 20.1465C15.0359 20.2505 14.9775 20.3916 14.9775 20.5387Z" fill="#034703" fill-opacity="0.75"/>
</svg>
