<svg width="49" height="48" viewBox="0 0 49 48" fill="none" xmlns="http://www.w3.org/2000/svg">
<path d="M3.07031 23.7772H5.44156H3.07031ZM24.4116 45.1374V42.7661V45.1374ZM45.7528 23.7772H43.3816H45.7528ZM24.4116 2.41699V0.0457423V2.41699ZM26.7828 16.6571C26.7828 15.3475 25.7212 14.2859 24.4116 14.2859C23.102 14.2859 22.0403 15.3475 22.0403 16.6571H26.7828ZM22.0403 26.1505C22.0403 27.4602 23.102 28.5218 24.4116 28.5218C25.7212 28.5218 26.7828 27.4602 26.7828 26.1505H22.0403ZM26.7828 33.2706C26.7828 31.961 25.7212 30.8994 24.4116 30.8994C23.102 30.8994 22.0403 31.961 22.0403 33.2706H26.7828ZM22.0403 33.2943C22.0403 34.604 23.102 35.6656 24.4116 35.6656C25.7212 35.6656 26.7828 34.604 26.7828 33.2943H22.0403ZM0.699063 23.7772C0.699063 26.8934 1.31229 29.9791 2.50378 32.8581L6.88585 31.0446C5.93235 28.7406 5.44156 26.2711 5.44156 23.7772H0.699063ZM2.50378 32.8581C3.69528 35.7372 5.44174 38.3533 7.64355 40.5571L10.9985 37.2051C9.23686 35.442 7.83935 33.3486 6.88585 31.0446L2.50378 32.8581ZM7.64355 40.5571C9.84536 42.7609 12.4594 44.5091 15.3365 45.7019L17.1527 41.321C14.8513 40.3669 12.7601 38.9683 10.9985 37.2051L7.64355 40.5571ZM15.3365 45.7019C18.2136 46.8947 21.2973 47.5086 24.4116 47.5086V42.7661C21.9207 42.7661 19.4541 42.2751 17.1527 41.321L15.3365 45.7019ZM24.4116 47.5086C27.5258 47.5086 30.6095 46.8947 33.4866 45.7019L31.6704 41.321C29.369 42.2751 26.9024 42.7661 24.4116 42.7661V47.5086ZM33.4866 45.7019C36.3637 44.5091 38.9778 42.7609 41.1796 40.5571L37.8246 37.2051C36.063 38.9683 33.9718 40.3669 31.6704 41.321L33.4866 45.7019ZM41.1796 40.5571C43.3814 38.3534 45.1278 35.7372 46.3193 32.8581L41.9373 31.0446C40.9838 33.3486 39.5863 35.442 37.8246 37.2051L41.1796 40.5571ZM46.3193 32.8581C47.5108 29.9791 48.1241 26.8934 48.1241 23.7772H43.3816C43.3816 26.2711 42.8908 28.7406 41.9373 31.0446L46.3193 32.8581ZM48.1241 23.7772C48.1241 20.661 47.5108 17.5753 46.3193 14.6962L41.9373 16.5097C42.8908 18.8137 43.3816 21.2832 43.3816 23.7772H48.1241ZM46.3193 14.6962C45.1278 11.8172 43.3814 9.20103 41.1796 6.99727L37.8246 10.3492C39.5863 12.1124 40.9838 14.2058 41.9373 16.5097L46.3193 14.6962ZM41.1796 6.99727C38.9778 4.7935 36.3637 3.04526 33.4866 1.85248L31.6704 6.23341C33.9718 7.18752 36.063 8.58604 37.8246 10.3492L41.1796 6.99727ZM33.4866 1.85248C30.6095 0.659689 27.5258 0.0457423 24.4116 0.0457423V4.78824C26.9024 4.78824 29.369 5.27929 31.6704 6.23341L33.4866 1.85248ZM24.4116 0.0457423C21.2973 0.0457423 18.2136 0.659689 15.3365 1.85248L17.1527 6.23341C19.4541 5.27929 21.9207 4.78824 24.4116 4.78824V0.0457423ZM15.3365 1.85248C12.4594 3.04526 9.84536 4.7935 7.64355 6.99727L10.9985 10.3492C12.7601 8.58605 14.8513 7.18752 17.1527 6.23341L15.3365 1.85248ZM7.64355 6.99727C5.44174 9.20103 3.69528 11.8172 2.50378 14.6962L6.88585 16.5097C7.83935 14.2058 9.23686 12.1124 10.9985 10.3492L7.64355 6.99727ZM2.50378 14.6962C1.31229 17.5753 0.699063 20.661 0.699063 23.7772H5.44156C5.44156 21.2832 5.93235 18.8137 6.88585 16.5097L2.50378 14.6962ZM22.0403 16.6571V26.1505H26.7828V16.6571H22.0403ZM22.0403 33.2706V33.2943H26.7828V33.2706H22.0403Z" fill="#034703" fill-opacity="0.75"/>
</svg>
