<svg width="186" height="60" viewBox="0 0 186 60" fill="none" xmlns="http://www.w3.org/2000/svg">
<g id="Group 4764">
<ellipse id="Ellipse 57" cx="92.7273" cy="30" rx="92.7273" ry="30" fill="white"/>
<g id="Group 4747" filter="url(#filter0_d_397_6927)">
<path id="path50" d="M95.5777 18.4553C97.6948 16.0215 101.041 14.8048 105.616 14.8048C110.192 14.8048 113.538 16.0215 115.655 18.4553C117.772 20.8891 118.831 24.867 118.831 30.3894C118.831 35.9114 117.772 39.8893 115.655 42.3229C113.538 44.7568 110.192 45.9736 105.616 45.9736C101.041 45.9736 97.6948 44.7568 95.5777 42.3229C93.4605 39.8893 92.4019 35.9114 92.4019 30.3894C92.4019 24.867 93.4605 20.8891 95.5777 18.4553Z" fill="#034703"/>
<path id="path52" d="M161.798 28.1691H172.498V34.1466V42.6433C169.4 44.8637 165.777 45.9736 161.628 45.9736C157.052 45.9736 153.706 44.7568 151.589 42.3232C149.472 39.8893 148.414 35.9114 148.414 30.3894C148.414 24.8671 149.472 20.8893 151.589 18.4554C153.706 16.0219 157.052 14.805 161.628 14.805C163.56 14.805 165.486 15.0542 167.404 15.5522C169.322 16.0503 170.821 16.6837 171.901 17.4524L168.064 23.3444C166.303 22.2341 164.896 21.5368 163.844 21.2521C163.134 21.0814 162.395 20.9959 161.628 20.9959C160.662 20.9959 159.894 21.2096 159.326 21.6366C158.757 22.0634 158.289 22.9886 157.919 24.4119C157.55 25.8351 157.365 27.8274 157.365 30.3894C157.365 32.9511 157.55 34.9436 157.919 36.367C158.289 37.7901 158.757 38.7152 159.326 39.1421C159.894 39.569 160.662 39.7828 161.628 39.7828C162.424 39.7828 163.347 39.5833 164.399 39.1849V34.1466H160.519L161.798 28.1691Z" fill="#034703"/>
<path id="path54" d="M144.48 38.0321C144.821 39.0567 145.588 39.3557 146.782 38.9288V45.3333C145.73 45.7603 144.636 45.9736 143.499 45.9736C142.078 45.9736 140.828 45.6037 139.748 44.8637C138.668 44.1234 137.901 43.0133 137.447 41.5331L136.168 37.3489C135.77 36.0397 135.287 35.1856 134.718 34.787C134.235 34.4456 133.525 34.2607 132.587 34.2321L133.099 28.2544C133.781 28.4538 134.335 28.5534 134.761 28.5534C135.613 28.5534 136.274 28.2404 136.743 27.6141C137.212 26.9879 137.447 26.2051 137.447 25.2657C137.447 24.2411 137.134 23.3444 136.509 22.5759C135.883 21.8075 135.003 21.423 133.866 21.423H131.649V45.3333H123.124V15.4455H134.718C138.413 15.4455 141.205 16.3635 143.094 18.1994C144.984 20.0352 145.929 22.2058 145.929 24.7107C145.929 26.39 145.524 27.9271 144.714 29.322C143.904 30.7168 142.803 31.6845 141.411 32.2254C142.121 32.6239 142.718 33.4636 143.201 34.7444L144.48 38.0321Z" fill="#034703"/>
<path id="path56" d="M30.106 45.9736C26.3833 45.9736 23.1011 45.0343 20.2593 43.1558L23.4992 37.0927C24.38 37.8896 25.4741 38.5515 26.7813 39.0781C28.0885 39.6048 29.2819 39.8682 30.3619 39.8682C31.2144 39.8682 31.9107 39.6546 32.4508 39.2275C32.9906 38.8008 33.2605 38.2883 33.2605 37.6904C33.2605 36.6943 32.6496 35.8973 31.4275 35.2994L27.4206 33.3353C25.2324 32.2823 23.5843 30.9302 22.4759 29.2794C21.3676 27.6283 20.8137 25.9062 20.8137 24.1128C20.8137 21.5795 21.8082 19.4019 23.7974 17.5803C25.7868 15.7587 28.4438 14.8476 31.7685 14.8476C35.4059 14.8476 38.6458 15.7871 41.4876 17.6657L38.0774 23.5578C35.6048 21.7076 33.4169 20.7825 31.5128 20.7825C30.7457 20.7825 30.1488 20.9959 29.7225 21.423C29.2962 21.85 29.0832 22.3624 29.0832 22.9601C29.0832 24.2981 29.8221 25.3226 31.2998 26.0342L35.1786 27.9557C37.2816 28.9804 38.8802 30.2826 39.9741 31.8624C41.0682 33.4421 41.6152 35.1003 41.6152 36.8364C41.6152 39.313 40.5779 41.4549 38.5037 43.2623C36.4291 45.0701 33.6299 45.9736 30.106 45.9736ZM53.5081 39.3557H65.5715L64.2925 45.3333H52.3997H44.9829V15.4455H53.5081H64.7189V21.423H53.5081V27.4005H62.5877V33.3782H53.5081V39.3557ZM77.7202 39.3557H89.5702L88.2915 45.3333H76.3987H69.195V15.4455H77.7202V39.3557Z" fill="#034703"/>
<g id="path58" filter="url(#filter1_i_397_6927)">
<path fill-rule="evenodd" clip-rule="evenodd" d="M99.6751 23.2607C97.3135 31.1612 100.485 39.6713 107.437 44.0898C107.663 38.2727 106.893 32.5176 105.128 26.8237C107.949 34.0722 109.275 39.7685 109.108 43.9119C112.976 39.3718 113.979 33.0438 111.705 27.5273C109.432 22.0104 104.264 18.234 98.3252 17.749C99.836 19.4403 100.286 21.2774 99.6751 23.2607Z" fill="white"/>
</g>
</g>
</g>
<defs>
<filter id="filter0_d_397_6927" x="16.2593" y="10.8047" width="160.238" height="39.1689" filterUnits="userSpaceOnUse" color-interpolation-filters="sRGB">
<feFlood flood-opacity="0" result="BackgroundImageFix"/>
<feColorMatrix in="SourceAlpha" type="matrix" values="0 0 0 0 0 0 0 0 0 0 0 0 0 0 0 0 0 0 127 0" result="hardAlpha"/>
<feOffset/>
<feGaussianBlur stdDeviation="2"/>
<feComposite in2="hardAlpha" operator="out"/>
<feColorMatrix type="matrix" values="0 0 0 0 0 0 0 0 0 0 0 0 0 0 0 0 0 0 0.25 0"/>
<feBlend mode="normal" in2="BackgroundImageFix" result="effect1_dropShadow_397_6927"/>
<feBlend mode="normal" in="SourceGraphic" in2="effect1_dropShadow_397_6927" result="shape"/>
</filter>
<filter id="filter1_i_397_6927" x="98.3252" y="17.749" width="14.5811" height="26.3408" filterUnits="userSpaceOnUse" color-interpolation-filters="sRGB">
<feFlood flood-opacity="0" result="BackgroundImageFix"/>
<feBlend mode="normal" in="SourceGraphic" in2="BackgroundImageFix" result="shape"/>
<feColorMatrix in="SourceAlpha" type="matrix" values="0 0 0 0 0 0 0 0 0 0 0 0 0 0 0 0 0 0 127 0" result="hardAlpha"/>
<feOffset/>
<feGaussianBlur stdDeviation="2"/>
<feComposite in2="hardAlpha" operator="arithmetic" k2="-1" k3="1"/>
<feColorMatrix type="matrix" values="0 0 0 0 0 0 0 0 0 0 0 0 0 0 0 0 0 0 0.25 0"/>
<feBlend mode="normal" in2="shape" result="effect1_innerShadow_397_6927"/>
</filter>
</defs>
</svg>
