<svg width="24" height="24" viewBox="0 0 24 24" fill="none" xmlns="http://www.w3.org/2000/svg">
<mask id="mask0_219_20044" style="mask-type:alpha" maskUnits="userSpaceOnUse" x="0" y="0" width="24" height="24">
<rect width="24" height="24" fill="#D9D9D9"/>
</mask>
<g mask="url(#mask0_219_20044)">
<path d="M3 7H2.25H3ZM21 7H21.75H21ZM21 17H21.75H21ZM18 20V20.75V20ZM6 20V20.75V20ZM3 17H2.25H3ZM7 10H6.25H7ZM9 8V7.25V8ZM15 7.25C14.5858 7.25 14.25 7.58579 14.25 8C14.25 8.41421 14.5858 8.75 15 8.75V7.25ZM17 8.75C17.4142 8.75 17.75 8.41421 17.75 8C17.75 7.58579 17.4142 7.25 17 7.25V8.75ZM15 11.25C14.5858 11.25 14.25 11.5858 14.25 12C14.25 12.4142 14.5858 12.75 15 12.75V11.25ZM17 12.75C17.4142 12.75 17.75 12.4142 17.75 12C17.75 11.5858 17.4142 11.25 17 11.25V12.75ZM7 15.25C6.58579 15.25 6.25 15.5858 6.25 16C6.25 16.4142 6.58579 16.75 7 16.75V15.25ZM17 16.75C17.4142 16.75 17.75 16.4142 17.75 16C17.75 15.5858 17.4142 15.25 17 15.25V16.75ZM3.75 7C3.75 6.40326 3.98705 5.83097 4.40901 5.40901L3.34835 4.34835C2.64509 5.05161 2.25 6.00544 2.25 7H3.75ZM4.40901 5.40901C4.83097 4.98705 5.40326 4.75 6 4.75V3.25C5.00544 3.25 4.05161 3.64509 3.34835 4.34835L4.40901 5.40901ZM6 4.75H18V3.25H6V4.75ZM18 4.75C18.5967 4.75 19.169 4.98705 19.591 5.40901L20.6517 4.34835C19.9484 3.64509 18.9946 3.25 18 3.25V4.75ZM19.591 5.40901C20.0129 5.83097 20.25 6.40326 20.25 7H21.75C21.75 6.00544 21.3549 5.05161 20.6517 4.34835L19.591 5.40901ZM20.25 7V17H21.75V7H20.25ZM20.25 17C20.25 17.5967 20.0129 18.169 19.591 18.591L20.6517 19.6517C21.3549 18.9484 21.75 17.9946 21.75 17H20.25ZM19.591 18.591C19.169 19.0129 18.5967 19.25 18 19.25V20.75C18.9946 20.75 19.9484 20.3549 20.6517 19.6517L19.591 18.591ZM18 19.25H6V20.75H18V19.25ZM6 19.25C5.40326 19.25 4.83097 19.0129 4.40901 18.591L3.34835 19.6517C4.05161 20.3549 5.00544 20.75 6 20.75V19.25ZM4.40901 18.591C3.98705 18.169 3.75 17.5967 3.75 17H2.25C2.25 17.9946 2.64509 18.9484 3.34835 19.6517L4.40901 18.591ZM3.75 17V7H2.25V17H3.75ZM6.25 10C6.25 10.7293 6.53973 11.4288 7.05546 11.9445L8.11612 10.8839C7.8817 10.6495 7.75 10.3315 7.75 10H6.25ZM7.05546 11.9445C7.57118 12.4603 8.27065 12.75 9 12.75V11.25C8.66848 11.25 8.35054 11.1183 8.11612 10.8839L7.05546 11.9445ZM9 12.75C9.72935 12.75 10.4288 12.4603 10.9445 11.9445L9.88388 10.8839C9.64946 11.1183 9.33152 11.25 9 11.25V12.75ZM10.9445 11.9445C11.4603 11.4288 11.75 10.7293 11.75 10H10.25C10.25 10.3315 10.1183 10.6495 9.88388 10.8839L10.9445 11.9445ZM11.75 10C11.75 9.27065 11.4603 8.57118 10.9445 8.05546L9.88388 9.11612C10.1183 9.35054 10.25 9.66848 10.25 10H11.75ZM10.9445 8.05546C10.4288 7.53973 9.72935 7.25 9 7.25V8.75C9.33152 8.75 9.64946 8.8817 9.88388 9.11612L10.9445 8.05546ZM9 7.25C8.27065 7.25 7.57118 7.53973 7.05546 8.05546L8.11612 9.11612C8.35054 8.8817 8.66848 8.75 9 8.75V7.25ZM7.05546 8.05546C6.53973 8.57118 6.25 9.27065 6.25 10H7.75C7.75 9.66848 7.8817 9.35054 8.11612 9.11612L7.05546 8.05546ZM15 8.75H17V7.25H15V8.75ZM15 12.75H17V11.25H15V12.75ZM7 16.75H17V15.25H7V16.75Z" fill="#222222"/>
</g>
</svg>
