<svg width="43" height="47" viewBox="0 0 43 47" fill="none" xmlns="http://www.w3.org/2000/svg">
<path d="M16.665 6.99769L17.4258 8.60519C18.0472 8.31109 18.4434 7.68518 18.4434 6.99769H16.665ZM21.4075 2.25098V0.472539V2.25098ZM26.15 6.99769H24.3716C24.3716 7.68518 24.7678 8.31109 25.3892 8.60519L26.15 6.99769ZM35.635 21.2378H37.4134C37.4134 21.21 37.4128 21.1823 37.4115 21.1545L35.635 21.2378ZM35.635 28.3579H33.8566C33.8566 28.4293 33.8609 28.5006 33.8694 28.5714L35.635 28.3579ZM40.3775 35.478V37.2564C41.1851 37.2564 41.8913 36.7123 42.0972 35.9314C42.3031 35.1505 41.957 34.3289 41.2544 33.9307L40.3775 35.478ZM2.4375 35.478L1.56058 33.9307C0.858013 34.3289 0.511937 35.1505 0.717842 35.9314C0.923746 36.7123 1.62993 37.2564 2.4375 37.2564L2.4375 35.478ZM7.18 28.3579L8.94557 28.5714C8.95414 28.5006 8.95844 28.4293 8.95844 28.3579H7.18ZM7.18 21.2378L5.40351 21.1545C5.40221 21.1823 5.40156 21.21 5.40156 21.2378H7.18ZM16.0722 35.478C16.0722 34.4957 15.276 33.6995 14.2937 33.6995C13.3115 33.6995 12.5153 34.4957 12.5153 35.478H16.0722ZM21.4075 44.9714V46.7498V44.9714ZM30.2997 35.478C30.2997 34.4957 29.5035 33.6995 28.5212 33.6995C27.539 33.6995 26.7428 34.4957 26.7428 35.478H30.2997ZM18.4434 6.99769C18.4434 6.20994 18.7561 5.45478 19.3121 4.89824L16.7959 2.38427C15.5732 3.60809 14.8866 5.26762 14.8866 6.99769H18.4434ZM19.3121 4.89824C19.8681 4.34176 20.6219 4.02941 21.4075 4.02941V0.472539C19.6775 0.472539 18.0187 1.16039 16.7959 2.38427L19.3121 4.89824ZM21.4075 4.02941C22.1931 4.02941 22.9469 4.34176 23.5028 4.89824L26.0191 2.38427C24.7963 1.16039 23.1375 0.472539 21.4075 0.472539V4.02941ZM23.5028 4.89824C24.0589 5.45478 24.3716 6.20994 24.3716 6.99769H27.9284C27.9284 5.26762 27.2418 3.60809 26.0191 2.38427L23.5028 4.89824ZM25.3892 8.60519C27.8205 9.75584 29.8933 11.5471 31.3853 13.7871L34.3456 11.8154C32.4959 9.03827 29.9258 6.81713 26.9108 5.39019L25.3892 8.60519ZM31.3853 13.7871C32.8774 16.0272 33.7324 18.6316 33.8585 21.3211L37.4115 21.1545C37.2551 17.8208 36.1954 14.5924 34.3456 11.8154L31.3853 13.7871ZM33.8566 21.2378V28.3579H37.4134V21.2378H33.8566ZM33.8694 28.5714C34.0813 30.3231 34.7011 32.0006 35.6791 33.469L38.6394 31.4972C37.97 30.4921 37.5456 29.3437 37.4006 28.1444L33.8694 28.5714ZM35.6791 33.469C36.6571 34.9373 37.966 36.1554 39.5006 37.0252L41.2544 33.9307C40.2046 33.3357 39.3088 32.5022 38.6394 31.4972L35.6791 33.469ZM40.3775 33.6995H2.4375V37.2564H40.3775V33.6995ZM3.31442 37.0252C4.84895 36.1554 6.15787 34.9373 7.13588 33.469L4.17558 31.4972C3.50615 32.5022 2.61042 33.3357 1.56058 33.9307L3.31442 37.0252ZM7.13588 33.469C8.1139 32.0006 8.73372 30.3231 8.94557 28.5714L5.41443 28.1444C5.26938 29.3437 4.845 30.4921 4.17558 31.4972L7.13588 33.469ZM8.95844 28.3579V21.2378H5.40156V28.3579H8.95844ZM8.95648 21.3211C9.08261 18.6316 9.9376 16.0272 11.4297 13.7871L8.46935 11.8154C6.61961 14.5924 5.55985 17.8208 5.40351 21.1545L8.95648 21.3211ZM11.4297 13.7871C12.9217 11.5471 14.9945 9.75584 17.4258 8.60519L15.9042 5.39019C12.8892 6.81713 10.3191 9.03827 8.46935 11.8154L11.4297 13.7871ZM12.5153 35.478V37.8513H16.0722V35.478H12.5153ZM12.5153 37.8513C12.5153 40.2108 13.4518 42.474 15.1192 44.1429L17.6354 41.629C16.6347 40.6273 16.0722 39.2685 16.0722 37.8513H12.5153ZM15.1192 44.1429C16.7867 45.8119 19.0486 46.7498 21.4075 46.7498V43.1929C19.993 43.1929 18.6361 42.6305 17.6354 41.629L15.1192 44.1429ZM21.4075 46.7498C23.7664 46.7498 26.0283 45.8119 27.6958 44.1429L25.1796 41.629C24.1789 42.6305 22.822 43.1929 21.4075 43.1929V46.7498ZM27.6958 44.1429C29.3632 42.474 30.2997 40.2108 30.2997 37.8513H26.7428C26.7428 39.2685 26.1803 40.6273 25.1796 41.629L27.6958 44.1429ZM30.2997 37.8513V35.478H26.7428V37.8513H30.2997Z" fill="#034703" fill-opacity="0.75"/>
</svg>
