<svg width="39" height="39" viewBox="0 0 39 39" fill="none" xmlns="http://www.w3.org/2000/svg">
<path d="M17.9435 9.16277C18.2412 7.41029 20.7588 7.41029 21.0565 9.16277V9.16277C21.2767 10.4594 22.893 10.934 23.7794 9.96228V9.96228C24.9772 8.64894 27.0951 10.01 26.3981 11.6453V11.6453C25.8824 12.8552 26.9855 14.1283 28.2565 13.79V13.79C29.9743 13.3327 31.0201 15.6228 29.5497 16.6216V16.6216C28.4617 17.3606 28.7014 19.028 29.9535 19.4305V19.4305C31.6458 19.9746 31.2875 22.4665 29.5105 22.5118V22.5118C28.1957 22.5452 27.4959 24.0776 28.3316 25.0932V25.0932C29.4611 26.4658 27.8125 28.3684 26.2931 27.4457V27.4457C25.1689 26.7631 23.7518 27.6738 23.9057 28.98V28.98C24.1138 30.7454 21.6983 31.4546 20.9189 29.857V29.857C20.3423 28.6749 18.6577 28.6749 18.0811 29.857V29.857C17.3017 31.4546 14.8862 30.7454 15.0943 28.98V28.98C15.2482 27.6738 13.8311 26.7631 12.7069 27.4457V27.4457C11.1875 28.3684 9.53889 26.4658 10.6684 25.0932V25.0932C11.5041 24.0776 10.8043 22.5452 9.48949 22.5118V22.5118C7.71248 22.4665 7.3542 19.9746 9.04648 19.4305V19.4305C10.2986 19.028 10.5383 17.3606 9.45035 16.6216V16.6216C7.9799 15.6228 9.02572 13.3327 10.7435 13.79V13.79C12.0145 14.1283 13.1176 12.8552 12.6019 11.6453V11.6453C11.9049 10.01 14.0228 8.64894 15.2206 9.96228V9.96228C16.107 10.934 17.7233 10.4594 17.9435 9.16277V9.16277Z" stroke="#034703" stroke-opacity="0.75" stroke-width="1.5"/>
<path d="M15.5304 17.667C15.5304 17.1317 15.6844 16.7137 15.9924 16.413C16.3077 16.105 16.711 15.951 17.2024 15.951C17.6937 15.951 18.0934 16.105 18.4014 16.413C18.7167 16.7137 18.8744 17.1317 18.8744 17.667C18.8744 18.2023 18.7167 18.624 18.4014 18.932C18.0934 19.24 17.6937 19.394 17.2024 19.394C16.711 19.394 16.3077 19.24 15.9924 18.932C15.6844 18.624 15.5304 18.2023 15.5304 17.667ZM22.2404 16.094L17.8514 23.75H16.6194L21.0084 16.094H22.2404ZM17.2024 16.71C16.7404 16.71 16.5094 17.029 16.5094 17.667C16.5094 18.3123 16.7404 18.635 17.2024 18.635C17.4224 18.635 17.591 18.558 17.7084 18.404C17.833 18.2427 17.8954 17.997 17.8954 17.667C17.8954 17.029 17.6644 16.71 17.2024 16.71ZM20.0074 22.166C20.0074 21.6307 20.1614 21.2127 20.4694 20.912C20.7847 20.604 21.188 20.45 21.6794 20.45C22.1634 20.45 22.5594 20.604 22.8674 20.912C23.1827 21.2127 23.3404 21.6307 23.3404 22.166C23.3404 22.7013 23.1827 23.123 22.8674 23.431C22.5594 23.739 22.1634 23.893 21.6794 23.893C21.188 23.893 20.7847 23.739 20.4694 23.431C20.1614 23.123 20.0074 22.7013 20.0074 22.166ZM21.6684 21.209C21.2064 21.209 20.9754 21.528 20.9754 22.166C20.9754 22.804 21.2064 23.123 21.6684 23.123C22.1304 23.123 22.3614 22.804 22.3614 22.166C22.3614 21.528 22.1304 21.209 21.6684 21.209Z" fill="#034703" fill-opacity="0.75"/>
</svg>
