<svg width="42" height="49" viewBox="0 0 42 49" fill="none" xmlns="http://www.w3.org/2000/svg">
<path d="M7.18057 15.1514L7.18028 17.5227H7.18057V15.1514ZM34.0682 15.1514V17.5227H34.0685L34.0682 15.1514ZM38.7561 20.6197L41.0998 20.9801L41.0999 20.9798L38.7561 20.6197ZM35.7802 39.9672L33.4365 39.6068L33.4365 39.6071L35.7802 39.9672ZM28.7471 46.0051L28.7478 43.6338H28.7471V46.0051ZM12.4993 46.0051L12.4992 48.3763H12.4993V46.0051ZM5.46852 39.9672L7.81227 39.6071L7.81221 39.6068L5.46852 39.9672ZM2.49261 20.6197L0.14886 20.9798L0.148918 20.9801L2.49261 20.6197ZM11.1386 22.2715C11.1386 23.5811 12.2003 24.6428 13.5099 24.6428C14.8195 24.6428 15.8811 23.5811 15.8811 22.2715H11.1386ZM20.6236 3.28467V0.913418V3.28467ZM27.7374 10.4047H30.1086H27.7374ZM25.3661 22.2715C25.3661 23.5811 26.4278 24.6428 27.7374 24.6428C29.047 24.6428 30.1086 23.5811 30.1086 22.2715H25.3661ZM7.18057 17.5227H34.0682V12.7802H7.18057V17.5227ZM34.0685 17.5227C34.41 17.5227 34.7476 17.5965 35.0581 17.7394L37.0399 13.4308C36.1077 13.002 35.0939 12.7801 34.0679 12.7802L34.0685 17.5227ZM35.0581 17.7394C35.3687 17.8822 35.6448 18.0906 35.8676 18.3505L39.4681 15.2637C38.8003 14.4848 37.972 13.8595 37.0399 13.4308L35.0581 17.7394ZM35.8676 18.3505C36.0904 18.6103 36.2545 18.9155 36.3486 19.2451L40.909 17.9433C40.6273 16.9568 40.1359 16.0427 39.4681 15.2637L35.8676 18.3505ZM36.3486 19.2451C36.4427 19.5746 36.4644 19.9207 36.4124 20.2595L41.0999 20.9798C41.2557 19.9657 41.1906 18.9299 40.909 17.9433L36.3486 19.2451ZM36.4124 20.2592L33.4365 39.6068L38.1239 40.3277L41.0998 20.9801L36.4124 20.2592ZM33.4365 39.6071C33.2641 40.7291 32.6961 41.7518 31.8359 42.4902L34.9251 46.0886C36.6451 44.612 37.7797 42.5682 38.124 40.3274L33.4365 39.6071ZM31.8359 42.4902C30.9758 43.2286 29.8803 43.6341 28.7478 43.6338L28.7464 48.3763C31.0132 48.377 33.205 47.5653 34.9251 46.0886L31.8359 42.4902ZM28.7471 43.6338H12.4993V48.3763H28.7471V43.6338ZM12.4994 43.6338C11.3672 43.6338 10.272 43.2281 9.41223 42.4897L6.32247 46.0876C8.04188 47.5642 10.2329 48.3762 12.4992 48.3763L12.4994 43.6338ZM9.41223 42.4897C8.55237 41.7513 7.98462 40.7288 7.81227 39.6071L3.12478 40.3274C3.469 42.5676 4.60311 44.611 6.32247 46.0876L9.41223 42.4897ZM7.81221 39.6068L4.83629 20.2592L0.148918 20.9801L3.12484 40.3277L7.81221 39.6068ZM4.83635 20.2595C4.78429 19.9207 4.80606 19.5746 4.90013 19.2451L0.339779 17.9433C0.0581682 18.9299 -0.00695157 19.9657 0.148861 20.9798L4.83635 20.2595ZM4.90013 19.2451C4.9942 18.9155 5.15833 18.6103 5.38112 18.3505L1.78064 15.2637C1.11286 16.0427 0.62139 16.9568 0.339779 17.9433L4.90013 19.2451ZM5.38112 18.3505C5.6039 18.0906 5.88006 17.8822 6.19059 17.7394L4.20886 13.4308C3.27673 13.8595 2.44843 14.4848 1.78064 15.2637L5.38112 18.3505ZM6.19059 17.7394C6.5011 17.5965 6.83871 17.5227 7.18028 17.5227L7.18085 12.7802C6.15484 12.7801 5.141 13.002 4.20886 13.4308L6.19059 17.7394ZM15.8811 22.2715V10.4047H11.1386V22.2715H15.8811ZM15.8811 10.4047C15.8811 9.14459 16.3813 7.93648 17.2709 7.04607L13.916 3.6941C12.1374 5.47423 11.1386 7.88816 11.1386 10.4047H15.8811ZM17.2709 7.04607C18.1605 6.15573 19.3665 5.65592 20.6236 5.65592V0.913418C18.1074 0.913418 15.6946 1.91391 13.916 3.6941L17.2709 7.04607ZM20.6236 5.65592C21.8808 5.65592 23.0868 6.15573 23.9764 7.04607L27.3313 3.6941C25.5527 1.91391 23.1399 0.913418 20.6236 0.913418V5.65592ZM23.9764 7.04607C24.866 7.93648 25.3661 9.14459 25.3661 10.4047H30.1086C30.1086 7.88816 29.1098 5.47423 27.3313 3.6941L23.9764 7.04607ZM25.3661 10.4047V22.2715H30.1086V10.4047H25.3661Z" fill="#034703" fill-opacity="0.75"/>
</svg>
