<svg width="12" height="12" viewBox="0 0 12 12" fill="none" xmlns="http://www.w3.org/2000/svg">
<g clip-path="url(#clip0_2_14692)">
<path d="M6 7.50391C4.5498 7.50391 3.1877 7.35781 2.16074 7.09141C1.40234 6.8959 0.5 6.53711 0.5 6H0.714844C0.714844 6.30078 1.27559 6.64023 2.21445 6.88301C3.22422 7.14512 4.56914 7.28906 6 7.28906C7.43086 7.28906 8.77578 7.14512 9.78555 6.88301C10.7244 6.64023 11.2852 6.30078 11.2852 6H11.5C11.5 6.53711 10.5977 6.8959 9.83926 7.09141C8.81231 7.35781 7.4502 7.50391 6 7.50391Z" fill="#DEE3CF" stroke="#DEE3CF" stroke-width="0.1"/>
<path d="M6 9.99609C4.91719 9.99609 3.95469 9.83496 3.13613 9.51914C2.3541 9.21621 1.87285 8.83594 1.60645 8.56738C1.59785 8.55879 1.58926 8.5459 1.58281 8.53301L0.648242 6.36738C0.549414 6.25137 0.5 6.12676 0.5 6C0.5 5.71855 0.740625 5.46074 1.21543 5.23516L1.30781 5.42852C0.925391 5.61113 0.714844 5.81523 0.714844 6C0.714844 6.07734 0.751367 6.15898 0.822266 6.23848C0.828711 6.24707 0.835156 6.25566 0.839453 6.26641L1.77188 8.42988C2.19727 8.84883 3.43262 9.78125 6 9.78125C8.10547 9.78125 9.56211 9.0873 10.2281 8.42988L11.1605 6.26641C11.1648 6.25566 11.1713 6.24707 11.1777 6.23848C11.2486 6.15684 11.2852 6.07734 11.2852 6C11.2852 5.81523 11.0768 5.61328 10.6965 5.43066L10.7889 5.2373C11.2594 5.46289 11.5 5.7207 11.5 6C11.5 6.12676 11.4506 6.24922 11.3518 6.36738L10.4172 8.53516C10.4107 8.54805 10.4043 8.55879 10.3936 8.56953C10.1873 8.77578 9.71895 9.16895 8.8875 9.49551C8.04316 9.82852 7.07207 9.99609 6 9.99609ZM6.10527 4.60996L5.89043 4.59922C5.89258 4.56484 5.89258 4.53262 5.89258 4.49824C5.89258 3.93535 5.64121 3.41113 5.20293 3.05879L5.33828 2.89121C5.82812 3.28438 6.10742 3.8709 6.10742 4.49824C6.10742 4.53477 6.10742 4.57129 6.10527 4.60996ZM3.15117 2.87832L3.04805 2.69141C3.35098 2.52383 3.69688 2.43359 4.04492 2.43359C4.38867 2.43359 4.72813 2.51953 5.02891 2.68281L4.92578 2.87188C4.65723 2.72578 4.35215 2.64844 4.04492 2.64844C3.73125 2.64844 3.42402 2.72793 3.15117 2.87832ZM2.20371 4.33066L1.98887 4.31133C2.01465 4.01914 2.10059 3.73984 2.24453 3.48418L2.43145 3.58945C2.30469 3.81934 2.22734 4.06855 2.20371 4.33066Z" fill="#DEE3CF" stroke="#DEE3CF" stroke-width="0.1"/>
<path d="M6 7.16016C5.33184 7.16016 4.68516 7.13223 4.07715 7.07422C4.02988 7.06992 3.99121 7.03555 3.98262 6.99043C3.95254 6.85078 3.9375 6.70469 3.9375 6.55859C3.9375 5.90117 4.25547 5.27813 4.78828 4.88926C5.14277 4.63145 5.56172 4.49609 6 4.49609C6.43828 4.49609 6.85937 4.63145 7.21172 4.88926C7.73809 5.27168 8.05605 5.88828 8.0625 6.53711L7.84766 6.53926C7.84121 5.95703 7.55762 5.40703 7.08711 5.06328C6.76914 4.8334 6.39316 4.71094 6 4.71094C5.60684 4.71094 5.23086 4.8334 4.91504 5.06328C4.43809 5.41133 4.15234 5.96992 4.15234 6.55859C4.15234 6.66387 4.16094 6.76699 4.17812 6.86797C4.75605 6.91953 5.36836 6.94531 6 6.94531C6.66172 6.94531 7.30195 6.91738 7.90137 6.86152L7.9207 7.07637C7.31484 7.13223 6.66816 7.16016 6 7.16016Z" fill="#DEE3CF" stroke="#DEE3CF" stroke-width="0.1"/>
<path d="M5.89473 4.60996C5.89258 4.57344 5.89258 4.53477 5.89258 4.49609C5.89258 3.35957 6.81855 2.43359 7.95508 2.43359C8.475 2.43359 8.97129 2.62695 9.35371 2.9793C9.73398 3.32949 9.96601 3.8043 10.0111 4.31777L9.79629 4.33711C9.71465 3.3918 8.90684 2.65059 7.95508 2.65059C6.93672 2.65059 6.10742 3.47988 6.10742 4.49824C6.10742 4.53262 6.10742 4.56699 6.10957 4.59922L5.89473 4.60996ZM4.7625 7.12578C3.73555 7.06777 2.80527 6.93457 2.1457 6.75195C1.41094 6.54785 1.03711 6.29648 1.03711 6C1.03711 4.86348 1.96309 3.9375 3.09961 3.9375C3.82363 3.9375 4.48105 4.30703 4.86133 4.92578C4.86992 4.93867 4.87852 4.95371 4.88711 4.96875L4.7002 5.07617C4.69375 5.06328 4.68516 5.05039 4.67871 5.03965C4.33711 4.4832 3.74844 4.15234 3.09961 4.15234C2.08125 4.15234 1.25195 4.98164 1.25195 6C1.25195 6.13535 1.50117 6.3502 2.20371 6.5457C2.85039 6.72402 3.76348 6.85508 4.77539 6.91309L4.7625 7.12578Z" fill="#DEE3CF" stroke="#DEE3CF" stroke-width="0.1"/>
<path d="M7.23727 7.12605L7.22438 6.91121C8.23629 6.8532 9.14938 6.72429 9.79606 6.54382C10.4964 6.35046 10.7478 6.13562 10.7478 5.99812C10.7478 4.97976 9.91852 4.15046 8.90016 4.15046C8.25133 4.15046 7.66266 4.48132 7.32321 5.03562C7.31461 5.04851 7.30817 5.0614 7.30172 5.07214L7.11481 4.96472C7.1234 4.94968 7.132 4.93679 7.14059 4.92175C7.51871 4.303 8.17614 3.93347 8.90231 3.93347C10.0388 3.93347 10.9648 4.85945 10.9648 5.99597C10.9648 6.29031 10.591 6.54382 9.85621 6.74792C9.19235 6.93484 8.26422 7.06804 7.23727 7.12605ZM5.99977 9.51082C5.97184 9.51082 5.94391 9.50007 5.92457 9.47859L5.16403 8.71804C5.12106 8.67507 5.12106 8.60847 5.16403 8.5655L5.92457 7.80496C5.96754 7.76199 6.03414 7.76199 6.07711 7.80496L6.83766 8.5655C6.88063 8.60847 6.88063 8.67507 6.83766 8.71804L6.07711 9.47859C6.05563 9.50007 6.0277 9.51082 5.99977 9.51082ZM5.39176 8.64285L5.99977 9.25085L6.60778 8.64285L5.99977 8.03484L5.39176 8.64285ZM2.87809 4.14187C2.65035 4.02585 2.46989 3.88621 2.34098 3.72507C1.93278 3.20945 1.98004 2.66804 1.98219 2.64441C1.98649 2.59714 2.02086 2.55847 2.06598 2.54988C2.09821 2.54343 2.86735 2.3866 3.37438 2.89363C3.56344 3.08269 3.6816 3.33835 3.72672 3.65847L3.51403 3.68855C3.47536 3.4157 3.37653 3.20085 3.22399 3.04617C2.88668 2.70886 2.39039 2.72605 2.19489 2.74753C2.19918 2.90437 2.2443 3.25671 2.50856 3.58972C2.61598 3.72507 2.77282 3.84539 2.97262 3.94636L2.87809 4.14187ZM9.21598 3.03972L9.08922 2.8657C9.32125 2.69812 9.45016 2.39089 9.50817 2.21902H8.77985C8.56285 2.21902 8.35875 2.34792 8.17184 2.60574L7.99782 2.47898C8.2234 2.16746 8.49196 2.00417 8.77985 2.00417H9.65211C9.68434 2.00417 9.71442 2.01921 9.7359 2.045C9.75739 2.07078 9.76383 2.103 9.75739 2.13523C9.75094 2.15886 9.61774 2.74968 9.21598 3.03972ZM4.90407 3.47585C4.88043 3.47585 4.85895 3.46941 4.83961 3.45437L4.657 3.31472C4.61403 3.2825 4.60114 3.22234 4.62907 3.17507L5.28434 2.05789C5.29938 2.0321 5.32516 2.01277 5.35524 2.00632C5.38532 1.99988 5.41539 2.00632 5.44118 2.02566L5.83864 2.3157C5.86227 2.33289 5.87946 2.36082 5.8816 2.39089C5.88375 2.42097 5.87516 2.45105 5.85368 2.47468L4.98356 3.44148C4.96207 3.46296 4.93414 3.47585 4.90407 3.47585ZM4.86325 3.20085L4.89118 3.22234L5.6152 2.41667L5.40895 2.26628L4.86325 3.20085Z" fill="#DEE3CF" stroke="#DEE3CF" stroke-width="0.1"/>
<path d="M4.56507 2.97266L5.1897 3.45032L5.05919 3.62099L4.43457 3.14333L4.56507 2.97266ZM5.21566 5.5896L5.17269 5.37906C5.24144 5.36402 5.37679 5.3232 5.49495 5.20718C5.61312 5.08902 5.65609 4.95367 5.66898 4.88277L5.87952 4.92574C5.86019 5.02027 5.80433 5.20288 5.64534 5.35972C5.48851 5.51656 5.30804 5.57027 5.21566 5.5896Z" fill="#DEE3CF" stroke="#DEE3CF" stroke-width="0.1"/>
</g>
<defs>
<clipPath id="clip0_2_14692">
<rect width="11" height="11" fill="white" transform="translate(0.5 0.5)"/>
</clipPath>
</defs>
</svg>
