<svg width="12" height="12" viewBox="0 0 12 12" fill="none" xmlns="http://www.w3.org/2000/svg">
<g clip-path="url(#clip0_2_14677)">
<path d="M2.86287 3.70543L2.89325 3.74514L2.89377 3.74475C2.92949 3.71742 3.32324 3.41618 3.98767 3.31911C3.82327 3.98996 4.01691 4.523 4.27038 4.89946C4.53067 5.28605 4.85448 5.50864 4.92039 5.55115C6.84592 6.92394 9.07153 6.37207 10.4138 4.879L10.4138 4.87895C10.4824 4.80244 10.5036 4.69408 10.4666 4.59639C10.4295 4.49832 10.3421 4.4326 10.2401 4.41953L10.2401 4.41953L10.2394 4.41945C9.49739 4.33501 9.07258 3.9524 8.76621 3.49869C8.61303 3.27185 8.48995 3.02788 8.37149 2.79308L8.36965 2.78943C8.25133 2.55491 8.13685 2.32827 8.00254 2.14422L8.0025 2.14417C7.47772 1.42697 6.88542 1.075 6.23861 1.12214M2.86287 3.70543L2.89411 3.74447C2.77549 3.83937 2.60133 3.82121 2.50597 3.70226C2.41049 3.58532 2.42943 3.41094 2.54823 3.3159C2.56332 3.30383 3.18235 2.82172 4.20055 2.75722C4.38965 2.38328 4.67762 1.99571 5.02418 1.69153C5.37845 1.38058 5.79782 1.15348 6.23861 1.12214M2.86287 3.70543C2.76552 3.78331 2.62273 3.76817 2.54485 3.67081L4.00118 3.26669C3.3115 3.36228 2.9018 3.67565 2.86329 3.70511L2.86287 3.70543ZM6.23861 1.12214C6.23863 1.12214 6.23864 1.12214 6.23866 1.12214L6.2422 1.17201L6.23857 1.12215C6.23858 1.12215 6.2386 1.12214 6.23861 1.12214ZM7.78501 4.63036L7.78544 4.62988C7.88553 4.51662 7.87782 4.34254 7.76425 4.23954L7.76402 4.23933C6.65551 3.24673 5.65171 2.86138 4.82588 2.77212C4.97145 2.54564 5.1753 2.2938 5.41306 2.08791C5.67551 1.86063 5.97436 1.69352 6.27819 1.67189C6.79949 1.63495 7.23282 2.02741 7.55618 2.46933L7.55621 2.46938C7.66197 2.61355 7.76076 2.80802 7.8732 3.03003L7.87508 3.03374C7.98626 3.25329 8.10977 3.49717 8.26361 3.73527C8.56056 4.19486 8.97263 4.63625 9.63577 4.85147C9.28268 5.14302 8.7001 5.53718 7.97206 5.70853C7.19586 5.89121 6.25129 5.82151 5.23713 5.09695L5.2368 5.09672C4.88032 4.84634 4.65758 4.55537 4.55315 4.24444C4.45233 3.94423 4.46043 3.62136 4.57032 3.29194C5.31557 3.33056 6.27996 3.65322 7.3943 4.65122C7.5083 4.75449 7.68258 4.7433 7.78501 4.63036Z" fill="#DEE3CF" stroke="#DEE3CF" stroke-width="0.1"/>
<path d="M8.61486 7.52871L9.78259 6.77507L9.78263 6.77505L9.80974 6.81706C10.3182 6.48821 10.991 6.59206 11.3761 7.05937L8.61486 7.52871ZM8.61486 7.52871C8.48365 7.20938 8.16924 6.98557 7.80205 6.98557H5.98258C5.90653 6.98557 5.83292 6.9465 5.78783 6.88157L5.78777 6.88148C5.43888 6.38148 4.86982 6.08124 4.26263 6.08124H3.65739C3.25878 6.07275 2.86497 6.20582 2.45935 6.47727C2.31031 6.23941 2.04678 6.08124 1.74652 6.08124H0.686426C0.533018 6.08124 0.411426 6.20562 0.411426 6.35624V9.83941C0.411426 9.99282 0.535808 10.1144 0.686426 10.1144H1.74652C2.08489 10.1144 2.37646 9.91454 2.50889 9.6253C2.64928 9.64407 2.78841 9.68213 2.92638 9.73651C2.9265 9.73656 2.92662 9.7366 2.92674 9.73665L5.26687 10.7013C5.26688 10.7013 5.26688 10.7013 5.26689 10.7013C5.96341 10.9887 6.75257 10.9179 7.38475 10.5289L7.38485 10.5288L11.2334 8.14699C11.2334 8.14696 11.2335 8.14694 11.2335 8.14691C11.621 7.91015 11.7063 7.37737 11.4147 7.02757L8.61486 7.52871ZM10.941 7.68099L10.9409 7.68103L7.09221 10.0629C7.09219 10.0629 7.09217 10.063 7.09214 10.063C6.60589 10.3618 6.00182 10.4123 5.47591 10.1956C5.47591 10.1956 5.47591 10.1956 5.47591 10.1956L3.13511 9.23071C3.1351 9.23071 3.13509 9.23071 3.13508 9.2307C2.95674 9.15691 2.77259 9.10775 2.58619 9.0833V7.04353C2.63638 7.01845 2.69188 6.98371 2.75086 6.94674L2.7551 6.94408C2.82631 6.89944 2.90509 6.85006 2.99344 6.80374C3.17322 6.7095 3.39034 6.62925 3.65174 6.6334L3.65174 6.6334H3.65253H4.26263C4.68744 6.6334 5.0896 6.84375 5.33343 7.19369C5.4792 7.40868 5.7219 7.53557 5.98258 7.53557H7.80205C7.98213 7.53557 8.12849 7.68193 8.12849 7.86201C8.12849 8.04784 7.97639 8.19062 7.80205 8.19062H4.90734C4.75393 8.19062 4.63234 8.315 4.63234 8.46562C4.63234 8.61655 4.75641 8.74062 4.90734 8.74062H7.80205C8.17221 8.74062 8.4938 8.51175 8.6199 8.17837L10.0813 7.23554C10.3761 7.04575 10.7673 7.10452 10.9889 7.37639C11.0681 7.47508 11.0441 7.61741 10.941 7.68099ZM2.03402 9.27475C2.03402 9.43319 1.90497 9.56225 1.74652 9.56225H0.963589V6.6334H1.74652C1.90497 6.6334 2.03402 6.76246 2.03402 6.9209V9.27475Z" fill="#DEE3CF" stroke="#DEE3CF" stroke-width="0.1"/>
</g>
<defs>
<clipPath id="clip0_2_14677">
<rect width="11.0769" height="11.0769" fill="white" transform="translate(0.461426 0.460938)"/>
</clipPath>
</defs>
</svg>
