<svg width="11" height="11" viewBox="0 0 11 11" fill="none" xmlns="http://www.w3.org/2000/svg">
<path d="M7.71174 3.63951C7.78449 3.6022 7.85964 3.56397 7.93646 3.5249C8.39054 3.29393 8.90257 3.03349 9.31787 2.75805C9.41684 2.69179 9.52199 2.62875 9.62985 2.60941C9.74252 2.58921 9.8539 2.61727 9.96021 2.72093C10.0253 2.77717 10.0475 2.84873 10.0498 2.92391C10.0519 2.99239 10.0376 3.0686 10.0235 3.14351L7.71174 3.63951ZM7.71174 3.63951C7.72022 2.7743 7.61687 1.92745 7.53127 1.38082L7.53137 1.38081L7.53068 1.3777C7.52682 1.36035 7.52312 1.34312 7.51948 1.32619C7.51085 1.28595 7.50257 1.24741 7.49335 1.21285C7.4801 1.16324 7.46357 1.11618 7.43725 1.07608C7.41016 1.03481 7.37357 1.00226 7.32299 0.980687C7.27354 0.959598 7.21307 0.95 7.13905 0.95C7.0154 0.95 6.89411 1.03371 6.79099 1.12524C6.7208 1.18754 6.65162 1.26067 6.59064 1.32512C6.56132 1.35611 6.5339 1.3851 6.50918 1.40991C6.02202 1.8837 5.47912 2.37563 4.98714 2.82143C4.84735 2.9481 4.71167 3.07104 4.58255 3.18878L4.58254 3.18878C3.50825 4.1687 2.32791 5.26284 1.76597 5.9634M7.71174 3.63951L10.021 3.15699M10.021 3.15699C9.92976 3.70635 9.7621 4.55183 9.47728 5.38777L9.47721 5.38801C9.23871 6.07692 8.93544 6.93995 8.19812 7.56991C6.6091 9.07588 4.13413 10.0654 1.44456 10.0654C1.29067 10.0654 1.18986 9.98685 1.1251 9.87453C1.0625 9.76597 1.0321 9.62403 1.01214 9.48704C0.964231 9.22722 0.938695 8.87307 0.954842 8.47419C0.987107 7.67688 1.18239 6.69078 1.76597 5.9634M10.021 3.15699C10.0209 3.15716 10.0209 3.15731 10.0209 3.15747L9.97174 3.14828L10.0211 3.15646L10.021 3.15699ZM1.76597 5.9634L1.80497 5.99469M1.76597 5.9634C1.76597 5.9634 1.76597 5.96341 1.76597 5.96341L1.80497 5.99469M1.80497 5.99469C1.2311 6.70997 1.03688 7.68346 1.0048 8.47621C0.988755 8.87259 1.01426 9.22331 1.06148 9.47889M1.80497 5.99469L1.06148 9.47889M1.06148 9.47889C1.10118 9.75202 1.17924 10.0154 1.44456 10.0154C4.1232 10.0154 6.58589 9.02952 8.16466 7.53273L1.06148 9.47889ZM2.08738 6.15921C1.5761 6.79646 1.37593 7.72705 1.34522 8.4859C1.34135 8.58149 1.34633 8.65883 1.35294 8.73391C1.36646 8.69196 1.38041 8.64989 1.39481 8.60777M2.08738 6.15921L5.99854 3.28378M2.08738 6.15921C2.61336 5.50346 3.7909 4.40406 4.86463 3.42466L2.08738 6.15921ZM1.39481 8.60777C1.3964 8.65391 1.39979 8.69664 1.40366 8.73956C1.48988 8.47318 1.5934 8.20271 1.71996 7.94655C2.08521 7.20914 2.5923 6.52518 3.40466 6.03481M1.39481 8.60777C1.39353 8.57065 1.39342 8.53132 1.39518 8.48792C1.4257 7.73375 1.62476 6.81571 2.12638 6.1905L2.12638 6.19049C2.64937 5.53848 3.82347 4.44203 4.89833 3.4616L4.89833 3.46161L4.89882 3.46114C5.16021 3.21617 5.42178 2.98097 5.68028 2.74852C6.07777 2.3911 6.46803 2.04017 6.83934 1.67018L6.83947 1.67005C6.92881 1.58037 7.01456 1.48942 7.08814 1.39545C7.0894 1.40312 7.09086 1.4112 7.09269 1.41934C7.18441 2.00271 7.29095 2.95766 7.25895 3.87376C7.12991 3.94035 7.01458 4.00018 6.89377 4.06284C6.80426 4.10928 6.71174 4.15727 6.6084 4.21074C6.23047 4.40627 5.84732 4.60761 5.46895 4.80893L3.37857 5.99216M1.39481 8.60777C1.4735 8.37758 1.56571 8.14587 1.67514 7.92441L1.67516 7.92436C2.04318 7.18133 2.55585 6.48885 3.37857 5.99216M3.40466 6.03481C3.56579 5.93488 3.74658 5.8294 3.93392 5.7201C4.17757 5.57795 4.4323 5.42933 4.66926 5.27805C5.00939 4.81282 5.31535 4.38282 5.55011 4.03344C5.78488 3.68404 5.94939 3.40685 5.99854 3.28378M3.40466 6.03481L3.37831 5.99232C3.3784 5.99227 3.37848 5.99222 3.37857 5.99216M3.40466 6.03481L3.37883 5.99201C3.37874 5.99206 3.37865 5.99211 3.37857 5.99216M5.99854 3.28378L5.95176 3.26613C5.9836 3.18172 6.07249 3.13142 6.16455 3.13274M5.99854 3.28378L5.95211 3.26524C5.90525 3.38257 5.74385 3.65546 5.50861 4.00555L6.16455 3.13274M6.16455 3.13274C6.23705 3.13352 6.30086 3.16473 6.34071 3.21361C6.38093 3.26294 6.39628 3.33048 6.36893 3.39632C6.36888 3.39645 6.36883 3.39657 6.36878 3.39669L6.32264 3.37741C6.25203 3.55423 6.08451 3.82422 5.84621 4.17887L6.16455 3.13274ZM1.64183 9.37004C1.9615 9.1142 2.54768 8.64889 3.36435 8.01631C3.40769 7.81956 3.45286 7.62028 3.49771 7.42242C3.50657 7.38335 3.51541 7.34433 3.52423 7.30539L3.57299 7.31643M1.64183 9.37004L3.40929 8.04474C3.45378 7.84243 3.50027 7.6373 3.54647 7.43351C3.55533 7.39442 3.56417 7.35539 3.57299 7.31643M1.64183 9.37004C1.70088 9.07762 1.79283 8.7803 1.88316 8.53748L1.88325 8.53723C2.20474 7.65872 2.81751 6.83989 3.64048 6.30836C4.96924 5.50764 6.15186 4.89836 7.454 4.2275C7.50054 4.20352 7.54723 4.17946 7.59409 4.15531L7.59409 4.15532L7.59495 4.15486C7.83922 4.02289 8.09132 3.89288 8.33807 3.76563C8.66766 3.59567 8.98772 3.43062 9.26687 3.27235L9.26687 3.27236L9.26786 3.27177L9.27494 3.26753C9.38295 3.20297 9.49069 3.13856 9.58917 3.0695C9.58869 3.07457 9.58829 3.07989 9.58808 3.08536C9.49915 3.62311 9.33044 4.46108 9.05351 5.27387C8.77537 6.09019 8.38235 6.87071 7.89152 7.2883L7.89145 7.28835C6.19197 8.73912 3.96857 9.51782 1.95683 9.64629M1.64183 9.37004L1.95683 9.64629M3.57299 7.31643L3.52403 7.30632C3.54382 7.21048 3.63642 7.14807 3.73568 7.14605M3.57299 7.31643C3.58709 7.2482 3.65554 7.19769 3.7367 7.19604M3.73568 7.14605L3.7367 7.19604M3.73568 7.14605C3.73567 7.14605 3.73565 7.14605 3.73564 7.14605L3.7367 7.19604M3.73568 7.14605C3.86726 7.14329 3.98892 7.24921 3.95675 7.38276L3.95683 7.38238L3.90806 7.37136M3.7367 7.19604C3.84663 7.19372 3.93042 7.27944 3.90806 7.37136M3.90806 7.37136L3.95665 7.38318M3.90806 7.37136L3.8466 7.64328C3.86716 7.62753 3.88782 7.61172 3.90858 7.59585M3.95665 7.38318L7.92392 7.32638C6.19538 8.80194 3.9291 9.58527 1.88932 9.70044C1.91035 9.68356 1.93286 9.6655 1.95683 9.64629M3.95665 7.38318L3.90858 7.59585M3.95665 7.38318L5.88293 5.59263M3.90858 7.59585L3.89137 7.67197C4.46193 7.23524 5.10934 6.74661 5.7808 6.26736M3.90858 7.59585C4.4632 7.1717 5.08829 6.70061 5.73626 6.23773M5.7808 6.26736L5.93183 5.60307M5.7808 6.26736L5.75175 6.22667C5.74658 6.23035 5.74142 6.23404 5.73626 6.23773M5.7808 6.26736L5.73204 6.25628L5.73626 6.23773M5.93183 5.60307C5.94634 5.53514 6.01469 5.48519 6.09553 5.48354M5.93183 5.60307L5.88293 5.59263M5.93183 5.60307L5.88293 5.59263M6.09553 5.48354C6.20547 5.48122 6.28926 5.56694 6.2669 5.65886M6.09553 5.48354L6.09448 5.43355C6.09449 5.43355 6.0945 5.43355 6.09451 5.43355M6.09553 5.48354L6.09451 5.43355M6.2669 5.65886L6.2109 5.90536C6.23128 5.89135 6.25152 5.87748 6.27163 5.86374M6.2669 5.65886L6.31549 5.67068L6.27163 5.86374M6.2669 5.65886L6.31566 5.66993L6.31558 5.6703C6.34779 5.53673 6.22611 5.43079 6.09451 5.43355M6.27163 5.86374L6.25533 5.93551C6.73765 5.60451 7.13927 5.35186 7.41115 5.24162M6.27163 5.86374C6.73396 5.54786 7.12341 5.30434 7.39236 5.19529M7.41115 5.24162C7.43549 5.23149 7.46235 5.22624 7.48949 5.22653M7.41115 5.24162L7.39236 5.19529M7.41115 5.24162L7.39193 5.19546C7.39207 5.19541 7.39221 5.19535 7.39236 5.19529M7.48949 5.22653C7.67234 5.22838 7.72428 5.44113 7.55751 5.50517M7.48949 5.22653L7.49003 5.17653M7.48949 5.22653L7.49 5.17653H7.49003M7.55751 5.50517C7.002 5.7402 6.52973 6.09526 6.06934 6.44138C5.87776 6.58541 5.68824 6.7279 5.49564 6.85954L5.5815 6.86104M7.55751 5.50517L7.57543 5.55185C7.57571 5.55174 7.57598 5.55163 7.57626 5.55153M7.55751 5.50517L7.57699 5.55122C7.57675 5.55132 7.5765 5.55142 7.57626 5.55153M5.5815 6.86104C5.55792 6.87746 5.53431 6.89372 5.51066 6.90981L5.76813 6.91429M5.5815 6.86104L5.76851 6.86429M5.5815 6.86104C5.75554 6.73984 5.92797 6.61022 6.10122 6.47998C6.22342 6.38812 6.34602 6.29596 6.46989 6.20622C6.81486 5.95631 7.17396 5.72183 7.57626 5.55153M5.76813 6.91429C6.00099 6.91352 5.99446 7.21389 5.76179 7.20574M5.76813 6.91429L5.769 6.8643L5.76851 6.86429M5.76813 6.91429L5.76796 6.86429C5.76815 6.86429 5.76833 6.86429 5.76851 6.86429M5.76179 7.20574L5.03964 7.1929C4.73547 7.42015 4.42705 7.65295 4.12478 7.8845C3.0673 8.69459 2.2454 9.35057 1.87053 9.65141C1.89925 9.64983 1.92802 9.64813 1.95683 9.64629M5.76179 7.20574L5.76091 7.25573L5.7605 7.25572L5.05586 7.24319C4.75626 7.4671 4.45273 7.69626 4.15519 7.92419C3.14714 8.69641 2.35325 9.32853 1.95683 9.64629M5.76179 7.20574L1.95683 9.64629M5.76851 6.86429L6.09451 5.43355M7.57626 5.55153C7.68129 5.5108 7.7244 5.41758 7.70318 5.33067C7.68233 5.24526 7.6024 5.17768 7.49003 5.17653M7.49003 5.17653C7.45632 5.17617 7.42289 5.18264 7.39236 5.19529M5.88293 5.59263L5.73626 6.23773M9.9264 2.7578C9.73523 2.57031 9.54391 2.66688 9.3456 2.79965L9.9264 2.7578Z" fill="#DEE3CF" stroke="#DEE3CF" stroke-width="0.1"/>
</svg>
