<svg width="9" height="8" viewBox="0 0 9 8" fill="none" xmlns="http://www.w3.org/2000/svg">
<path d="M3.69258 7.49665C3.56816 7.49747 3.4448 7.47763 3.3297 7.4383C3.21461 7.39897 3.1101 7.34094 3.02227 7.2676L0.276291 4.98252C0.183396 4.90506 0.110936 4.81234 0.0635428 4.71026C0.0161492 4.60818 -0.00513654 4.499 0.00104545 4.38969C0.0171124 4.1679 0.13268 3.95921 0.324864 3.80495L4.57013 0.26954C4.66881 0.183016 4.78792 0.114411 4.92 0.068038C5.05207 0.0216647 5.19424 -0.00147508 5.33758 7.28358e-05L8.0188 0.0566609C8.26219 0.0608805 8.49396 0.144135 8.66459 0.28864C8.83521 0.433145 8.93117 0.627444 8.93196 0.830031L8.99997 3.05852C9.00112 3.17812 8.973 3.29665 8.91733 3.40691C8.86166 3.51716 8.7796 3.61684 8.67615 3.69986L4.43736 7.24335C4.25313 7.40461 4.00168 7.50104 3.73467 7.51281L3.69258 7.49665ZM3.4821 6.88765C3.51178 6.91201 3.54733 6.93084 3.5864 6.94292C3.62547 6.955 3.66718 6.96004 3.70877 6.95771C3.81029 6.95174 3.90577 6.91536 3.97754 6.85532L8.22928 3.31721C8.26845 3.28583 8.29956 3.24815 8.32071 3.20646C8.34186 3.16477 8.35262 3.11994 8.35233 3.07469L8.28433 0.843505C8.28433 0.779899 8.25396 0.718899 8.19991 0.673923C8.14587 0.628946 8.07256 0.603679 7.99613 0.603679L5.31491 0.547091C5.26061 0.547304 5.20691 0.556463 5.15689 0.574037C5.10687 0.591612 5.06152 0.617256 5.02347 0.649489L0.771734 4.18759C0.699576 4.24731 0.655862 4.32677 0.648683 4.41125C0.645887 4.44586 0.651945 4.48056 0.666458 4.51308C0.680971 4.5456 0.703609 4.57518 0.732876 4.59988L3.4821 6.88765ZM6.78181 2.66241C6.52425 2.66222 6.27732 2.57692 6.09531 2.42528C5.95933 2.31226 5.86669 2.16822 5.82911 2.01138C5.79152 1.85453 5.81069 1.69194 5.88418 1.54417C5.95768 1.39639 6.08219 1.27008 6.24197 1.1812C6.40175 1.09233 6.58962 1.04489 6.78181 1.04489C6.974 1.04489 7.16186 1.09233 7.32165 1.1812C7.48143 1.27008 7.60594 1.39639 7.67943 1.54417C7.75292 1.69194 7.77209 1.85453 7.73451 2.01138C7.69693 2.16822 7.60429 2.31226 7.4683 2.42528C7.28629 2.57692 7.03937 2.66222 6.78181 2.66241ZM6.78181 1.58454C6.73919 1.58433 6.69694 1.59113 6.65749 1.60454C6.61804 1.61795 6.58215 1.63771 6.5519 1.66268C6.5217 1.68781 6.49775 1.71764 6.48141 1.75046C6.46507 1.78329 6.45666 1.81847 6.45666 1.85401C6.45666 1.88954 6.46507 1.92472 6.48141 1.95755C6.49775 1.99038 6.5217 2.0202 6.5519 2.04533C6.58209 2.07045 6.61793 2.09038 6.65738 2.10398C6.69683 2.11758 6.73911 2.12458 6.78181 2.12458C6.82451 2.12458 6.86679 2.11758 6.90623 2.10398C6.94568 2.09038 6.98153 2.07045 7.01172 2.04533C7.04173 2.02015 7.06548 1.99029 7.08159 1.95746C7.0977 1.92463 7.10587 1.88947 7.10563 1.85401C7.10587 1.81854 7.0977 1.78339 7.08159 1.75056C7.06548 1.71773 7.04173 1.68786 7.01172 1.66268C6.98146 1.63771 6.94558 1.61795 6.90612 1.60454C6.86667 1.59113 6.82442 1.58433 6.78181 1.58454Z" fill="#DEE3CF"/>
</svg>
