<svg width="256" height="49" viewBox="0 0 256 49" fill="none" xmlns="http://www.w3.org/2000/svg">
<g filter="url(#filter0_d_2656_2938)">
<rect x="5" y="1" width="246" height="39" rx="6" fill="#034703" shape-rendering="crispEdges"/>
<rect x="5" y="1" width="246" height="39" rx="6" stroke="white" stroke-opacity="0.5" stroke-width="2" shape-rendering="crispEdges"/>
<path d="M71.0853 18.09C70.7373 17.358 70.2333 16.794 69.5733 16.398C68.9133 15.99 68.1453 15.786 67.2693 15.786C66.3933 15.786 65.6013 15.99 64.8933 16.398C64.1973 16.794 63.6453 17.37 63.2373 18.126C62.8413 18.87 62.6433 19.734 62.6433 20.718C62.6433 21.702 62.8413 22.566 63.2373 23.31C63.6453 24.054 64.1973 24.63 64.8933 25.038C65.6013 25.434 66.3933 25.632 67.2693 25.632C68.4933 25.632 69.5013 25.266 70.2933 24.534C71.0853 23.802 71.5473 22.812 71.6793 21.564H66.6753V20.232H73.4253V21.492C73.3293 22.524 73.0053 23.472 72.4533 24.336C71.9013 25.188 71.1753 25.866 70.2753 26.37C69.3753 26.862 68.3733 27.108 67.2693 27.108C66.1053 27.108 65.0433 26.838 64.0833 26.298C63.1233 25.746 62.3613 24.984 61.7973 24.012C61.2453 23.04 60.9693 21.942 60.9693 20.718C60.9693 19.494 61.2453 18.396 61.7973 17.424C62.3613 16.44 63.1233 15.678 64.0833 15.138C65.0433 14.586 66.1053 14.31 67.2693 14.31C68.6013 14.31 69.7773 14.64 70.7973 15.3C71.8293 15.96 72.5793 16.89 73.0473 18.09H71.0853ZM84.5911 21.69C84.5911 22.002 84.5731 22.332 84.5371 22.68H76.6531C76.7131 23.652 77.0431 24.414 77.6431 24.966C78.2551 25.506 78.9931 25.776 79.8571 25.776C80.5651 25.776 81.1531 25.614 81.6211 25.29C82.1011 24.954 82.4371 24.51 82.6291 23.958H84.3931C84.1291 24.906 83.6011 25.68 82.8091 26.28C82.0171 26.868 81.0331 27.162 79.8571 27.162C78.9211 27.162 78.0811 26.952 77.3371 26.532C76.6051 26.112 76.0291 25.518 75.6091 24.75C75.1891 23.97 74.9791 23.07 74.9791 22.05C74.9791 21.03 75.1831 20.136 75.5911 19.368C75.9991 18.6 76.5691 18.012 77.3011 17.604C78.0451 17.184 78.8971 16.974 79.8571 16.974C80.7931 16.974 81.6211 17.178 82.3411 17.586C83.0611 17.994 83.6131 18.558 83.9971 19.278C84.3931 19.986 84.5911 20.79 84.5911 21.69ZM82.8991 21.348C82.8991 20.724 82.7611 20.19 82.4851 19.746C82.2091 19.29 81.8311 18.948 81.3511 18.72C80.8831 18.48 80.3611 18.36 79.7851 18.36C78.9571 18.36 78.2491 18.624 77.6611 19.152C77.0851 19.68 76.7551 20.412 76.6711 21.348H82.8991ZM88.7512 18.486V24.3C88.7512 24.78 88.8532 25.122 89.0572 25.326C89.2612 25.518 89.6152 25.614 90.1192 25.614H91.3252V27H89.8492C88.9372 27 88.2532 26.79 87.7972 26.37C87.3412 25.95 87.1132 25.26 87.1132 24.3V18.486H85.8352V17.136H87.1132V14.652H88.7512V17.136H91.3252V18.486H88.7512ZM98.9547 15.534C98.6427 15.534 98.3787 15.426 98.1627 15.21C97.9467 14.994 97.8387 14.73 97.8387 14.418C97.8387 14.106 97.9467 13.842 98.1627 13.626C98.3787 13.41 98.6427 13.302 98.9547 13.302C99.2547 13.302 99.5067 13.41 99.7107 13.626C99.9267 13.842 100.035 14.106 100.035 14.418C100.035 14.73 99.9267 14.994 99.7107 15.21C99.5067 15.426 99.2547 15.534 98.9547 15.534ZM99.7467 17.136V27H98.1087V17.136H99.7467ZM104.536 18.486V24.3C104.536 24.78 104.638 25.122 104.842 25.326C105.046 25.518 105.4 25.614 105.904 25.614H107.11V27H105.634C104.722 27 104.038 26.79 103.582 26.37C103.126 25.95 102.898 25.26 102.898 24.3V18.486H101.62V17.136H102.898V14.652H104.536V17.136H107.11V18.486H104.536ZM118.196 27.162C117.272 27.162 116.432 26.952 115.676 26.532C114.932 26.112 114.344 25.518 113.912 24.75C113.492 23.97 113.282 23.07 113.282 22.05C113.282 21.042 113.498 20.154 113.93 19.386C114.374 18.606 114.974 18.012 115.73 17.604C116.486 17.184 117.332 16.974 118.268 16.974C119.204 16.974 120.05 17.184 120.806 17.604C121.562 18.012 122.156 18.6 122.588 19.368C123.032 20.136 123.254 21.03 123.254 22.05C123.254 23.07 123.026 23.97 122.57 24.75C122.126 25.518 121.52 26.112 120.752 26.532C119.984 26.952 119.132 27.162 118.196 27.162ZM118.196 25.722C118.784 25.722 119.336 25.584 119.852 25.308C120.368 25.032 120.782 24.618 121.094 24.066C121.418 23.514 121.58 22.842 121.58 22.05C121.58 21.258 121.424 20.586 121.112 20.034C120.8 19.482 120.392 19.074 119.888 18.81C119.384 18.534 118.838 18.396 118.25 18.396C117.65 18.396 117.098 18.534 116.594 18.81C116.102 19.074 115.706 19.482 115.406 20.034C115.106 20.586 114.956 21.258 114.956 22.05C114.956 22.854 115.1 23.532 115.388 24.084C115.688 24.636 116.084 25.05 116.576 25.326C117.068 25.59 117.608 25.722 118.196 25.722ZM130.213 16.956C131.413 16.956 132.385 17.322 133.129 18.054C133.873 18.774 134.245 19.818 134.245 21.186V27H132.625V21.42C132.625 20.436 132.379 19.686 131.887 19.17C131.395 18.642 130.723 18.378 129.871 18.378C129.007 18.378 128.317 18.648 127.801 19.188C127.297 19.728 127.045 20.514 127.045 21.546V27H125.407V17.136H127.045V18.54C127.369 18.036 127.807 17.646 128.359 17.37C128.923 17.094 129.541 16.956 130.213 16.956ZM150.108 18.126C150.108 19.17 149.748 20.04 149.028 20.736C148.32 21.42 147.234 21.762 145.77 21.762H143.358V27H141.72V14.454H145.77C147.186 14.454 148.26 14.796 148.992 15.48C149.736 16.164 150.108 17.046 150.108 18.126ZM145.77 20.412C146.682 20.412 147.354 20.214 147.786 19.818C148.218 19.422 148.434 18.858 148.434 18.126C148.434 16.578 147.546 15.804 145.77 15.804H143.358V20.412H145.77ZM153.782 13.68V27H152.144V13.68H153.782ZM155.962 22.032C155.962 21.024 156.166 20.142 156.574 19.386C156.982 18.618 157.54 18.024 158.248 17.604C158.968 17.184 159.766 16.974 160.642 16.974C161.506 16.974 162.256 17.16 162.892 17.532C163.528 17.904 164.002 18.372 164.314 18.936V17.136H165.97V27H164.314V25.164C163.99 25.74 163.504 26.22 162.856 26.604C162.22 26.976 161.476 27.162 160.624 27.162C159.748 27.162 158.956 26.946 158.248 26.514C157.54 26.082 156.982 25.476 156.574 24.696C156.166 23.916 155.962 23.028 155.962 22.032ZM164.314 22.05C164.314 21.306 164.164 20.658 163.864 20.106C163.564 19.554 163.156 19.134 162.64 18.846C162.136 18.546 161.578 18.396 160.966 18.396C160.354 18.396 159.796 18.54 159.292 18.828C158.788 19.116 158.386 19.536 158.086 20.088C157.786 20.64 157.636 21.288 157.636 22.032C157.636 22.788 157.786 23.448 158.086 24.012C158.386 24.564 158.788 24.99 159.292 25.29C159.796 25.578 160.354 25.722 160.966 25.722C161.578 25.722 162.136 25.578 162.64 25.29C163.156 24.99 163.564 24.564 163.864 24.012C164.164 23.448 164.314 22.794 164.314 22.05ZM177.234 17.136L171.294 31.644H169.602L171.546 26.892L167.568 17.136H169.386L172.482 25.128L175.542 17.136H177.234ZM187.657 27.126C186.829 27.126 186.085 26.982 185.425 26.694C184.777 26.394 184.267 25.986 183.895 25.47C183.523 24.942 183.331 24.336 183.319 23.652H185.065C185.125 24.24 185.365 24.738 185.785 25.146C186.217 25.542 186.841 25.74 187.657 25.74C188.437 25.74 189.049 25.548 189.493 25.164C189.949 24.768 190.177 24.264 190.177 23.652C190.177 23.172 190.045 22.782 189.781 22.482C189.517 22.182 189.187 21.954 188.791 21.798C188.395 21.642 187.861 21.474 187.189 21.294C186.361 21.078 185.695 20.862 185.191 20.646C184.699 20.43 184.273 20.094 183.913 19.638C183.565 19.17 183.391 18.546 183.391 17.766C183.391 17.082 183.565 16.476 183.913 15.948C184.261 15.42 184.747 15.012 185.371 14.724C186.007 14.436 186.733 14.292 187.549 14.292C188.725 14.292 189.685 14.586 190.429 15.174C191.185 15.762 191.611 16.542 191.707 17.514H189.907C189.847 17.034 189.595 16.614 189.151 16.254C188.707 15.882 188.119 15.696 187.387 15.696C186.703 15.696 186.145 15.876 185.713 16.236C185.281 16.584 185.065 17.076 185.065 17.712C185.065 18.168 185.191 18.54 185.443 18.828C185.707 19.116 186.025 19.338 186.397 19.494C186.781 19.638 187.315 19.806 187.999 19.998C188.827 20.226 189.493 20.454 189.997 20.682C190.501 20.898 190.933 21.24 191.293 21.708C191.653 22.164 191.833 22.788 191.833 23.58C191.833 24.192 191.671 24.768 191.347 25.308C191.023 25.848 190.543 26.286 189.907 26.622C189.271 26.958 188.521 27.126 187.657 27.126ZM196.241 18.486V24.3C196.241 24.78 196.343 25.122 196.547 25.326C196.751 25.518 197.105 25.614 197.609 25.614H198.815V27H197.339C196.427 27 195.743 26.79 195.287 26.37C194.831 25.95 194.603 25.26 194.603 24.3V18.486H193.325V17.136H194.603V14.652H196.241V17.136H198.815V18.486H196.241ZM205.102 27.162C204.178 27.162 203.338 26.952 202.582 26.532C201.838 26.112 201.25 25.518 200.818 24.75C200.398 23.97 200.188 23.07 200.188 22.05C200.188 21.042 200.404 20.154 200.836 19.386C201.28 18.606 201.88 18.012 202.636 17.604C203.392 17.184 204.238 16.974 205.174 16.974C206.11 16.974 206.956 17.184 207.712 17.604C208.468 18.012 209.062 18.6 209.494 19.368C209.938 20.136 210.16 21.03 210.16 22.05C210.16 23.07 209.932 23.97 209.476 24.75C209.032 25.518 208.426 26.112 207.658 26.532C206.89 26.952 206.038 27.162 205.102 27.162ZM205.102 25.722C205.69 25.722 206.242 25.584 206.758 25.308C207.274 25.032 207.688 24.618 208 24.066C208.324 23.514 208.486 22.842 208.486 22.05C208.486 21.258 208.33 20.586 208.018 20.034C207.706 19.482 207.298 19.074 206.794 18.81C206.29 18.534 205.744 18.396 205.156 18.396C204.556 18.396 204.004 18.534 203.5 18.81C203.008 19.074 202.612 19.482 202.312 20.034C202.012 20.586 201.862 21.258 201.862 22.05C201.862 22.854 202.006 23.532 202.294 24.084C202.594 24.636 202.99 25.05 203.482 25.326C203.974 25.59 204.514 25.722 205.102 25.722ZM213.952 18.738C214.24 18.174 214.648 17.736 215.176 17.424C215.716 17.112 216.37 16.956 217.138 16.956V18.648H216.706C214.87 18.648 213.952 19.644 213.952 21.636V27H212.314V17.136H213.952V18.738ZM228.029 21.69C228.029 22.002 228.011 22.332 227.975 22.68H220.091C220.151 23.652 220.481 24.414 221.081 24.966C221.693 25.506 222.431 25.776 223.295 25.776C224.003 25.776 224.591 25.614 225.059 25.29C225.539 24.954 225.875 24.51 226.067 23.958H227.831C227.567 24.906 227.039 25.68 226.247 26.28C225.455 26.868 224.471 27.162 223.295 27.162C222.359 27.162 221.519 26.952 220.775 26.532C220.043 26.112 219.467 25.518 219.047 24.75C218.627 23.97 218.417 23.07 218.417 22.05C218.417 21.03 218.621 20.136 219.029 19.368C219.437 18.6 220.007 18.012 220.739 17.604C221.483 17.184 222.335 16.974 223.295 16.974C224.231 16.974 225.059 17.178 225.779 17.586C226.499 17.994 227.051 18.558 227.435 19.278C227.831 19.986 228.029 20.79 228.029 21.69ZM226.337 21.348C226.337 20.724 226.199 20.19 225.923 19.746C225.647 19.29 225.269 18.948 224.789 18.72C224.321 18.48 223.799 18.36 223.223 18.36C222.395 18.36 221.687 18.624 221.099 19.152C220.523 19.68 220.193 20.412 220.109 21.348H226.337Z" fill="#F6F6F6"/>
<g clip-path="url(#clip0_2656_2938)">
<path d="M41.794 11.3164C41.5213 11.6217 41.3838 12.0119 41.4094 12.4078V29.5935C41.3832 29.9892 41.5217 30.3792 41.794 30.685L41.8555 30.7421L52.1586 21.1135V20.8878L41.8555 11.2578L41.794 11.315V11.3164Z" fill="url(#paint0_linear_2656_2938)"/>
<path d="M55.5901 24.3249L52.1562 21.1134V20.8863L55.5932 17.6777L55.6701 17.7192L59.7393 19.8792C60.9024 20.4963 60.9024 21.5049 59.7393 22.122L55.6701 24.2849L55.5932 24.3263L55.5901 24.3249Z" fill="url(#paint1_linear_2656_2938)"/>
<path d="M55.666 24.2814L52.1537 21L41.7891 30.6843C42.0254 30.8789 42.3279 30.9903 42.6437 30.9989C42.9595 31.0075 43.2685 30.9129 43.5168 30.7314L55.666 24.2814Z" fill="url(#paint2_linear_2656_2938)"/>
<path d="M55.666 17.7187L43.5168 11.2687C43.2687 11.0871 42.9598 10.9922 42.644 11.0005C42.3282 11.0089 42.0256 11.12 41.7891 11.3144L52.1537 21.0001L55.666 17.7187Z" fill="url(#paint3_linear_2656_2938)"/>
<path opacity="0.2" d="M55.5906 24.209L43.5168 30.6176C43.2781 30.7876 42.9861 30.8805 42.6852 30.882C42.3844 30.8836 42.0913 30.7937 41.8506 30.6261L41.7891 30.6833L41.8506 30.7404C42.0913 30.908 42.3844 30.9979 42.6852 30.9963C42.9861 30.9948 43.2781 30.9019 43.5168 30.7318L55.666 24.2818L55.5891 24.2104L55.5906 24.209Z" fill="#0F0F0F"/>
<path opacity="0.12" d="M41.794 30.5714C41.5213 30.2661 41.3838 29.8759 41.4094 29.48V29.5929C41.3832 29.9886 41.5217 30.3786 41.794 30.6843L41.8555 30.6271L41.794 30.5714ZM59.7417 22.0086L55.594 24.2086L55.6709 24.2814L59.7417 22.1214C59.9817 22.0241 60.1892 21.8687 60.3424 21.6714C60.4956 21.4741 60.5889 21.2422 60.6125 21C60.5611 21.2192 60.4558 21.4243 60.3047 21.5993C60.1536 21.7743 59.9609 21.9144 59.7417 22.0086Z" fill="#0F0F0F"/>
<path opacity="0.25" d="M43.5225 11.3803L59.7409 19.9903C59.961 20.0835 60.1546 20.2232 60.306 20.3984C60.4575 20.5735 60.5627 20.7792 60.6132 20.9988C60.5882 20.7568 60.4942 20.5253 60.3409 20.3282C60.1876 20.1311 59.9805 19.9755 59.7409 19.8774L43.5225 11.2674C42.3609 10.6503 41.4102 11.1631 41.4102 12.4074V12.5203C41.4102 11.2774 42.3609 10.7631 43.5225 11.3803Z" fill="#0F0D13"/>
</g>
</g>
<defs>
<filter id="filter0_d_2656_2938" x="0" y="0" width="256" height="49" filterUnits="userSpaceOnUse" color-interpolation-filters="sRGB">
<feFlood flood-opacity="0" result="BackgroundImageFix"/>
<feColorMatrix in="SourceAlpha" type="matrix" values="0 0 0 0 0 0 0 0 0 0 0 0 0 0 0 0 0 0 127 0" result="hardAlpha"/>
<feOffset dy="4"/>
<feGaussianBlur stdDeviation="2"/>
<feComposite in2="hardAlpha" operator="out"/>
<feColorMatrix type="matrix" values="0 0 0 0 0 0 0 0 0 0 0 0 0 0 0 0 0 0 0.25 0"/>
<feBlend mode="normal" in2="BackgroundImageFix" result="effect1_dropShadow_2656_2938"/>
<feBlend mode="normal" in="SourceGraphic" in2="effect1_dropShadow_2656_2938" result="shape"/>
</filter>
<linearGradient id="paint0_linear_2656_2938" x1="51.2448" y1="12.2264" x2="38.2346" y2="26.1514" gradientUnits="userSpaceOnUse">
<stop stop-color="#00A0FF"/>
<stop offset="0.007" stop-color="#00A1FF"/>
<stop offset="0.26" stop-color="#00BEFF"/>
<stop offset="0.512" stop-color="#00D2FF"/>
<stop offset="0.76" stop-color="#00DFFF"/>
<stop offset="1" stop-color="#00E3FF"/>
</linearGradient>
<linearGradient id="paint1_linear_2656_2938" x1="61.2516" y1="21.0006" x2="41.1286" y2="21.0006" gradientUnits="userSpaceOnUse">
<stop stop-color="#FFE000"/>
<stop offset="0.409" stop-color="#FFBD00"/>
<stop offset="0.775" stop-color="#FFA500"/>
<stop offset="1" stop-color="#FF9C00"/>
</linearGradient>
<linearGradient id="paint2_linear_2656_2938" x1="53.7568" y1="22.7829" x2="36.1144" y2="41.6672" gradientUnits="userSpaceOnUse">
<stop stop-color="#FF3A44"/>
<stop offset="1" stop-color="#C31162"/>
</linearGradient>
<linearGradient id="paint3_linear_2656_2938" x1="39.1783" y1="5.59583" x2="47.0575" y2="14.0274" gradientUnits="userSpaceOnUse">
<stop stop-color="#32A071"/>
<stop offset="0.069" stop-color="#2DA771"/>
<stop offset="0.476" stop-color="#15CF74"/>
<stop offset="0.801" stop-color="#06E775"/>
<stop offset="1" stop-color="#00F076"/>
</linearGradient>
<clipPath id="clip0_2656_2938">
<rect width="20" height="20" fill="white" transform="translate(41.0078 11)"/>
</clipPath>
</defs>
</svg>
