<svg width="49" height="48" viewBox="0 0 49 48" fill="none" xmlns="http://www.w3.org/2000/svg">
<path d="M3.07031 23.8148H5.44156H3.07031ZM24.4116 45.175V42.8037V45.175ZM45.7528 23.8148H43.3816H45.7528ZM24.4116 2.45459V0.0833399V2.45459ZM8.31123 39.3881C7.9347 40.6424 8.64628 41.9645 9.90058 42.341C11.1549 42.7176 12.477 42.006 12.8535 40.7517L8.31123 39.3881ZM19.669 33.3082L19.6683 35.6795H19.669V33.3082ZM29.154 33.3082V35.6795H29.1548L29.154 33.3082ZM35.9732 40.7624C36.3477 42.0173 37.6687 42.7309 38.9236 42.3563C40.1785 41.9818 40.8921 40.6608 40.5175 39.4059L35.9732 40.7624ZM0.699063 23.8148C0.699063 26.931 1.31229 30.0167 2.50378 32.8957L6.88585 31.0822C5.93235 28.7782 5.44156 26.3087 5.44156 23.8148H0.699063ZM2.50378 32.8957C3.69528 35.7748 5.44174 38.3909 7.64355 40.5947L10.9985 37.2427C9.23686 35.4796 7.83935 33.3862 6.88585 31.0822L2.50378 32.8957ZM7.64355 40.5947C9.84536 42.7985 12.4594 44.5467 15.3365 45.7395L17.1527 41.3586C14.8513 40.4045 12.7601 39.0059 10.9985 37.2427L7.64355 40.5947ZM15.3365 45.7395C18.2136 46.9323 21.2973 47.5462 24.4116 47.5462V42.8037C21.9207 42.8037 19.4541 42.3127 17.1527 41.3586L15.3365 45.7395ZM24.4116 47.5462C27.5258 47.5462 30.6095 46.9323 33.4866 45.7395L31.6704 41.3586C29.369 42.3127 26.9024 42.8037 24.4116 42.8037V47.5462ZM33.4866 45.7395C36.3637 44.5467 38.9778 42.7985 41.1796 40.5947L37.8246 37.2427C36.063 39.0059 33.9718 40.4045 31.6704 41.3586L33.4866 45.7395ZM41.1796 40.5947C43.3814 38.3909 45.1278 35.7748 46.3193 32.8957L41.9373 31.0822C40.9838 33.3862 39.5863 35.4796 37.8246 37.2427L41.1796 40.5947ZM46.3193 32.8957C47.5108 30.0167 48.1241 26.931 48.1241 23.8148H43.3816C43.3816 26.3087 42.8908 28.7782 41.9373 31.0822L46.3193 32.8957ZM48.1241 23.8148C48.1241 20.6986 47.5108 17.6129 46.3193 14.7338L41.9373 16.5473C42.8908 18.8513 43.3816 21.3208 43.3816 23.8148H48.1241ZM46.3193 14.7338C45.1278 11.8548 43.3814 9.23863 41.1796 7.03486L37.8246 10.3868C39.5863 12.15 40.9838 14.2434 41.9373 16.5473L46.3193 14.7338ZM41.1796 7.03486C38.9778 4.8311 36.3637 3.08286 33.4866 1.89007L31.6704 6.271C33.9718 7.22512 36.063 8.62364 37.8246 10.3868L41.1796 7.03486ZM33.4866 1.89007C30.6095 0.697287 27.5258 0.0833399 24.4116 0.0833399V4.82584C26.9024 4.82584 29.369 5.31689 31.6704 6.271L33.4866 1.89007ZM24.4116 0.0833399C21.2973 0.0833399 18.2136 0.697287 15.3365 1.89007L17.1527 6.271C19.4541 5.31689 21.9207 4.82584 24.4116 4.82584V0.0833399ZM15.3365 1.89007C12.4594 3.08286 9.84536 4.8311 7.64355 7.03486L10.9985 10.3868C12.7601 8.62364 14.8513 7.22512 17.1527 6.271L15.3365 1.89007ZM7.64355 7.03486C5.44174 9.23863 3.69528 11.8548 2.50378 14.7338L6.88585 16.5473C7.83935 14.2433 9.23686 12.15 10.9985 10.3868L7.64355 7.03486ZM2.50378 14.7338C1.31229 17.6129 0.699063 20.6986 0.699063 23.8148H5.44156C5.44156 21.3208 5.93235 18.8513 6.88585 16.5473L2.50378 14.7338ZM14.9266 19.0681C14.9266 21.5847 15.9254 23.9986 17.7039 25.7787L21.0588 22.4267C20.1692 21.5363 19.6691 20.3282 19.6691 19.0681H14.9266ZM17.7039 25.7787C19.4825 27.5589 21.8953 28.5594 24.4116 28.5594V23.8169C23.1544 23.8169 21.9484 23.3171 21.0588 22.4267L17.7039 25.7787ZM24.4116 28.5594C26.9278 28.5594 29.3406 27.5589 31.1192 25.7787L27.7643 22.4267C26.8747 23.3171 25.6687 23.8169 24.4116 23.8169V28.5594ZM31.1192 25.7787C32.8978 23.9986 33.8966 21.5847 33.8966 19.0681H29.1541C29.1541 20.3282 28.6539 21.5363 27.7643 22.4267L31.1192 25.7787ZM33.8966 19.0681C33.8966 16.5515 32.8978 14.1376 31.1192 12.3574L27.7643 15.7094C28.6539 16.5998 29.1541 17.8079 29.1541 19.0681H33.8966ZM31.1192 12.3574C29.3406 10.5772 26.9278 9.57676 24.4116 9.57676V14.3193C25.6687 14.3193 26.8747 14.8191 27.7643 15.7094L31.1192 12.3574ZM24.4116 9.57676C21.8953 9.57676 19.4825 10.5772 17.7039 12.3574L21.0588 15.7094C21.9484 14.8191 23.1544 14.3193 24.4116 14.3193V9.57676ZM17.7039 12.3574C15.9254 14.1376 14.9266 16.5515 14.9266 19.0681H19.6691C19.6691 17.8079 20.1692 16.5998 21.0588 15.7094L17.7039 12.3574ZM12.8535 40.7517C13.2939 39.2845 14.195 37.999 15.4226 37.0854L12.5914 33.2808C10.5454 34.8033 9.04462 36.945 8.31123 39.3881L12.8535 40.7517ZM15.4226 37.0854C16.6502 36.1719 18.1391 35.679 19.6683 35.6795L19.6697 30.937C17.1196 30.9362 14.6375 31.7582 12.5914 33.2808L15.4226 37.0854ZM19.669 35.6795H29.154V30.937H19.669V35.6795ZM29.1548 35.6795C30.686 35.6789 32.1766 36.173 33.4051 37.0887L36.2392 33.2861C34.1917 31.7601 31.7065 30.9361 29.1532 30.937L29.1548 35.6795ZM33.4051 37.0887C34.6337 38.0043 35.5345 39.2926 35.9732 40.7624L40.5175 39.4059C39.787 36.9585 38.2867 34.8121 36.2392 33.2861L33.4051 37.0887Z" fill="#034703" fill-opacity="0.75"/>
</svg>
