<svg width="49" height="43" viewBox="0 0 49 43" fill="none" xmlns="http://www.w3.org/2000/svg">
<path d="M43.8961 24.4701C44.8262 23.5481 44.8328 22.0467 43.9108 21.1167C42.9888 20.1866 41.4875 20.18 40.5574 21.102L43.8961 24.4701ZM24.4424 40.4153L22.773 42.0994C23.6973 43.0156 25.1874 43.0156 26.1117 42.0994L24.4424 40.4153ZM6.658 22.786L8.32737 21.102C8.32243 21.0971 8.31746 21.0922 8.31247 21.0873L6.658 22.786ZM24.4424 7.20257L22.5386 8.61626C22.9846 9.21682 23.6878 9.57173 24.4358 9.57382C25.1838 9.5759 25.8889 9.2249 26.3382 8.62683L24.4424 7.20257ZM40.5644 21.1093C39.6305 22.0274 39.6177 23.5287 40.5358 24.4626C41.4539 25.3965 42.9552 25.4093 43.8891 24.4912L40.5644 21.1093ZM40.5574 21.102L22.773 38.7313L26.1117 42.0994L43.8961 24.4701L40.5574 21.102ZM26.1117 38.7313L8.32737 21.102L4.98864 24.4701L22.773 42.0994L26.1117 38.7313ZM8.31247 21.0873C7.37394 20.1732 6.63454 19.0744 6.14097 17.86L1.74748 19.6457C2.4874 21.4662 3.59598 23.1138 5.00354 24.4847L8.31247 21.0873ZM6.14097 17.86C5.64739 16.6456 5.41036 15.342 5.44485 14.0312L0.703995 13.9065C0.652291 15.8711 1.00756 17.8251 1.74748 19.6457L6.14097 17.86ZM5.44485 14.0312C5.47935 12.7205 5.78462 11.4312 6.34138 10.2445L2.04792 8.23017C1.21326 10.0092 0.755698 11.9419 0.703995 13.9065L5.44485 14.0312ZM6.34138 10.2445C6.89813 9.05782 7.69427 7.99952 8.67954 7.13618L5.55407 3.56929C4.07633 4.86415 2.88259 6.45112 2.04792 8.23017L6.34138 10.2445ZM8.67954 7.13618C9.66481 6.27284 10.8179 5.62315 12.0661 5.2279L10.6344 0.706657C8.76157 1.29971 7.03182 2.27442 5.55407 3.56929L8.67954 7.13618ZM12.0661 5.2279C13.3143 4.83265 14.6307 4.70036 15.9324 4.83935L16.4359 0.123652C14.4826 -0.0849056 12.5073 0.113606 10.6344 0.706657L12.0661 5.2279ZM15.9324 4.83935C17.2342 4.97833 18.4931 5.38559 19.6301 6.03556L21.9838 1.91837C20.2782 0.943304 18.3893 0.332208 16.4359 0.123652L15.9324 4.83935ZM19.6301 6.03556C20.767 6.68553 21.7574 7.56417 22.5386 8.61626L26.3461 5.78889C25.1747 4.2113 23.6894 2.89343 21.9838 1.91837L19.6301 6.03556ZM26.3382 8.62683C27.1229 7.58239 28.1143 6.71142 29.2505 6.06835L26.9145 1.9411C25.21 2.90582 23.7231 4.21218 22.5465 5.77832L26.3382 8.62683ZM29.2505 6.06835C30.3867 5.42528 31.6431 5.02391 32.9412 4.88927L32.4519 0.172076C30.504 0.374116 28.6189 0.976385 26.9145 1.9411L29.2505 6.06835ZM32.9412 4.88927C34.2393 4.75463 35.5511 4.8896 36.7948 5.28578L38.2343 0.767023C36.3683 0.172589 34.3998 -0.0299635 32.4519 0.172076L32.9412 4.88927ZM36.7948 5.28578C38.0384 5.68195 39.1871 6.33083 40.1689 7.19192L43.296 3.62644C41.8234 2.33494 40.1003 1.36146 38.2343 0.767023L36.7948 5.28578ZM40.1689 7.19192C41.1507 8.05301 41.9445 9.10779 42.5005 10.2903L46.7923 8.27244C45.9588 6.49963 44.7686 4.91794 43.296 3.62644L40.1689 7.19192ZM42.5005 10.2903C43.0565 11.4729 43.3627 12.7576 43.3998 14.0642L48.1404 13.9294C48.0848 11.9711 47.6258 10.0452 46.7923 8.27244L42.5005 10.2903ZM43.3998 14.0642C43.437 15.3707 43.2043 16.6708 42.7163 17.8831L47.1158 19.6539C47.8473 17.8366 48.1961 15.8878 48.1404 13.9294L43.3998 14.0642ZM42.7163 17.8831C42.2284 19.0954 41.4957 20.1937 40.5644 21.1093L43.8891 24.4912C45.2859 23.1181 46.3843 21.4713 47.1158 19.6539L42.7163 17.8831Z" fill="#034703" fill-opacity="0.75"/>
</svg>
