<svg width="43" height="44" viewBox="0 0 43 44" fill="none" xmlns="http://www.w3.org/2000/svg">
<path d="M42.5676 24.7654C42.7377 23.4669 41.823 22.2763 40.5245 22.1062C39.226 21.9361 38.0354 22.8508 37.8653 24.1493L42.5676 24.7654ZM16.6818 3.6003L16.0922 1.30352L16.0906 1.30393L16.6818 3.6003ZM36.8277 15.7436C37.312 16.9603 38.691 17.5541 39.9078 17.0698C41.1245 16.5854 41.7183 15.2064 41.234 13.9897L36.8277 15.7436ZM42.7464 3.00003C42.7464 1.69042 41.6848 0.628776 40.3752 0.628776C39.0656 0.628776 38.0039 1.69042 38.0039 3.00003H42.7464ZM40.3752 14.8668V17.2381C41.6848 17.2381 42.7464 16.1764 42.7464 14.8668H40.3752ZM28.5189 12.4956C27.2093 12.4956 26.1477 13.5572 26.1477 14.8668C26.1477 16.1764 27.2093 17.2381 28.5189 17.2381V12.4956ZM37.8653 24.1493C37.4734 27.1404 36.2754 29.9681 34.4 32.3292L38.1137 35.2788C40.5243 32.2438 42.064 28.6094 42.5676 24.7654L37.8653 24.1493ZM34.4 32.3292C32.5247 34.6903 30.0428 36.4956 27.2207 37.5519L28.883 41.9935C32.5121 40.6352 35.703 38.3139 38.1137 35.2788L34.4 32.3292ZM27.2207 37.5519C24.3985 38.6081 21.3425 38.8755 18.3801 38.3255L17.5143 42.9883C21.3239 43.6957 25.254 43.3517 28.883 41.9935L27.2207 37.5519ZM18.3801 38.3255C15.4178 37.7754 12.6607 36.4286 10.4046 34.4292L7.25917 37.9785C10.1597 40.549 13.7048 42.2809 17.5143 42.9883L18.3801 38.3255ZM10.4046 34.4292C8.14854 32.4298 6.47855 29.8532 5.57404 26.9756L1.04978 28.3977C2.21225 32.096 4.35869 35.408 7.25917 37.9785L10.4046 34.4292ZM5.57404 26.9756C4.66953 24.098 4.56469 21.0282 5.2708 18.0955L0.660062 16.9853C-0.247395 20.7544 -0.112679 24.6995 1.04978 28.3977L5.57404 26.9756ZM5.2708 18.0955C5.97691 15.1628 7.46726 12.478 9.58175 10.329L6.20128 7.00278C3.48298 9.76542 1.56752 13.2163 0.660062 16.9853L5.2708 18.0955ZM9.58175 10.329C11.6962 8.18003 14.3551 6.6479 17.273 5.89667L16.0906 1.30393C12.3382 2.26999 8.91959 4.24013 6.20128 7.00278L9.58175 10.329ZM17.2714 5.89708C25.3816 3.81516 33.7434 7.99495 36.8277 15.7436L41.234 13.9897C37.2519 3.98559 26.473 -1.36127 16.0922 1.30352L17.2714 5.89708ZM38.0039 3.00003V14.8668H42.7464V3.00003H38.0039ZM40.3752 12.4956H28.5189V17.2381H40.3752V12.4956Z" fill="#034703" fill-opacity="0.75"/>
</svg>
