<svg width="551" height="573" viewBox="0 0 551 573" fill="none" xmlns="http://www.w3.org/2000/svg">
<path fill-rule="evenodd" clip-rule="evenodd" d="M293.297 37.7882C174.573 42.8041 75.5808 87.1287 0 210.947C30.1774 116.204 90.0151 35.4523 233.135 2.66568C367.571 -13.8448 492.546 45.5689 550.086 202.611C499.797 159.199 444.841 137.132 336.208 171.591C261.184 195.386 195.473 180.355 131.756 154.333C159.944 91.2975 212.517 51.8712 293.297 37.7882Z" fill="url(#paint0_linear_141_2698)"/>
<path fill-rule="evenodd" clip-rule="evenodd" d="M386.667 547.491C467.635 510.739 524.204 451.252 549.079 362.965C508.852 434.239 453.127 482.495 381.483 509.699C342.943 524.332 301.715 528.792 261.701 533.727C332.575 517.72 391.02 485.413 418.662 417.207C344.67 378.155 271.87 382.396 200.599 404.245C118.53 429.735 53.1749 415.81 1.05859 370.67C24.1448 436.09 70.0194 497.569 138.157 535.286C231.005 586.683 314.407 580.291 386.667 547.491Z" fill="url(#paint1_linear_141_2698)"/>
<path d="M274.207 245.226C281.527 236.811 293.096 232.604 308.915 232.604C324.734 232.604 336.303 236.811 343.624 245.226C350.943 253.64 354.603 267.394 354.603 286.487C354.603 305.579 350.943 319.333 343.624 327.747C336.303 336.162 324.734 340.369 308.915 340.369C293.096 340.369 281.527 336.162 274.207 327.747C266.887 319.333 263.227 305.579 263.227 286.487C263.227 267.394 266.887 253.64 274.207 245.226Z" fill="white"/>
<path d="M503.153 278.811H540.144V299.477V328.854C529.435 336.531 516.907 340.369 502.562 340.369C486.743 340.369 475.175 336.162 467.854 327.748C460.535 319.333 456.875 305.579 456.875 286.487C456.875 267.394 460.535 253.641 467.854 245.226C475.175 236.812 486.743 232.605 502.562 232.605C509.244 232.605 515.901 233.466 522.532 235.188C529.165 236.91 534.347 239.1 538.08 241.758L524.817 262.129C518.725 258.291 513.862 255.88 510.227 254.895C507.77 254.305 505.215 254.009 502.562 254.009C499.222 254.009 496.569 254.748 494.605 256.225C492.639 257.7 491.018 260.899 489.741 265.82C488.463 270.741 487.825 277.629 487.825 286.487C487.825 295.344 488.463 302.233 489.741 307.154C491.018 312.075 492.639 315.273 494.605 316.749C496.569 318.225 499.222 318.964 502.562 318.964C505.314 318.964 508.507 318.275 512.143 316.897V299.477H498.731L503.153 278.811Z" fill="white"/>
<path d="M443.243 312.911C444.421 316.454 447.075 317.488 451.201 316.012V338.155C447.566 339.631 443.783 340.369 439.853 340.369C434.94 340.369 430.617 339.09 426.884 336.531C423.15 333.972 420.498 330.134 418.926 325.016L414.504 310.549C413.128 306.023 411.458 303.07 409.493 301.691C407.823 300.511 405.366 299.872 402.124 299.773L403.893 279.105C406.251 279.795 408.167 280.139 409.641 280.139C412.588 280.139 414.872 279.057 416.494 276.892C418.115 274.727 418.926 272.02 418.926 268.772C418.926 265.23 417.845 262.129 415.683 259.472C413.521 256.816 410.476 255.486 406.545 255.486H398.882V338.155H369.406V234.819H409.493C422.266 234.819 431.919 237.993 438.453 244.341C444.986 250.688 448.254 258.193 448.254 266.853C448.254 272.659 446.854 277.974 444.053 282.796C441.253 287.619 437.445 290.965 432.632 292.835C435.088 294.213 437.151 297.116 438.822 301.544L443.243 312.911Z" fill="white"/>
<path d="M47.8064 340.369C34.9353 340.369 23.5873 337.121 13.7617 330.626L24.9634 309.663C28.009 312.419 31.7916 314.707 36.3114 316.528C40.831 318.349 44.9569 319.26 48.6912 319.26C51.6387 319.26 54.0461 318.521 55.9132 317.044C57.7797 315.569 58.7128 313.797 58.7128 311.73C58.7128 308.286 56.6008 305.53 52.3752 303.463L38.5217 296.672C30.9561 293.032 25.2577 288.357 21.4254 282.649C17.5936 276.941 15.6786 270.987 15.6786 264.786C15.6786 256.027 19.1172 248.498 25.9945 242.2C32.873 235.902 42.0592 232.752 53.5542 232.752C66.1305 232.752 77.3323 236 87.1577 242.495L75.367 262.867C66.8181 256.47 59.2535 253.272 52.6704 253.272C50.018 253.272 47.9543 254.009 46.4805 255.486C45.0064 256.962 44.2699 258.734 44.2699 260.8C44.2699 265.427 46.8246 268.969 51.9339 271.429L65.3445 278.073C72.6157 281.615 78.1427 286.118 81.9249 291.58C85.7074 297.042 87.5988 302.775 87.5988 308.777C87.5988 317.34 84.0126 324.746 76.8408 330.995C69.6681 337.245 59.99 340.369 47.8064 340.369ZM128.718 317.488H170.427L166.005 338.155H124.886H99.2427V234.819H128.718H167.479V255.486H128.718V276.153H160.11V296.821H128.718V317.488ZM212.43 317.488H253.401L248.98 338.155H207.861H182.955V234.819H212.43V317.488Z" fill="white"/>
<path fill-rule="evenodd" clip-rule="evenodd" d="M288.359 261.85C280.193 289.166 291.158 318.589 315.193 333.866C315.975 313.753 313.314 293.855 307.21 274.169C316.964 299.23 321.551 318.925 320.973 333.25C334.346 317.553 337.813 295.674 329.952 276.601C322.091 257.527 304.226 244.47 283.691 242.793C288.915 248.641 290.47 254.993 288.359 261.85Z" fill="#034703"/>
<defs>
<linearGradient id="paint0_linear_141_2698" x1="542.943" y1="428.977" x2="662.496" y2="127.253" gradientUnits="userSpaceOnUse">
<stop stop-color="#A9D046"/>
<stop offset="1" stop-color="#00A85A"/>
</linearGradient>
<linearGradient id="paint1_linear_141_2698" x1="-107.902" y1="391.415" x2="8.07013" y2="683.845" gradientUnits="userSpaceOnUse">
<stop stop-color="#A9D046"/>
<stop offset="1" stop-color="#00A85A"/>
</linearGradient>
</defs>
</svg>
