<svg width="24" height="24" viewBox="0 0 24 24" fill="none" xmlns="http://www.w3.org/2000/svg">
<path fill-rule="evenodd" clip-rule="evenodd" d="M12.8633 0.351347C12.6382 0.12638 12.3331 0 12.0149 0C11.6967 0 11.3915 0.12638 11.1665 0.351347L2.76638 8.75144L0.36635 11.1515C0.251736 11.2622 0.160317 11.3946 0.0974253 11.541C0.0345338 11.6874 0.0014299 11.8449 4.53085e-05 12.0042C-0.00133929 12.1635 0.0290231 12.3215 0.0893608 12.469C0.149699 12.6165 0.238803 12.7505 0.351476 12.8632C0.464148 12.9758 0.598132 13.0649 0.745609 13.1253C0.893086 13.1856 1.0511 13.216 1.21044 13.2146C1.36978 13.2132 1.52724 13.1801 1.67365 13.1172C1.82006 13.0543 1.95247 12.9629 2.06317 12.8483L2.41477 12.4967V20.4C2.41477 21.3548 2.79406 22.2704 3.4692 22.9456C4.14434 23.6207 5.06002 24 6.01481 24H18.0149C18.9697 24 19.8854 23.6207 20.5606 22.9456C21.2357 22.2704 21.615 21.3548 21.615 20.4V12.4967L21.9666 12.8483C22.1929 13.0669 22.496 13.1878 22.8107 13.1851C23.1253 13.1824 23.4263 13.0562 23.6488 12.8337C23.8713 12.6112 23.9975 12.3102 24.0002 11.9956C24.0029 11.6809 23.882 11.3778 23.6634 11.1515L12.8633 0.351347Z" fill="#034703"/>
<path d="M12.0384 19.3464C11.2171 19.3464 10.4811 19.213 9.83042 18.9464C9.17976 18.6797 8.65709 18.285 8.26242 17.7624C7.87842 17.2397 7.67576 16.6104 7.65442 15.8744H10.5664C10.6091 16.2904 10.7531 16.6104 10.9984 16.8344C11.2438 17.0477 11.5638 17.1544 11.9584 17.1544C12.3638 17.1544 12.6838 17.0637 12.9184 16.8824C13.1531 16.6904 13.2704 16.429 13.2704 16.0984C13.2704 15.821 13.1744 15.5917 12.9824 15.4104C12.8011 15.229 12.5718 15.0797 12.2944 14.9624C12.0278 14.845 11.6438 14.7117 11.1424 14.5624C10.4171 14.3384 9.82509 14.1144 9.36642 13.8904C8.90776 13.6664 8.51309 13.3357 8.18242 12.8984C7.85176 12.461 7.68642 11.8904 7.68642 11.1864C7.68642 10.141 8.06509 9.32504 8.82242 8.73837C9.57976 8.14104 10.5664 7.84237 11.7824 7.84237C13.0198 7.84237 14.0171 8.14104 14.7744 8.73837C15.5318 9.32504 15.9371 10.1464 15.9904 11.2024H13.0304C13.0091 10.8397 12.8758 10.557 12.6304 10.3544C12.3851 10.141 12.0704 10.0344 11.6864 10.0344C11.3558 10.0344 11.0891 10.125 10.8864 10.3064C10.6838 10.477 10.5824 10.7277 10.5824 11.0584C10.5824 11.421 10.7531 11.7037 11.0944 11.9064C11.4358 12.109 11.9691 12.3277 12.6944 12.5624C13.4198 12.8077 14.0064 13.0424 14.4544 13.2664C14.9131 13.4904 15.3078 13.8157 15.6384 14.2424C15.9691 14.669 16.1344 15.2184 16.1344 15.8904C16.1344 16.5304 15.9691 17.1117 15.6384 17.6344C15.3184 18.157 14.8491 18.573 14.2304 18.8824C13.6118 19.1917 12.8811 19.3464 12.0384 19.3464Z" fill="white"/>
</svg>
