<svg width="49" height="58" viewBox="0 0 49 58" fill="none" xmlns="http://www.w3.org/2000/svg">
<path d="M19.9 32H18.19L15.33 27.67V32H13.62V24.98H15.33L18.19 29.33V24.98H19.9V32ZM26.3995 29.12C26.3995 29.28 26.3895 29.4467 26.3695 29.62H22.4995C22.5262 29.9667 22.6362 30.2333 22.8295 30.42C23.0295 30.6 23.2729 30.69 23.5595 30.69C23.9862 30.69 24.2829 30.51 24.4495 30.15H26.2695C26.1762 30.5167 26.0062 30.8467 25.7595 31.14C25.5195 31.4333 25.2162 31.6633 24.8495 31.83C24.4829 31.9967 24.0729 32.08 23.6195 32.08C23.0729 32.08 22.5862 31.9633 22.1595 31.73C21.7329 31.4967 21.3995 31.1633 21.1595 30.73C20.9195 30.2967 20.7995 29.79 20.7995 29.21C20.7995 28.63 20.9162 28.1233 21.1495 27.69C21.3895 27.2567 21.7229 26.9233 22.1495 26.69C22.5762 26.4567 23.0662 26.34 23.6195 26.34C24.1595 26.34 24.6395 26.4533 25.0595 26.68C25.4795 26.9067 25.8062 27.23 26.0395 27.65C26.2795 28.07 26.3995 28.56 26.3995 29.12ZM24.6495 28.67C24.6495 28.3767 24.5495 28.1433 24.3495 27.97C24.1495 27.7967 23.8995 27.71 23.5995 27.71C23.3129 27.71 23.0695 27.7933 22.8695 27.96C22.6762 28.1267 22.5562 28.3633 22.5095 28.67H24.6495ZM35.3116 26.42L33.8016 32H31.9116L31.0316 28.38L30.1216 32H28.2416L26.7216 26.42H28.4316L29.2216 30.41L30.1616 26.42H31.9716L32.9216 30.39L33.7016 26.42H35.3116Z" fill="#12410E"/>
<path d="M12.9326 12.72L12.9326 10.3487L12.9326 12.72ZM15.3038 12.72L15.3038 15.0912L15.3052 15.0912L15.3038 12.72ZM18.9792 11.201L20.652 12.8817L20.6567 12.877L18.9792 11.201ZM20.6391 9.5397L22.3166 11.2157L22.3213 11.211L20.6391 9.5397ZM24.3383 8L24.3383 5.62875L24.3383 8ZM28.0374 9.5397L26.3552 11.211L26.3599 11.2157L28.0374 9.5397ZM29.6973 11.201L28.0198 12.877L28.0239 12.8811L29.6973 11.201ZM35.744 12.72V10.3487V12.72ZM42.4783 23.9934L40.7968 25.6653L40.8009 25.6694L42.4783 23.9934ZM44.1382 25.6548L42.4607 27.3308L42.4654 27.3355L44.1382 25.6548ZM44.1382 33.0597L42.4654 31.379L42.4607 31.3837L44.1382 33.0597ZM42.4783 34.721L40.8008 33.045L40.7962 33.0497L42.4783 34.721ZM40.9607 38.3997L38.5895 38.3983V38.3997H40.9607ZM33.3727 45.9944L33.3727 43.6232L33.3714 43.6232L33.3727 45.9944ZM29.6973 47.5134L28.0245 45.8327L28.0198 45.8374L29.6973 47.5134ZM28.0374 49.1747L26.3599 47.4987L26.3552 47.5035L28.0374 49.1747ZM20.6391 49.1747L22.3213 47.5035L22.3166 47.4988L20.6391 49.1747ZM18.9792 47.5134L20.6567 45.8374L20.652 45.8327L18.9792 47.5134ZM15.3038 45.9944L15.3052 43.6232H15.3038V45.9944ZM7.7158 40.7731H5.34455H7.7158ZM7.7158 38.3997L10.0871 38.3997L10.0871 38.3983L7.7158 38.3997ZM6.19821 34.721L7.88039 33.0497L7.87568 33.045L6.19821 34.721ZM4.53833 33.0597L6.21581 31.3837L6.21109 31.379L4.53833 33.0597ZM3 29.3572H0.62875H3ZM4.53833 25.6548L6.21109 27.3355L6.2158 27.3308L4.53833 25.6548ZM6.19821 23.9934L7.87568 25.6694L7.88038 25.6647L6.19821 23.9934ZM7.7158 20.3147L10.0871 20.3161V20.3147H7.7158ZM10.0871 17.9414C10.0871 17.1848 10.3874 16.4596 10.9212 15.9253L7.56628 12.5733C6.14349 13.9974 5.34455 15.9284 5.34455 17.9414H10.0871ZM10.9212 15.9253C11.455 15.391 12.1786 15.0912 12.9326 15.0912L12.9326 10.3487C10.9194 10.3487 8.98915 11.1492 7.56628 12.5733L10.9212 15.9253ZM12.9326 15.0912H15.3038V10.3487H12.9326V15.0912ZM15.3052 15.0912C17.3094 15.0901 19.2314 14.2956 20.652 12.8817L17.3065 9.52036C16.7736 10.0508 16.0531 10.3483 15.3024 10.3487L15.3052 15.0912ZM20.6567 12.877L22.3166 11.2157L18.9616 7.86371L17.3018 9.52506L20.6567 12.877ZM22.3213 11.211C22.5858 10.9447 22.9002 10.7335 23.2463 10.5895L21.4239 6.21108C20.5004 6.59549 19.662 7.15877 18.9569 7.86843L22.3213 11.211ZM23.2463 10.5895C23.5925 10.4454 23.9635 10.3712 24.3383 10.3712L24.3383 5.62875C23.3379 5.62875 22.3475 5.82667 21.4239 6.21108L23.2463 10.5895ZM24.3383 10.3712C24.713 10.3712 25.0841 10.4454 25.4302 10.5895L27.2526 6.21108C26.3291 5.82667 25.3386 5.62875 24.3383 5.62875L24.3383 10.3712ZM25.4302 10.5895C25.7763 10.7335 26.0907 10.9447 26.3552 11.211L29.7196 7.86843C29.0145 7.15877 28.1761 6.59549 27.2526 6.21108L25.4302 10.5895ZM26.3599 11.2157L28.0198 12.877L31.3748 9.52506L29.7149 7.86371L26.3599 11.2157ZM28.0239 12.8811C29.4452 14.2968 31.37 15.0912 33.3727 15.0912V10.3487C32.6248 10.3487 31.9033 10.0515 31.3707 9.52099L28.0239 12.8811ZM33.3727 15.0912H35.744V10.3487H33.3727V15.0912ZM35.744 15.0912C36.498 15.0912 37.2215 15.391 37.7553 15.9253L41.1102 12.5733C39.6874 11.1492 37.7571 10.3487 35.744 10.3487V15.0912ZM37.7553 15.9253C38.2892 16.4596 38.5895 17.1848 38.5895 17.9414H43.332C43.332 15.9284 42.533 13.9974 41.1102 12.5733L37.7553 15.9253ZM38.5895 17.9414V20.3147H43.332V17.9414H38.5895ZM38.5895 20.3147C38.5895 22.3173 39.3824 24.2428 40.7968 25.6653L44.1599 22.3215C43.6298 21.7884 43.332 21.0653 43.332 20.3147H38.5895ZM40.8009 25.6694L42.4607 27.3308L45.8157 23.9788L44.1558 22.3174L40.8009 25.6694ZM42.4654 27.3355C42.7315 27.6002 42.9427 27.9151 43.0869 28.2621L47.4664 26.4425C47.0825 25.5187 46.52 24.6798 45.811 23.9741L42.4654 27.3355ZM43.0869 28.2621C43.231 28.6091 43.3053 28.9813 43.3053 29.3572H48.0478C48.0478 28.3568 47.8502 27.3663 47.4664 26.4425L43.0869 28.2621ZM43.3053 29.3572C43.3053 29.7331 43.231 30.1053 43.0869 30.4523L47.4664 32.272C47.8502 31.3482 48.0478 30.3576 48.0478 29.3572H43.3053ZM43.0869 30.4523C42.9427 30.7993 42.7315 31.1142 42.4654 31.379L45.811 34.7403C46.52 34.0346 47.0825 33.1958 47.4664 32.272L43.0869 30.4523ZM42.4607 31.3837L40.8009 33.045L44.1558 36.397L45.8157 34.7356L42.4607 31.3837ZM40.7962 33.0497C39.3836 34.4715 38.5906 36.3942 38.5895 38.3983L43.332 38.4011C43.3324 37.6478 43.6305 36.9257 44.1605 36.3923L40.7962 33.0497ZM38.5895 38.3997V40.7731H43.332V38.3997H38.5895ZM38.5895 40.7731C38.5895 41.5296 38.2892 42.2548 37.7553 42.7892L41.1102 46.1411C42.533 44.7171 43.332 42.7861 43.332 40.7731H38.5895ZM37.7553 42.7892C37.2215 43.3234 36.498 43.6232 35.744 43.6232V48.3657C37.7571 48.3657 39.6874 47.5652 41.1102 46.1411L37.7553 42.7892ZM35.744 43.6232H33.3727V48.3657H35.744V43.6232ZM33.3714 43.6232C31.3671 43.6243 29.4451 44.4188 28.0245 45.8327L31.37 49.1941C31.903 48.6637 32.6234 48.3661 33.3741 48.3657L33.3714 43.6232ZM28.0198 45.8374L26.3599 47.4988L29.7149 50.8507L31.3748 49.1894L28.0198 45.8374ZM26.3552 47.5035C26.0907 47.7697 25.7763 47.9809 25.4302 48.125L27.2526 52.5034C28.1761 52.1189 29.0145 51.5557 29.7196 50.846L26.3552 47.5035ZM25.4302 48.125C25.0841 48.269 24.713 48.3432 24.3383 48.3432V53.0857C25.3386 53.0857 26.3291 52.8878 27.2526 52.5034L25.4302 48.125ZM24.3383 48.3432C23.9635 48.3432 23.5925 48.269 23.2463 48.125L21.4239 52.5034C22.3475 52.8878 23.3379 53.0857 24.3383 53.0857V48.3432ZM23.2463 48.125C22.9002 47.9809 22.5858 47.7697 22.3213 47.5035L18.9569 50.846C19.662 51.5557 20.5004 52.1189 21.4239 52.5034L23.2463 48.125ZM22.3166 47.4988L20.6567 45.8374L17.3018 49.1894L18.9616 50.8507L22.3166 47.4988ZM20.652 45.8327C19.2314 44.4188 17.3094 43.6243 15.3052 43.6232L15.3024 48.3657C16.0531 48.3661 16.7736 48.6637 17.3065 49.1941L20.652 45.8327ZM15.3038 43.6232H12.9326V48.3657H15.3038V43.6232ZM12.9326 43.6232C12.1786 43.6232 11.455 43.3234 10.9212 42.7892L7.56628 46.1411C8.98915 47.5652 10.9194 48.3657 12.9326 48.3657V43.6232ZM10.9212 42.7892C10.3874 42.2548 10.0871 41.5296 10.0871 40.7731H5.34455C5.34455 42.7861 6.14349 44.7171 7.56628 46.1411L10.9212 42.7892ZM10.0871 40.7731V38.3997H5.34455V40.7731H10.0871ZM10.0871 38.3983C10.0859 36.3942 9.2929 34.4715 7.88038 33.0497L4.51603 36.3923C5.04605 36.9257 5.34412 37.6478 5.34456 38.4011L10.0871 38.3983ZM7.87568 33.045L6.2158 31.3837L2.86086 34.7356L4.52073 36.397L7.87568 33.045ZM6.21109 31.379C5.94506 31.1142 5.73384 30.7993 5.58967 30.4523L1.21015 32.272C1.59399 33.1958 2.15654 34.0347 2.86558 34.7403L6.21109 31.379ZM5.58967 30.4523C5.4455 30.1053 5.37125 29.7331 5.37125 29.3572H0.62875C0.62875 30.3576 0.82632 31.3481 1.21015 32.272L5.58967 30.4523ZM5.37125 29.3572C5.37125 28.9813 5.4455 28.6091 5.58967 28.2621L1.21015 26.4425C0.826319 27.3663 0.62875 28.3568 0.62875 29.3572L5.37125 29.3572ZM5.58967 28.2621C5.73384 27.9151 5.94506 27.6002 6.21109 27.3355L2.86558 23.9741C2.15654 24.6798 1.59399 25.5187 1.21015 26.4425L5.58967 28.2621ZM6.2158 27.3308L7.87568 25.6694L4.52073 22.3174L2.86086 23.9788L6.2158 27.3308ZM7.88038 25.6647C9.2929 24.243 10.0859 22.3202 10.0871 20.3161L5.34456 20.3134C5.34412 21.0666 5.04605 21.7887 4.51603 22.3222L7.88038 25.6647ZM10.0871 20.3147V17.9414H5.34455V20.3147H10.0871Z" fill="#034703" fill-opacity="0.75"/>
</svg>
