<svg width="24" height="24" viewBox="0 0 24 24" fill="none" xmlns="http://www.w3.org/2000/svg">
<mask id="mask0_219_20038" style="mask-type:alpha" maskUnits="userSpaceOnUse" x="0" y="0" width="24" height="24">
<rect width="24" height="24" fill="#D9D9D9"/>
</mask>
<g mask="url(#mask0_219_20038)">
<path d="M7 3V2.25V3ZM17 3V2.25V3ZM5 19H4.25H5ZM9 10.25C8.58579 10.25 8.25 10.5858 8.25 11C8.25 11.4142 8.58579 11.75 9 11.75V10.25ZM15 11.75C15.4142 11.75 15.75 11.4142 15.75 11C15.75 10.5858 15.4142 10.25 15 10.25V11.75ZM9 14.25C8.58579 14.25 8.25 14.5858 8.25 15C8.25 15.4142 8.58579 15.75 9 15.75V14.25ZM13 15.75C13.4142 15.75 13.75 15.4142 13.75 15C13.75 14.5858 13.4142 14.25 13 14.25V15.75ZM14 5V4.25C13.5858 4.25 13.25 4.58579 13.25 5H14ZM17 5H17.75C17.75 4.58579 17.4142 4.25 17 4.25V5ZM17 8V8.75C17.4142 8.75 17.75 8.41421 17.75 8H17ZM14 8H13.25C13.25 8.41421 13.5858 8.75 14 8.75V8ZM5.75 5C5.75 4.66848 5.8817 4.35054 6.11612 4.11612L5.05546 3.05546C4.53973 3.57118 4.25 4.27065 4.25 5H5.75ZM6.11612 4.11612C6.35054 3.8817 6.66848 3.75 7 3.75V2.25C6.27065 2.25 5.57118 2.53973 5.05546 3.05546L6.11612 4.11612ZM7 3.75H17V2.25H7V3.75ZM17 3.75C17.3315 3.75 17.6495 3.8817 17.8839 4.11612L18.9445 3.05546C18.4288 2.53973 17.7293 2.25 17 2.25V3.75ZM17.8839 4.11612C18.1183 4.35054 18.25 4.66848 18.25 5H19.75C19.75 4.27065 19.4603 3.57118 18.9445 3.05546L17.8839 4.11612ZM18.25 5V19H19.75V5H18.25ZM18.25 19C18.25 19.3315 18.1183 19.6495 17.8839 19.8839L18.9445 20.9445C19.4603 20.4288 19.75 19.7293 19.75 19H18.25ZM17.8839 19.8839C17.6495 20.1183 17.3315 20.25 17 20.25V21.75C17.7293 21.75 18.4288 21.4603 18.9445 20.9445L17.8839 19.8839ZM17 20.25H7V21.75H17V20.25ZM7 20.25C6.66848 20.25 6.35054 20.1183 6.11612 19.8839L5.05546 20.9445C5.57118 21.4603 6.27065 21.75 7 21.75V20.25ZM6.11612 19.8839C5.8817 19.6495 5.75 19.3315 5.75 19H4.25C4.25 19.7293 4.53973 20.4288 5.05546 20.9445L6.11612 19.8839ZM5.75 19V5H4.25V19H5.75ZM9 11.75H15V10.25H9V11.75ZM9 15.75H13V14.25H9V15.75ZM14 5.75H17V4.25H14V5.75ZM16.25 5V8H17.75V5H16.25ZM17 7.25H14V8.75H17V7.25ZM14.75 8V5H13.25V8H14.75Z" fill="#222222"/>
</g>
</svg>
