<svg width="66" height="66" viewBox="0 0 66 66" fill="none" xmlns="http://www.w3.org/2000/svg">
<mask id="mask0_170_17642" style="mask-type:alpha" maskUnits="userSpaceOnUse" x="0" y="0" width="66" height="66">
<rect y="0.0673828" width="65.8667" height="65.8667" fill="#D9D9D9"/>
</mask>
<g mask="url(#mask0_170_17642)">
<path d="M19.2102 22.023L19.21 23.923H19.2102V22.023ZM50.3295 22.023V23.923H50.3297L50.3295 22.023ZM55.7553 28.3462L57.6331 28.6353L57.6332 28.635L55.7553 28.3462ZM52.311 50.7189L50.4331 50.4298L50.4331 50.4301L52.311 50.7189ZM44.171 57.7008L44.1715 55.8008H44.171V57.7008ZM25.366 57.7008L25.3659 59.6008H25.366V57.7008ZM17.2288 50.7189L19.1067 50.4301L19.1066 50.4298L17.2288 50.7189ZM13.7845 28.3462L11.9066 28.635L11.9066 28.6353L13.7845 28.3462ZM24.6344 30.2563C24.6344 31.3057 25.485 32.1563 26.5344 32.1563C27.5837 32.1563 28.4344 31.3057 28.4344 30.2563H24.6344ZM34.7677 8.30078V6.40078V8.30078ZM43.001 16.5341H44.901H43.001ZM41.101 30.2563C41.101 31.3057 41.9517 32.1563 43.001 32.1563C44.0504 32.1563 44.901 31.3057 44.901 30.2563H41.101ZM19.2102 23.923H50.3295V20.123H19.2102V23.923ZM50.3297 23.923C50.8472 23.9229 51.3585 24.0348 51.8287 24.2508L53.4155 20.798C52.4474 20.3531 51.3946 20.1229 50.3293 20.123L50.3297 23.923ZM51.8287 24.2508C52.2989 24.4669 52.7168 24.7821 53.0538 25.1748L55.9376 22.7003C55.2439 21.8918 54.3835 21.2428 53.4155 20.798L51.8287 24.2508ZM53.0538 25.1748C53.3908 25.5675 53.6388 26.0284 53.781 26.526L57.4348 25.4821C57.1421 24.4577 56.6314 23.5088 55.9376 22.7003L53.0538 25.1748ZM53.781 26.526C53.9231 27.0236 53.956 27.546 53.8773 28.0574L57.6332 28.635C57.7951 27.582 57.7274 26.5065 57.4348 25.4821L53.781 26.526ZM53.8774 28.0571L50.4331 50.4298L54.1889 51.008L57.6331 28.6353L53.8774 28.0571ZM50.4331 50.4301C50.2031 51.9257 49.4452 53.2896 48.2966 54.2747L50.7706 57.1591C52.6083 55.5828 53.8209 53.4007 54.1889 51.0077L50.4331 50.4301ZM48.2966 54.2747C47.148 55.2599 45.6847 55.8012 44.1715 55.8008L44.1704 59.6008C46.5915 59.6015 48.9329 58.7353 50.7706 57.1591L48.2966 54.2747ZM44.171 55.8008H25.366V59.6008H44.171V55.8008ZM25.3661 55.8008C23.8533 55.8007 22.3905 55.2591 21.2423 54.274L18.7679 57.158C20.6049 58.7341 22.9454 59.6007 25.3659 59.6008L25.3661 55.8008ZM21.2423 54.274C20.0942 53.2889 19.3366 51.9254 19.1067 50.4301L15.3508 51.0077C15.7188 53.4001 16.9309 55.5818 18.7679 57.158L21.2423 54.274ZM19.1066 50.4298L15.6624 28.0571L11.9066 28.6353L15.3509 51.008L19.1066 50.4298ZM15.6624 28.0574C15.5838 27.546 15.6166 27.0236 15.7588 26.526L12.105 25.4821C11.8123 26.5065 11.7446 27.582 11.9066 28.635L15.6624 28.0574ZM15.7588 26.526C15.9009 26.0284 16.149 25.5675 16.486 25.1748L13.6021 22.7003C12.9083 23.5088 12.3976 24.4577 12.105 25.4821L15.7588 26.526ZM16.486 25.1748C16.8229 24.7821 17.2408 24.4669 17.711 24.2508L16.1243 20.798C15.1563 21.2428 14.2959 21.8918 13.6021 22.7003L16.486 25.1748ZM17.711 24.2508C18.1812 24.0348 18.6926 23.9229 19.21 23.923L19.2105 20.123C18.1451 20.1229 17.0923 20.3531 16.1243 20.798L17.711 24.2508ZM28.4344 30.2563V16.5341H24.6344V30.2563H28.4344ZM28.4344 16.5341C28.4344 14.8544 29.1016 13.2435 30.2894 12.0558L27.6023 9.36877C25.702 11.2691 24.6344 13.8466 24.6344 16.5341H28.4344ZM30.2894 12.0558C31.4771 10.868 33.088 10.2008 34.7677 10.2008V6.40078C32.0802 6.40078 29.5027 7.4684 27.6023 9.36877L30.2894 12.0558ZM34.7677 10.2008C36.4474 10.2008 38.0583 10.868 39.246 12.0558L41.933 9.36877C40.0327 7.4684 37.4552 6.40078 34.7677 6.40078V10.2008ZM39.246 12.0558C40.4338 13.2435 41.101 14.8544 41.101 16.5341H44.901C44.901 13.8466 43.8334 11.2691 41.933 9.36877L39.246 12.0558ZM41.101 16.5341V30.2563H44.901V16.5341H41.101Z" fill="white"/>
</g>
</svg>
