<svg width="24" height="24" viewBox="0 0 24 24" fill="none" xmlns="http://www.w3.org/2000/svg">
<g clip-path="url(#clip0_256_23487)">
<path d="M22.5 10.5002V6.0002C22.5 5.60238 22.342 5.22085 22.0607 4.93954C21.7794 4.65824 21.3978 4.5002 21 4.5002H20.553L20.0475 1.3802C20.0321 1.28302 19.9974 1.18987 19.9457 1.10618C19.8939 1.02249 19.8261 0.949927 19.746 0.892701C19.6667 0.834162 19.5764 0.792286 19.4805 0.7696C19.3846 0.746913 19.2851 0.743886 19.188 0.760701L2.88 3.4067C2.7827 3.42237 2.68945 3.4571 2.60561 3.50889C2.52176 3.56069 2.44897 3.62853 2.39141 3.70853C2.33385 3.78852 2.29266 3.8791 2.27019 3.97506C2.24773 4.07102 2.24443 4.17047 2.2605 4.2677L2.298 4.5002H1.5C1.10218 4.5002 0.720644 4.65824 0.43934 4.93954C0.158035 5.22085 0 5.60238 0 6.0002L0 22.5002C0 22.898 0.158035 23.2796 0.43934 23.5609C0.720644 23.8422 1.10218 24.0002 1.5 24.0002H21C21.3978 24.0002 21.7794 23.8422 22.0607 23.5609C22.342 23.2796 22.5 22.898 22.5 22.5002V18.0002C22.8978 18.0002 23.2794 17.8422 23.5607 17.5609C23.842 17.2796 24 16.898 24 16.5002V12.0002C24 11.6024 23.842 11.2208 23.5607 10.9395C23.2794 10.6582 22.8978 10.5002 22.5 10.5002ZM1.5 6.0002H21V10.5002H15C14.6022 10.5002 14.2206 10.6582 13.9393 10.9395C13.658 11.2208 13.5 11.6024 13.5 12.0002V16.5002C13.5 16.898 13.658 17.2796 13.9393 17.5609C14.2206 17.8422 14.6022 18.0002 15 18.0002H21V22.5002H1.5V6.0002ZM5.502 4.5002L18.687 2.3597L19.0335 4.5002H5.502ZM15 16.5002V12.0002H22.5V16.5002H15ZM16.5 14.2502C16.5 14.4491 16.579 14.6399 16.7197 14.7805C16.8603 14.9212 17.0511 15.0002 17.25 15.0002C17.4489 15.0002 17.6397 14.9212 17.7803 14.7805C17.921 14.6399 18 14.4491 18 14.2502C18 14.0513 17.921 13.8605 17.7803 13.7199C17.6397 13.5792 17.4489 13.5002 17.25 13.5002C17.0511 13.5002 16.8603 13.5792 16.7197 13.7199C16.579 13.8605 16.5 14.0513 16.5 14.2502Z" fill="white"/>
</g>
<defs>
<clipPath id="clip0_256_23487">
<rect width="24" height="24" fill="white"/>
</clipPath>
</defs>
</svg>
